<svg xmlns="http://www.w3.org/2000/svg" xmlns:xlink="http://www.w3.org/1999/xlink" width="500" zoomAndPan="magnify" viewBox="0 0 375 374.999991" height="500" preserveAspectRatio="xMidYMid meet" version="1.2"><defs><clipPath id="235d25253c"><path d="M 231.269531 166.289062 L 241.769531 166.289062 L 241.769531 173.789062 L 231.269531 173.789062 Z M 231.269531 166.289062 "/></clipPath><clipPath id="7ae5ffe491"><path d="M 198.613281 147.417969 L 237.464844 141.023438 L 243.953125 180.425781 L 205.101562 186.824219 Z M 198.613281 147.417969 "/></clipPath><clipPath id="96408f52a8"><path d="M 237.519531 141.011719 L 198.664062 147.410156 L 205.152344 186.816406 L 244.003906 180.421875 Z M 237.519531 141.011719 "/></clipPath><clipPath id="14cf19a1a5"><path d="M 231.269531 164.039062 L 239.519531 164.039062 L 239.519531 173.789062 L 231.269531 173.789062 Z M 231.269531 164.039062 "/></clipPath><clipPath id="a37ae208ad"><path d="M 198.613281 147.417969 L 237.464844 141.023438 L 243.953125 180.425781 L 205.101562 186.824219 Z M 198.613281 147.417969 "/></clipPath><clipPath id="d733e5dcde"><path d="M 237.519531 141.011719 L 198.664062 147.410156 L 205.152344 186.816406 L 244.003906 180.421875 Z M 237.519531 141.011719 "/></clipPath><clipPath id="57c6c93a42"><path d="M 229.019531 172.289062 L 232 172.289062 L 232 175.289062 L 229.019531 175.289062 Z M 229.019531 172.289062 "/></clipPath><clipPath id="d7538023f7"><path d="M 198.613281 147.417969 L 237.464844 141.023438 L 243.953125 180.425781 L 205.101562 186.824219 Z M 198.613281 147.417969 "/></clipPath><clipPath id="b1de1f2114"><path d="M 237.519531 141.011719 L 198.664062 147.410156 L 205.152344 186.816406 L 244.003906 180.421875 Z M 237.519531 141.011719 "/></clipPath><clipPath id="1b3525c1f6"><path d="M 203 165.539062 L 230.519531 165.539062 L 230.519531 185.789062 L 203 185.789062 Z M 203 165.539062 "/></clipPath><clipPath id="2e2e5142b0"><path d="M 198.613281 147.417969 L 237.464844 141.023438 L 243.953125 180.425781 L 205.101562 186.824219 Z M 198.613281 147.417969 "/></clipPath><clipPath id="710bae459f"><path d="M 237.519531 141.011719 L 198.664062 147.410156 L 205.152344 186.816406 L 244.003906 180.421875 Z M 237.519531 141.011719 "/></clipPath><clipPath id="71f6f712ab"><path d="M 211.019531 143.039062 L 239.519531 143.039062 L 239.519531 175 L 211.019531 175 Z M 211.019531 143.039062 "/></clipPath><clipPath id="8a49577bc9"><path d="M 198.613281 147.417969 L 237.464844 141.023438 L 243.953125 180.425781 L 205.101562 186.824219 Z M 198.613281 147.417969 "/></clipPath><clipPath id="e39460ccdf"><path d="M 237.519531 141.011719 L 198.664062 147.410156 L 205.152344 186.816406 L 244.003906 180.421875 Z M 237.519531 141.011719 "/></clipPath></defs><g id="9bc7a80b57"><g clip-rule="nonzero" clip-path="url(#235d25253c)"><g clip-rule="nonzero" clip-path="url(#7ae5ffe491)"><g clip-rule="nonzero" clip-path="url(#96408f52a8)"><path style=" stroke:none;fill-rule:nonzero;fill:#ffffff;fill-opacity:1;" d="M 240.253906 167.015625 C 240.265625 166.984375 240.28125 166.957031 240.300781 166.925781 C 240.316406 166.898438 240.335938 166.875 240.359375 166.851562 C 240.382812 166.828125 240.402344 166.804688 240.429688 166.789062 C 240.453125 166.769531 240.476562 166.757812 240.503906 166.746094 C 240.53125 166.734375 240.558594 166.726562 240.582031 166.722656 C 240.609375 166.71875 240.636719 166.71875 240.664062 166.722656 C 240.6875 166.722656 240.710938 166.730469 240.734375 166.734375 C 240.761719 166.746094 240.78125 166.757812 240.804688 166.769531 C 240.824219 166.78125 240.84375 166.800781 240.863281 166.816406 C 240.875 166.832031 240.894531 166.851562 240.910156 166.875 L 240.914062 166.878906 L 240.917969 166.886719 L 240.929688 166.902344 C 240.933594 166.910156 240.933594 166.914062 240.9375 166.921875 C 240.941406 166.925781 240.945312 166.933594 240.945312 166.9375 L 240.953125 166.953125 C 240.953125 166.957031 240.957031 166.957031 240.957031 166.957031 L 240.957031 166.96875 L 240.964844 166.988281 C 240.964844 166.992188 240.964844 166.992188 240.964844 166.996094 L 240.96875 167.003906 C 241 167.113281 241.003906 167.226562 240.988281 167.332031 C 240.972656 167.445312 240.9375 167.554688 240.886719 167.664062 C 240.839844 167.773438 240.777344 167.878906 240.703125 167.980469 C 240.667969 168.03125 240.628906 168.082031 240.59375 168.128906 L 240.578125 168.148438 L 240.566406 168.164062 C 240.558594 168.167969 240.558594 168.171875 240.550781 168.175781 L 240.535156 168.195312 L 240.46875 168.257812 C 240.429688 168.304688 240.378906 168.351562 240.332031 168.398438 C 240.285156 168.441406 240.230469 168.484375 240.183594 168.527344 C 240.136719 168.574219 240.082031 168.617188 240.03125 168.660156 C 239.984375 168.703125 239.929688 168.746094 239.878906 168.785156 C 239.851562 168.808594 239.828125 168.832031 239.796875 168.851562 L 239.71875 168.914062 C 239.691406 168.933594 239.667969 168.953125 239.640625 168.972656 L 239.558594 169.03125 C 239.339844 169.191406 239.117188 169.347656 238.886719 169.488281 L 238.71875 169.597656 C 238.660156 169.632812 238.601562 169.671875 238.542969 169.703125 C 238.484375 169.738281 238.425781 169.777344 238.367188 169.808594 C 238.308594 169.84375 238.25 169.878906 238.191406 169.910156 C 238.15625 169.929688 238.128906 169.945312 238.097656 169.960938 L 238.007812 170.015625 L 237.914062 170.066406 L 237.734375 170.171875 C 237.703125 170.191406 237.675781 170.207031 237.644531 170.222656 L 237.464844 170.320312 C 237.347656 170.390625 237.226562 170.457031 237.105469 170.519531 C 236.984375 170.582031 236.859375 170.644531 236.738281 170.707031 L 236.550781 170.800781 C 236.492188 170.835938 236.429688 170.867188 236.367188 170.894531 C 236.304688 170.929688 236.242188 170.957031 236.179688 170.988281 C 236.117188 171.019531 236.054688 171.050781 235.992188 171.082031 C 235.742188 171.210938 235.488281 171.332031 235.238281 171.460938 C 235.109375 171.527344 234.984375 171.589844 234.859375 171.65625 C 234.734375 171.726562 234.609375 171.792969 234.484375 171.863281 C 234.359375 171.929688 234.238281 172.003906 234.113281 172.074219 L 233.9375 172.175781 C 233.875 172.207031 233.816406 172.242188 233.753906 172.277344 L 233.570312 172.378906 C 233.507812 172.414062 233.445312 172.445312 233.386719 172.480469 C 233.261719 172.550781 233.136719 172.617188 233.011719 172.691406 C 232.890625 172.765625 232.765625 172.839844 232.644531 172.914062 C 232.585938 172.953125 232.523438 172.992188 232.464844 173.03125 C 232.433594 173.050781 232.402344 173.074219 232.375 173.09375 C 232.34375 173.113281 232.316406 173.132812 232.285156 173.15625 C 232.050781 173.320312 231.828125 173.507812 231.625 173.710938 L 231.652344 173.753906 C 231.882812 173.589844 232.125 173.445312 232.371094 173.3125 C 232.621094 173.179688 232.871094 173.058594 233.128906 172.945312 L 233.902344 172.597656 C 233.964844 172.570312 234.03125 172.539062 234.09375 172.511719 L 234.285156 172.417969 C 234.410156 172.359375 234.535156 172.296875 234.664062 172.234375 C 235.171875 171.992188 235.683594 171.761719 236.199219 171.527344 C 236.453125 171.410156 236.710938 171.289062 236.960938 171.164062 C 237.214844 171.039062 237.464844 170.90625 237.714844 170.773438 L 237.898438 170.667969 C 237.929688 170.652344 237.960938 170.632812 237.992188 170.613281 L 238.082031 170.5625 C 238.203125 170.488281 238.324219 170.421875 238.449219 170.347656 C 238.691406 170.203125 238.929688 170.054688 239.164062 169.894531 C 239.398438 169.734375 239.625 169.570312 239.84375 169.390625 L 239.929688 169.324219 C 239.957031 169.300781 239.984375 169.277344 240.007812 169.253906 C 240.066406 169.207031 240.117188 169.164062 240.171875 169.117188 C 240.222656 169.066406 240.277344 169.019531 240.324219 168.972656 C 240.378906 168.925781 240.429688 168.875 240.476562 168.824219 C 240.527344 168.773438 240.578125 168.722656 240.625 168.667969 C 240.675781 168.617188 240.722656 168.5625 240.769531 168.507812 L 240.835938 168.425781 L 240.851562 168.40625 C 240.859375 168.398438 240.863281 168.390625 240.867188 168.386719 C 240.878906 168.371094 240.886719 168.351562 240.898438 168.339844 C 240.9375 168.28125 240.976562 168.21875 241.011719 168.15625 C 241.085938 168.035156 241.144531 167.902344 241.191406 167.765625 C 241.234375 167.628906 241.261719 167.484375 241.265625 167.339844 C 241.269531 167.191406 241.238281 167.046875 241.179688 166.914062 C 241.167969 166.878906 241.148438 166.847656 241.128906 166.816406 C 241.117188 166.800781 241.105469 166.785156 241.09375 166.769531 L 241.074219 166.75 L 241.066406 166.738281 L 241.039062 166.710938 L 241.015625 166.691406 L 240.96875 166.65625 C 240.941406 166.636719 240.910156 166.617188 240.875 166.605469 C 240.839844 166.589844 240.800781 166.582031 240.761719 166.574219 C 240.726562 166.570312 240.6875 166.570312 240.652344 166.570312 C 240.613281 166.574219 240.574219 166.582031 240.539062 166.59375 C 240.503906 166.605469 240.472656 166.625 240.441406 166.644531 C 240.40625 166.664062 240.378906 166.6875 240.351562 166.714844 C 240.328125 166.742188 240.304688 166.769531 240.285156 166.804688 C 240.246094 166.867188 240.21875 166.933594 240.203125 167.007812 Z M 240.253906 167.015625 "/></g></g></g><g clip-rule="nonzero" clip-path="url(#14cf19a1a5)"><g clip-rule="nonzero" clip-path="url(#a37ae208ad)"><g clip-rule="nonzero" clip-path="url(#d733e5dcde)"><path style=" stroke:none;fill-rule:nonzero;fill:#ffffff;fill-opacity:1;" d="M 238.089844 164.625 C 238.097656 164.589844 238.101562 164.554688 238.113281 164.523438 C 238.121094 164.492188 238.136719 164.460938 238.152344 164.433594 C 238.167969 164.40625 238.183594 164.378906 238.203125 164.355469 C 238.226562 164.335938 238.246094 164.316406 238.269531 164.296875 C 238.292969 164.28125 238.316406 164.269531 238.339844 164.257812 C 238.367188 164.25 238.390625 164.238281 238.414062 164.238281 C 238.441406 164.234375 238.46875 164.234375 238.492188 164.234375 C 238.519531 164.238281 238.542969 164.242188 238.566406 164.25 C 238.589844 164.257812 238.609375 164.269531 238.632812 164.28125 C 238.652344 164.296875 238.671875 164.308594 238.691406 164.324219 L 238.71875 164.351562 C 238.722656 164.355469 238.726562 164.359375 238.730469 164.367188 C 238.734375 164.371094 238.742188 164.375 238.742188 164.378906 L 238.753906 164.390625 C 238.753906 164.394531 238.753906 164.398438 238.757812 164.398438 L 238.761719 164.40625 L 238.769531 164.425781 C 238.773438 164.425781 238.773438 164.425781 238.777344 164.429688 L 238.78125 164.441406 C 238.835938 164.539062 238.867188 164.644531 238.878906 164.753906 C 238.886719 164.867188 238.882812 164.980469 238.859375 165.097656 C 238.835938 165.214844 238.800781 165.332031 238.753906 165.449219 C 238.734375 165.507812 238.707031 165.5625 238.683594 165.621094 L 238.664062 165.660156 C 238.660156 165.667969 238.660156 165.671875 238.65625 165.679688 L 238.644531 165.699219 L 238.59375 165.777344 C 238.566406 165.832031 238.527344 165.886719 238.492188 165.941406 C 238.457031 165.996094 238.417969 166.054688 238.382812 166.109375 C 238.34375 166.164062 238.304688 166.21875 238.265625 166.269531 C 238.226562 166.324219 238.1875 166.378906 238.144531 166.429688 C 238.125 166.457031 238.105469 166.484375 238.085938 166.511719 L 238.023438 166.589844 C 238 166.617188 237.980469 166.640625 237.957031 166.667969 L 237.894531 166.746094 C 237.71875 166.949219 237.539062 167.152344 237.351562 167.347656 L 237.210938 167.496094 C 237.160156 167.542969 237.113281 167.589844 237.066406 167.640625 C 237.019531 167.6875 236.972656 167.734375 236.921875 167.78125 C 236.871094 167.832031 236.820312 167.878906 236.773438 167.925781 C 236.75 167.949219 236.722656 167.972656 236.699219 167.996094 L 236.621094 168.070312 L 236.542969 168.140625 L 236.46875 168.210938 L 236.394531 168.285156 C 236.367188 168.308594 236.34375 168.335938 236.316406 168.355469 L 236.167969 168.496094 C 236.070312 168.589844 235.964844 168.679688 235.863281 168.773438 C 235.761719 168.867188 235.65625 168.953125 235.554688 169.042969 L 235.394531 169.179688 C 235.34375 169.226562 235.289062 169.269531 235.238281 169.3125 C 235.183594 169.359375 235.132812 169.40625 235.078125 169.449219 C 235.023438 169.496094 234.972656 169.539062 234.917969 169.585938 C 234.707031 169.769531 234.488281 169.945312 234.277344 170.132812 C 234.171875 170.226562 234.0625 170.320312 233.957031 170.414062 C 233.851562 170.507812 233.742188 170.601562 233.640625 170.703125 C 233.53125 170.796875 233.433594 170.894531 233.328125 170.996094 L 233.179688 171.136719 C 233.128906 171.183594 233.082031 171.230469 233.027344 171.28125 L 232.871094 171.421875 C 232.824219 171.46875 232.769531 171.515625 232.71875 171.5625 C 232.613281 171.660156 232.507812 171.757812 232.40625 171.855469 C 232.304688 171.957031 232.203125 172.054688 232.101562 172.160156 C 232.050781 172.214844 232.003906 172.265625 231.957031 172.320312 C 231.933594 172.347656 231.90625 172.371094 231.882812 172.398438 C 231.859375 172.425781 231.835938 172.453125 231.8125 172.480469 C 231.625 172.699219 231.449219 172.929688 231.300781 173.179688 L 231.339844 173.210938 C 231.523438 173 231.722656 172.800781 231.933594 172.613281 C 232.140625 172.425781 232.359375 172.246094 232.578125 172.074219 L 233.246094 171.554688 C 233.304688 171.511719 233.359375 171.46875 233.414062 171.421875 L 233.578125 171.292969 C 233.6875 171.199219 233.792969 171.109375 233.902344 171.023438 C 234.335938 170.664062 234.78125 170.320312 235.222656 169.96875 C 235.445312 169.792969 235.664062 169.613281 235.878906 169.433594 C 236.09375 169.253906 236.308594 169.066406 236.515625 168.875 L 236.671875 168.726562 C 236.695312 168.703125 236.722656 168.679688 236.75 168.65625 L 236.820312 168.582031 C 236.925781 168.480469 237.027344 168.386719 237.125 168.289062 C 237.328125 168.089844 237.523438 167.886719 237.714844 167.675781 C 237.902344 167.464844 238.085938 167.25 238.257812 167.027344 L 238.320312 166.941406 C 238.34375 166.910156 238.363281 166.882812 238.386719 166.851562 C 238.425781 166.796875 238.46875 166.738281 238.507812 166.679688 C 238.546875 166.621094 238.589844 166.5625 238.625 166.503906 C 238.660156 166.441406 238.703125 166.382812 238.738281 166.324219 C 238.773438 166.261719 238.8125 166.199219 238.84375 166.136719 C 238.875 166.078125 238.910156 166.015625 238.941406 165.949219 L 238.988281 165.855469 L 239 165.828125 C 239.003906 165.820312 239.007812 165.8125 239.011719 165.804688 C 239.019531 165.785156 239.023438 165.769531 239.03125 165.75 C 239.054688 165.683594 239.078125 165.617188 239.097656 165.550781 C 239.136719 165.410156 239.164062 165.269531 239.175781 165.125 C 239.1875 164.984375 239.183594 164.835938 239.148438 164.695312 C 239.117188 164.554688 239.054688 164.414062 238.964844 164.300781 C 238.941406 164.273438 238.917969 164.242188 238.890625 164.214844 C 238.875 164.203125 238.859375 164.191406 238.847656 164.179688 L 238.824219 164.167969 L 238.8125 164.15625 L 238.800781 164.152344 L 238.753906 164.121094 L 238.738281 164.117188 L 238.726562 164.109375 L 238.699219 164.101562 C 238.664062 164.085938 238.628906 164.078125 238.589844 164.074219 C 238.554688 164.066406 238.515625 164.066406 238.476562 164.070312 C 238.441406 164.074219 238.402344 164.082031 238.367188 164.09375 C 238.332031 164.105469 238.296875 164.121094 238.265625 164.144531 C 238.234375 164.164062 238.207031 164.1875 238.179688 164.214844 C 238.15625 164.242188 238.132812 164.273438 238.113281 164.304688 C 238.09375 164.335938 238.078125 164.371094 238.066406 164.40625 C 238.046875 164.476562 238.035156 164.550781 238.039062 164.625 Z M 238.089844 164.625 "/></g></g></g><g clip-rule="nonzero" clip-path="url(#57c6c93a42)"><g clip-rule="nonzero" clip-path="url(#d7538023f7)"><g clip-rule="nonzero" clip-path="url(#b1de1f2114)"><path style=" stroke:none;fill-rule:nonzero;fill:#ffffff;fill-opacity:1;" d="M 231.292969 173.191406 C 231.351562 173.316406 231.394531 173.4375 231.414062 173.554688 C 231.421875 173.613281 231.429688 173.671875 231.429688 173.730469 C 231.429688 173.789062 231.429688 173.84375 231.421875 173.894531 C 231.417969 173.953125 231.40625 174.003906 231.394531 174.054688 C 231.378906 174.105469 231.363281 174.152344 231.34375 174.199219 C 231.300781 174.292969 231.253906 174.371094 231.195312 174.433594 C 231.136719 174.5 231.074219 174.542969 231.015625 174.570312 C 230.953125 174.59375 230.902344 174.601562 230.839844 174.597656 C 230.78125 174.597656 230.714844 174.582031 230.636719 174.550781 C 230.597656 174.535156 230.5625 174.515625 230.519531 174.492188 L 230.503906 174.488281 L 230.492188 174.480469 C 230.480469 174.472656 230.472656 174.46875 230.464844 174.460938 L 230.4375 174.445312 C 230.433594 174.4375 230.421875 174.433594 230.414062 174.425781 C 230.351562 174.378906 230.304688 174.328125 230.269531 174.277344 C 230.234375 174.222656 230.207031 174.164062 230.191406 174.09375 C 230.1875 174.082031 230.1875 174.074219 230.1875 174.0625 C 230.1875 174.054688 230.183594 174.046875 230.183594 174.035156 C 230.179688 174.015625 230.175781 174 230.175781 173.976562 C 230.175781 173.9375 230.175781 173.894531 230.183594 173.855469 C 230.195312 173.765625 230.222656 173.679688 230.257812 173.59375 C 230.296875 173.507812 230.347656 173.425781 230.40625 173.355469 L 230.429688 173.332031 L 230.457031 173.308594 C 230.464844 173.296875 230.472656 173.289062 230.480469 173.285156 C 230.492188 173.273438 230.5 173.265625 230.507812 173.261719 C 230.542969 173.226562 230.585938 173.203125 230.625 173.183594 C 230.667969 173.160156 230.714844 173.144531 230.765625 173.132812 C 230.816406 173.121094 230.867188 173.117188 230.925781 173.117188 C 230.984375 173.117188 231.042969 173.121094 231.105469 173.136719 C 231.167969 173.148438 231.230469 173.167969 231.292969 173.191406 L 231.328125 173.15625 C 231.226562 173.066406 231.113281 172.992188 230.984375 172.945312 C 230.855469 172.898438 230.714844 172.886719 230.574219 172.910156 C 230.441406 172.933594 230.3125 172.992188 230.199219 173.070312 C 230.089844 173.148438 229.992188 173.25 229.917969 173.363281 C 229.835938 173.472656 229.777344 173.601562 229.742188 173.730469 C 229.707031 173.863281 229.691406 174.003906 229.707031 174.140625 C 229.71875 174.28125 229.761719 174.414062 229.832031 174.535156 C 229.867188 174.59375 229.90625 174.648438 229.953125 174.703125 C 230 174.75 230.054688 174.796875 230.105469 174.839844 C 230.164062 174.878906 230.222656 174.914062 230.28125 174.949219 C 230.339844 174.980469 230.40625 175.007812 230.46875 175.03125 C 230.597656 175.074219 230.738281 175.101562 230.878906 175.089844 C 231.019531 175.078125 231.15625 175.03125 231.269531 174.949219 C 231.328125 174.914062 231.382812 174.867188 231.429688 174.816406 C 231.476562 174.761719 231.515625 174.707031 231.550781 174.648438 C 231.617188 174.53125 231.664062 174.398438 231.691406 174.265625 C 231.714844 174.132812 231.71875 173.996094 231.699219 173.859375 C 231.679688 173.726562 231.636719 173.59375 231.574219 173.472656 C 231.511719 173.355469 231.429688 173.246094 231.328125 173.15625 Z M 231.292969 173.191406 "/></g></g></g><g clip-rule="nonzero" clip-path="url(#1b3525c1f6)"><g clip-rule="nonzero" clip-path="url(#2e2e5142b0)"><g clip-rule="nonzero" clip-path="url(#710bae459f)"><path style=" stroke:none;fill-rule:nonzero;fill:#ffffff;fill-opacity:1;" d="M 230.355469 174.699219 C 229.890625 174.953125 229.457031 175.257812 229.039062 175.578125 C 228.828125 175.734375 228.621094 175.902344 228.417969 176.070312 C 228.21875 176.238281 228.019531 176.410156 227.824219 176.585938 C 227.433594 176.933594 227.050781 177.292969 226.675781 177.660156 C 226.488281 177.84375 226.300781 178.027344 226.117188 178.210938 C 225.933594 178.398438 225.746094 178.582031 225.566406 178.769531 C 224.835938 179.519531 224.125 180.289062 223.410156 181.046875 C 223.054688 181.425781 222.699219 181.804688 222.335938 182.175781 C 222.152344 182.355469 221.972656 182.539062 221.785156 182.714844 C 221.691406 182.800781 221.597656 182.886719 221.503906 182.96875 C 221.410156 183.050781 221.316406 183.128906 221.222656 183.195312 L 221.257812 183.175781 C 221.140625 183.230469 221.023438 183.277344 220.902344 183.308594 C 220.78125 183.339844 220.660156 183.351562 220.554688 183.34375 C 220.5 183.339844 220.453125 183.332031 220.410156 183.316406 C 220.367188 183.304688 220.335938 183.28125 220.308594 183.257812 C 220.277344 183.234375 220.25 183.210938 220.230469 183.175781 C 220.210938 183.140625 220.191406 183.09375 220.179688 183.046875 L 220.171875 183.035156 L 220.164062 183.011719 C 220.148438 182.976562 220.140625 182.933594 220.140625 182.886719 C 220.136719 182.84375 220.144531 182.789062 220.15625 182.734375 C 220.179688 182.625 220.234375 182.5 220.304688 182.378906 C 220.371094 182.261719 220.453125 182.140625 220.542969 182.023438 C 220.632812 181.90625 220.730469 181.789062 220.832031 181.675781 C 221.035156 181.453125 221.257812 181.238281 221.484375 181.03125 C 221.714844 180.820312 221.949219 180.617188 222.191406 180.421875 C 222.675781 180.023438 223.175781 179.644531 223.6875 179.277344 C 223.941406 179.09375 224.199219 178.910156 224.457031 178.734375 C 224.71875 178.550781 224.980469 178.375 225.242188 178.199219 C 225.503906 178.023438 225.769531 177.847656 226.03125 177.675781 C 226.296875 177.5 226.5625 177.328125 226.828125 177.152344 C 226.894531 177.105469 226.960938 177.058594 227.03125 177.011719 C 227.0625 176.992188 227.097656 176.96875 227.128906 176.941406 C 227.164062 176.917969 227.199219 176.894531 227.238281 176.863281 L 227.246094 176.859375 C 227.25 176.859375 227.242188 176.863281 227.253906 176.855469 L 227.28125 176.835938 C 227.300781 176.820312 227.316406 176.804688 227.335938 176.792969 C 227.375 176.765625 227.410156 176.734375 227.441406 176.707031 C 227.511719 176.648438 227.578125 176.585938 227.644531 176.515625 C 227.710938 176.441406 227.773438 176.367188 227.835938 176.265625 C 227.867188 176.214844 227.898438 176.15625 227.921875 176.085938 C 227.945312 176.015625 227.964844 175.933594 227.960938 175.835938 C 227.960938 175.785156 227.949219 175.734375 227.9375 175.679688 C 227.917969 175.628906 227.894531 175.582031 227.867188 175.539062 C 227.84375 175.496094 227.8125 175.460938 227.78125 175.429688 C 227.761719 175.414062 227.75 175.398438 227.730469 175.382812 C 227.710938 175.367188 227.734375 175.382812 227.679688 175.34375 C 227.65625 175.332031 227.644531 175.324219 227.632812 175.320312 C 227.582031 175.296875 227.546875 175.285156 227.511719 175.277344 C 227.480469 175.265625 227.445312 175.261719 227.414062 175.253906 C 227.355469 175.246094 227.300781 175.242188 227.246094 175.242188 C 227.140625 175.238281 227.042969 175.246094 226.949219 175.257812 C 226.855469 175.269531 226.765625 175.289062 226.679688 175.3125 C 226.59375 175.328125 226.507812 175.355469 226.429688 175.378906 C 226.355469 175.398438 226.273438 175.421875 226.199219 175.445312 C 226.042969 175.496094 225.886719 175.546875 225.734375 175.59375 C 225.582031 175.648438 225.429688 175.703125 225.277344 175.757812 C 224.667969 175.988281 224.070312 176.261719 223.496094 176.585938 C 222.921875 176.910156 222.382812 177.289062 221.878906 177.710938 C 221.816406 177.765625 221.75 177.820312 221.691406 177.875 C 221.628906 177.925781 221.566406 177.984375 221.503906 178.039062 C 221.476562 178.066406 221.445312 178.097656 221.417969 178.125 L 221.328125 178.207031 C 221.269531 178.265625 221.210938 178.324219 221.15625 178.378906 C 220.929688 178.605469 220.703125 178.835938 220.484375 179.070312 C 220.042969 179.53125 219.617188 180.003906 219.183594 180.464844 C 218.753906 180.925781 218.320312 181.378906 217.867188 181.804688 C 217.640625 182.019531 217.410156 182.226562 217.175781 182.425781 C 216.9375 182.628906 216.695312 182.828125 216.449219 183.019531 C 215.960938 183.398438 215.449219 183.753906 214.917969 184.066406 C 214.65625 184.21875 214.386719 184.367188 214.109375 184.496094 C 213.835938 184.628906 213.554688 184.742188 213.269531 184.839844 C 212.703125 185.027344 212.109375 185.140625 211.527344 185.132812 C 211.234375 185.128906 210.945312 185.097656 210.660156 185.03125 C 210.375 184.964844 210.101562 184.871094 209.835938 184.746094 C 209.570312 184.621094 209.316406 184.46875 209.078125 184.292969 C 209.046875 184.269531 209.023438 184.253906 208.996094 184.230469 C 208.96875 184.210938 208.941406 184.183594 208.914062 184.164062 L 208.894531 184.148438 L 208.871094 184.125 L 208.832031 184.089844 L 208.746094 184.011719 C 208.636719 183.910156 208.523438 183.804688 208.417969 183.695312 C 208.3125 183.585938 208.207031 183.472656 208.105469 183.359375 C 208.003906 183.246094 207.90625 183.128906 207.804688 183.007812 C 207.613281 182.765625 207.425781 182.519531 207.246094 182.269531 C 207.066406 182.015625 206.890625 181.757812 206.722656 181.492188 C 206.636719 181.359375 206.550781 181.226562 206.46875 181.09375 L 206.34375 180.890625 L 206.28125 180.785156 L 206.210938 180.679688 L 206.070312 180.480469 L 205.929688 180.285156 L 205.652344 179.898438 C 205.46875 179.640625 205.285156 179.382812 205.109375 179.125 C 204.933594 178.867188 204.765625 178.605469 204.609375 178.339844 C 204.453125 178.078125 204.308594 177.804688 204.183594 177.527344 C 204.152344 177.457031 204.125 177.386719 204.09375 177.316406 L 204.007812 177.105469 C 203.949219 176.960938 203.902344 176.824219 203.863281 176.679688 C 203.785156 176.394531 203.738281 176.105469 203.722656 175.808594 C 203.707031 175.511719 203.726562 175.214844 203.773438 174.917969 C 203.824219 174.621094 203.902344 174.328125 203.996094 174.035156 C 204.089844 173.746094 204.203125 173.460938 204.328125 173.175781 C 204.453125 172.890625 204.589844 172.609375 204.734375 172.332031 C 205.019531 171.773438 205.328125 171.214844 205.621094 170.648438 C 205.765625 170.359375 205.90625 170.074219 206.035156 169.777344 L 206.085938 169.664062 L 206.132812 169.554688 C 206.164062 169.476562 206.195312 169.402344 206.222656 169.328125 C 206.28125 169.183594 206.339844 169.039062 206.402344 168.894531 C 206.527344 168.609375 206.65625 168.328125 206.808594 168.054688 C 206.953125 167.785156 207.121094 167.523438 207.308594 167.285156 C 207.496094 167.042969 207.703125 166.820312 207.941406 166.632812 C 208.058594 166.535156 208.179688 166.453125 208.3125 166.375 C 208.378906 166.335938 208.441406 166.300781 208.507812 166.265625 L 208.609375 166.21875 C 208.625 166.207031 208.644531 166.207031 208.660156 166.195312 C 208.675781 166.191406 208.695312 166.183594 208.710938 166.179688 C 208.992188 166.078125 209.292969 166.019531 209.597656 166 C 209.90625 165.980469 210.21875 165.992188 210.527344 166.019531 C 210.839844 166.054688 211.144531 166.105469 211.453125 166.171875 C 211.761719 166.234375 212.066406 166.3125 212.371094 166.398438 C 212.976562 166.570312 213.574219 166.777344 214.175781 166.980469 L 214.222656 166.851562 C 213.628906 166.636719 213.03125 166.417969 212.417969 166.238281 C 212.113281 166.148438 211.804688 166.066406 211.492188 165.996094 C 211.179688 165.925781 210.867188 165.867188 210.546875 165.832031 C 210.230469 165.796875 209.910156 165.777344 209.585938 165.796875 C 209.269531 165.816406 208.945312 165.867188 208.640625 165.972656 C 208.621094 165.980469 208.601562 165.988281 208.582031 165.996094 C 208.566406 166.003906 208.542969 166.007812 208.527344 166.019531 L 208.46875 166.042969 L 208.414062 166.066406 C 208.34375 166.101562 208.273438 166.140625 208.203125 166.183594 C 208.0625 166.261719 207.925781 166.351562 207.800781 166.453125 C 207.546875 166.652344 207.320312 166.882812 207.121094 167.132812 C 206.917969 167.382812 206.746094 167.652344 206.585938 167.929688 C 206.429688 168.210938 206.292969 168.496094 206.164062 168.789062 C 206.097656 168.933594 206.035156 169.078125 205.976562 169.226562 C 205.945312 169.300781 205.917969 169.371094 205.882812 169.445312 L 205.789062 169.664062 C 205.660156 169.953125 205.519531 170.234375 205.367188 170.515625 C 205.074219 171.074219 204.761719 171.628906 204.464844 172.191406 C 204.320312 172.472656 204.175781 172.757812 204.042969 173.046875 C 203.914062 173.335938 203.792969 173.632812 203.691406 173.9375 C 203.589844 174.238281 203.507812 174.550781 203.453125 174.863281 C 203.398438 175.179688 203.375 175.5 203.386719 175.820312 C 203.398438 176.140625 203.449219 176.460938 203.535156 176.769531 C 203.574219 176.925781 203.628906 177.074219 203.683594 177.222656 C 203.738281 177.375 203.800781 177.523438 203.867188 177.667969 C 203.996094 177.960938 204.140625 178.242188 204.300781 178.519531 C 204.460938 178.792969 204.628906 179.0625 204.808594 179.328125 C 204.984375 179.589844 205.167969 179.847656 205.351562 180.109375 C 205.535156 180.367188 205.71875 180.628906 205.898438 180.890625 L 205.929688 180.9375 L 205.949219 180.960938 L 205.964844 180.984375 L 206.023438 181.089844 L 206.148438 181.289062 C 206.234375 181.425781 206.316406 181.558594 206.402344 181.695312 C 206.574219 181.960938 206.75 182.226562 206.929688 182.488281 C 207.296875 183.007812 207.691406 183.511719 208.132812 183.96875 C 208.246094 184.082031 208.359375 184.195312 208.476562 184.300781 L 208.566406 184.382812 C 208.59375 184.410156 208.625 184.4375 208.652344 184.464844 C 208.683594 184.488281 208.714844 184.515625 208.742188 184.542969 C 208.777344 184.566406 208.808594 184.59375 208.839844 184.617188 C 209.097656 184.804688 209.375 184.96875 209.664062 185.109375 C 209.949219 185.246094 210.253906 185.355469 210.566406 185.425781 C 210.878906 185.5 211.199219 185.539062 211.519531 185.542969 C 211.835938 185.546875 212.160156 185.519531 212.472656 185.46875 C 212.789062 185.414062 213.101562 185.332031 213.402344 185.230469 C 214.007812 185.03125 214.585938 184.75 215.132812 184.429688 C 215.683594 184.109375 216.207031 183.742188 216.710938 183.351562 C 216.960938 183.160156 217.207031 182.957031 217.449219 182.753906 C 217.695312 182.546875 217.929688 182.332031 218.164062 182.117188 C 218.625 181.679688 219.066406 181.222656 219.5 180.761719 C 219.933594 180.292969 220.363281 179.824219 220.800781 179.367188 C 221.015625 179.136719 221.238281 178.910156 221.464844 178.6875 C 221.574219 178.574219 221.691406 178.464844 221.804688 178.359375 C 221.863281 178.304688 221.917969 178.25 221.980469 178.199219 C 222.039062 178.148438 222.097656 178.09375 222.160156 178.042969 C 222.640625 177.636719 223.160156 177.273438 223.710938 176.964844 C 224.257812 176.648438 224.835938 176.386719 225.429688 176.167969 C 225.578125 176.109375 225.722656 176.054688 225.875 176.003906 C 226.027344 175.957031 226.175781 175.90625 226.328125 175.859375 C 226.402344 175.835938 226.476562 175.8125 226.554688 175.792969 C 226.628906 175.769531 226.707031 175.746094 226.777344 175.730469 C 226.855469 175.710938 226.929688 175.695312 227.007812 175.6875 C 227.082031 175.675781 227.164062 175.667969 227.234375 175.671875 C 227.273438 175.671875 227.3125 175.675781 227.347656 175.679688 C 227.363281 175.683594 227.382812 175.6875 227.398438 175.691406 C 227.414062 175.695312 227.433594 175.699219 227.445312 175.707031 C 227.449219 175.710938 227.453125 175.710938 227.453125 175.710938 C 227.449219 175.710938 227.457031 175.714844 227.457031 175.714844 C 227.464844 175.722656 227.46875 175.726562 227.476562 175.734375 C 227.488281 175.746094 227.496094 175.757812 227.503906 175.769531 C 227.519531 175.792969 227.527344 175.820312 227.53125 175.851562 C 227.535156 175.910156 227.503906 175.980469 227.46875 176.042969 C 227.433594 176.105469 227.382812 176.164062 227.328125 176.222656 C 227.277344 176.277344 227.222656 176.332031 227.164062 176.378906 C 227.132812 176.402344 227.105469 176.429688 227.070312 176.453125 C 227.058594 176.464844 227.042969 176.476562 227.027344 176.488281 L 227.003906 176.507812 C 227 176.507812 226.996094 176.511719 226.988281 176.515625 L 226.976562 176.523438 C 226.917969 176.570312 226.851562 176.617188 226.789062 176.660156 C 226.71875 176.707031 226.65625 176.75 226.589844 176.792969 C 226.328125 176.96875 226.0625 177.144531 225.796875 177.320312 C 225.53125 177.492188 225.265625 177.671875 225.003906 177.847656 C 224.742188 178.027344 224.480469 178.207031 224.21875 178.386719 C 223.957031 178.570312 223.699219 178.753906 223.441406 178.941406 C 222.925781 179.3125 222.417969 179.699219 221.929688 180.105469 C 221.683594 180.304688 221.445312 180.515625 221.210938 180.730469 C 220.976562 180.949219 220.746094 181.171875 220.53125 181.410156 C 220.425781 181.53125 220.320312 181.652344 220.226562 181.78125 C 220.128906 181.910156 220.035156 182.042969 219.957031 182.1875 C 219.875 182.332031 219.808594 182.484375 219.769531 182.648438 C 219.753906 182.730469 219.746094 182.820312 219.746094 182.90625 C 219.75 182.996094 219.769531 183.082031 219.804688 183.164062 L 219.804688 183.15625 C 219.828125 183.234375 219.855469 183.308594 219.902344 183.378906 C 219.945312 183.449219 220.003906 183.515625 220.070312 183.566406 C 220.136719 183.621094 220.214844 183.65625 220.289062 183.683594 C 220.367188 183.710938 220.449219 183.722656 220.53125 183.726562 C 220.691406 183.738281 220.847656 183.714844 221 183.675781 C 221.152344 183.636719 221.292969 183.582031 221.433594 183.507812 L 221.445312 183.503906 C 221.550781 183.421875 221.65625 183.339844 221.753906 183.25 C 221.851562 183.164062 221.949219 183.074219 222.042969 182.984375 C 222.234375 182.800781 222.417969 182.617188 222.601562 182.429688 C 222.964844 182.050781 223.320312 181.671875 223.671875 181.289062 C 224.382812 180.519531 225.085938 179.753906 225.804688 179 C 226.167969 178.621094 226.53125 178.25 226.898438 177.878906 C 227.265625 177.515625 227.640625 177.152344 228.023438 176.800781 C 228.40625 176.453125 228.804688 176.113281 229.210938 175.792969 C 229.617188 175.476562 230.035156 175.171875 230.480469 174.917969 Z M 230.355469 174.699219 "/></g></g></g><g clip-rule="nonzero" clip-path="url(#71f6f712ab)"><g clip-rule="nonzero" clip-path="url(#8a49577bc9)"><g clip-rule="nonzero" clip-path="url(#e39460ccdf)"><path style=" stroke:none;fill-rule:nonzero;fill:#ffffff;fill-opacity:1;" d="M 227.035156 154.089844 C 227 153.933594 226.984375 153.773438 226.980469 153.609375 C 226.980469 153.449219 226.988281 153.292969 227.007812 153.128906 C 227.042969 152.8125 227.117188 152.496094 227.214844 152.191406 C 227.414062 151.578125 227.726562 151.007812 228.125 150.503906 C 228.328125 150.257812 228.550781 150.023438 228.792969 149.816406 C 229.035156 149.605469 229.296875 149.417969 229.566406 149.25 C 229.703125 149.167969 229.84375 149.089844 229.988281 149.015625 C 230.128906 148.945312 230.273438 148.878906 230.421875 148.816406 L 230.53125 148.769531 L 230.644531 148.726562 L 230.699219 148.703125 L 230.757812 148.683594 L 230.875 148.636719 C 231.03125 148.570312 231.179688 148.488281 231.320312 148.394531 C 231.460938 148.304688 231.59375 148.195312 231.714844 148.078125 C 231.835938 147.960938 231.945312 147.828125 232.042969 147.691406 C 232.238281 147.410156 232.382812 147.105469 232.5 146.792969 C 232.617188 146.484375 232.710938 146.167969 232.796875 145.851562 L 232.8125 145.792969 C 232.8125 145.785156 232.816406 145.777344 232.820312 145.769531 L 232.828125 145.742188 L 232.867188 145.628906 C 232.890625 145.554688 232.917969 145.476562 232.945312 145.40625 C 233 145.253906 233.058594 145.105469 233.121094 144.960938 C 233.183594 144.816406 233.25 144.675781 233.328125 144.539062 C 233.398438 144.402344 233.480469 144.273438 233.574219 144.152344 C 233.664062 144.03125 233.761719 143.921875 233.871094 143.832031 C 233.925781 143.785156 233.984375 143.746094 234.042969 143.710938 C 234.101562 143.679688 234.160156 143.652344 234.21875 143.636719 C 234.34375 143.597656 234.472656 143.589844 234.605469 143.613281 L 234.628906 143.617188 C 234.636719 143.621094 234.640625 143.625 234.652344 143.625 L 234.675781 143.628906 L 234.699219 143.636719 C 234.710938 143.636719 234.714844 143.640625 234.722656 143.644531 L 234.75 143.652344 C 234.769531 143.660156 234.789062 143.664062 234.804688 143.671875 C 234.875 143.695312 234.945312 143.722656 235.015625 143.753906 C 235.292969 143.871094 235.550781 144.035156 235.789062 144.230469 C 236.023438 144.421875 236.242188 144.644531 236.441406 144.882812 C 236.640625 145.125 236.820312 145.378906 236.984375 145.644531 C 237.316406 146.179688 237.589844 146.753906 237.820312 147.347656 C 238.054688 147.9375 238.25 148.546875 238.410156 149.164062 C 238.492188 149.472656 238.566406 149.78125 238.625 150.09375 C 238.691406 150.40625 238.746094 150.71875 238.785156 151.03125 C 238.789062 151.066406 238.792969 151.105469 238.800781 151.144531 L 238.8125 151.261719 C 238.820312 151.339844 238.824219 151.417969 238.832031 151.5 C 238.84375 151.652344 238.851562 151.8125 238.859375 151.96875 C 238.871094 152.285156 238.871094 152.601562 238.863281 152.917969 C 238.84375 153.550781 238.78125 154.183594 238.683594 154.816406 C 238.492188 156.070312 238.167969 157.3125 237.753906 158.519531 C 237.546875 159.128906 237.320312 159.726562 237.074219 160.316406 C 236.949219 160.613281 236.824219 160.910156 236.691406 161.199219 C 236.5625 161.492188 236.425781 161.785156 236.289062 162.070312 C 235.730469 163.230469 235.117188 164.359375 234.453125 165.464844 C 233.796875 166.566406 233.09375 167.644531 232.351562 168.695312 C 231.980469 169.21875 231.597656 169.738281 231.207031 170.25 C 230.816406 170.761719 230.414062 171.261719 230.003906 171.753906 C 229.796875 172 229.589844 172.242188 229.378906 172.480469 C 229.167969 172.722656 228.949219 172.957031 228.730469 173.183594 C 228.621094 173.296875 228.511719 173.410156 228.398438 173.519531 C 228.289062 173.625 228.171875 173.730469 228.0625 173.824219 C 228.035156 173.847656 228.007812 173.867188 227.984375 173.886719 C 227.953125 173.90625 227.929688 173.929688 227.90625 173.941406 C 227.894531 173.953125 227.886719 173.957031 227.878906 173.960938 C 227.867188 173.964844 227.863281 173.96875 227.863281 173.96875 C 227.867188 173.96875 227.867188 173.964844 227.875 173.964844 C 227.882812 173.964844 227.894531 173.957031 227.921875 173.953125 C 227.949219 173.949219 227.988281 173.941406 228.070312 173.957031 C 228.152344 173.972656 228.289062 174.058594 228.332031 174.152344 C 228.382812 174.242188 228.382812 174.292969 228.386719 174.328125 C 228.386719 174.359375 228.382812 174.375 228.382812 174.386719 C 228.382812 174.398438 228.382812 174.390625 228.382812 174.375 L 228.390625 174.347656 L 228.417969 174.226562 C 228.429688 174.148438 228.445312 174.066406 228.460938 173.988281 C 228.523438 173.664062 228.582031 173.34375 228.636719 173.019531 C 228.691406 172.699219 228.746094 172.371094 228.792969 172.050781 C 228.839844 171.726562 228.886719 171.398438 228.921875 171.074219 C 228.964844 170.75 229 170.421875 229.03125 170.097656 C 229.15625 168.785156 229.214844 167.472656 229.179688 166.152344 C 229.167969 165.820312 229.152344 165.492188 229.132812 165.164062 C 229.109375 164.835938 229.085938 164.507812 229.050781 164.175781 L 229.023438 163.929688 C 229.015625 163.84375 229.003906 163.761719 228.992188 163.679688 L 228.980469 163.558594 L 228.960938 163.433594 C 228.949219 163.351562 228.9375 163.269531 228.925781 163.191406 C 228.875 162.863281 228.820312 162.539062 228.757812 162.210938 C 228.699219 161.886719 228.628906 161.566406 228.558594 161.246094 C 228.484375 160.921875 228.40625 160.605469 228.324219 160.285156 C 228.160156 159.648438 227.972656 159.015625 227.773438 158.390625 C 227.371094 157.140625 226.90625 155.914062 226.386719 154.710938 C 226.257812 154.40625 226.125 154.109375 225.988281 153.808594 C 225.851562 153.515625 225.710938 153.21875 225.570312 152.921875 C 225.28125 152.332031 224.984375 151.746094 224.667969 151.171875 C 224.351562 150.597656 224.023438 150.027344 223.671875 149.472656 C 223.496094 149.191406 223.3125 148.914062 223.121094 148.640625 C 223.074219 148.574219 223.027344 148.503906 222.980469 148.4375 L 222.90625 148.335938 L 222.828125 148.234375 C 222.78125 148.167969 222.730469 148.101562 222.679688 148.035156 L 222.601562 147.9375 L 222.523438 147.835938 C 222.496094 147.804688 222.46875 147.773438 222.441406 147.738281 L 222.359375 147.640625 C 222.332031 147.609375 222.300781 147.574219 222.277344 147.542969 C 222.261719 147.527344 222.246094 147.511719 222.230469 147.496094 L 222.191406 147.449219 L 222.148438 147.40625 L 222.113281 147.363281 C 222.082031 147.328125 222.054688 147.296875 222.027344 147.269531 C 221.96875 147.203125 221.910156 147.140625 221.851562 147.082031 C 221.613281 146.835938 221.367188 146.605469 221.109375 146.386719 C 220.851562 146.167969 220.585938 145.960938 220.308594 145.765625 C 220.03125 145.570312 219.742188 145.394531 219.441406 145.230469 C 219.144531 145.066406 218.832031 144.914062 218.503906 144.796875 C 218.179688 144.675781 217.839844 144.578125 217.484375 144.523438 C 217.132812 144.46875 216.765625 144.453125 216.398438 144.5 C 216.214844 144.527344 216.03125 144.5625 215.855469 144.621094 C 215.765625 144.648438 215.679688 144.679688 215.589844 144.714844 C 215.570312 144.726562 215.546875 144.734375 215.527344 144.742188 C 215.503906 144.753906 215.480469 144.761719 215.457031 144.773438 C 215.410156 144.796875 215.367188 144.820312 215.328125 144.84375 C 215.15625 144.941406 214.996094 145.066406 214.855469 145.203125 C 214.714844 145.34375 214.59375 145.5 214.496094 145.664062 C 214.398438 145.832031 214.320312 146.003906 214.257812 146.179688 C 214.195312 146.355469 214.152344 146.53125 214.117188 146.707031 C 214.050781 147.054688 214.023438 147.398438 214.015625 147.742188 C 214.011719 148.082031 214.027344 148.417969 214.050781 148.746094 C 214.070312 149.074219 214.101562 149.402344 214.125 149.71875 C 214.132812 149.800781 214.136719 149.878906 214.144531 149.957031 L 214.15625 150.195312 L 214.160156 150.3125 C 214.164062 150.351562 214.164062 150.390625 214.167969 150.429688 L 214.167969 150.546875 C 214.167969 150.585938 214.167969 150.621094 214.167969 150.664062 C 214.167969 150.820312 214.164062 150.972656 214.15625 151.128906 C 214.144531 151.285156 214.132812 151.4375 214.117188 151.59375 C 214.085938 151.902344 214.035156 152.214844 213.972656 152.519531 C 213.847656 153.136719 213.671875 153.75 213.476562 154.359375 L 213.402344 154.59375 L 213.328125 154.820312 L 213.253906 155.050781 L 213.175781 155.285156 C 213.078125 155.597656 212.980469 155.90625 212.882812 156.214844 C 212.6875 156.832031 212.492188 157.445312 212.273438 158.050781 L 212.191406 158.273438 L 212.019531 158.71875 L 211.972656 158.832031 L 211.929688 158.945312 L 211.90625 159 L 211.894531 159.03125 C 211.886719 159.039062 211.882812 159.050781 211.882812 159.0625 L 211.859375 159.125 L 211.835938 159.183594 C 211.808594 159.261719 211.78125 159.339844 211.753906 159.417969 C 211.699219 159.574219 211.648438 159.734375 211.601562 159.894531 C 211.511719 160.21875 211.433594 160.546875 211.382812 160.886719 C 211.332031 161.222656 211.3125 161.566406 211.328125 161.914062 C 211.34375 162.257812 211.398438 162.597656 211.484375 162.933594 C 211.570312 163.265625 211.691406 163.582031 211.835938 163.890625 C 211.871094 163.96875 211.90625 164.042969 211.941406 164.121094 L 212 164.230469 L 212.035156 164.289062 C 212.042969 164.308594 212.054688 164.328125 212.066406 164.34375 L 212.128906 164.457031 L 212.195312 164.5625 C 212.214844 164.597656 212.238281 164.632812 212.257812 164.667969 C 212.28125 164.703125 212.304688 164.738281 212.328125 164.773438 C 212.414062 164.910156 212.503906 165.046875 212.597656 165.1875 C 212.691406 165.320312 212.789062 165.457031 212.886719 165.585938 C 213.277344 166.117188 213.699219 166.625 214.140625 167.109375 C 214.585938 167.589844 215.046875 168.054688 215.527344 168.5 C 216.007812 168.945312 216.5 169.371094 217.003906 169.785156 C 217.507812 170.199219 218.023438 170.597656 218.550781 170.984375 C 218.8125 171.175781 219.078125 171.367188 219.34375 171.554688 L 219.542969 171.691406 L 219.746094 171.832031 L 219.949219 171.96875 C 219.984375 171.992188 220.019531 172.011719 220.050781 172.035156 L 220.15625 172.101562 C 220.710938 172.449219 221.285156 172.761719 221.878906 173.039062 C 222.46875 173.320312 223.074219 173.5625 223.691406 173.777344 C 224.921875 174.207031 226.1875 174.519531 227.457031 174.773438 L 227.46875 174.726562 C 226.203125 174.445312 224.949219 174.113281 223.730469 173.664062 C 223.121094 173.441406 222.523438 173.191406 221.945312 172.90625 C 221.363281 172.621094 220.796875 172.300781 220.253906 171.949219 L 220.152344 171.886719 C 220.121094 171.863281 220.085938 171.84375 220.050781 171.820312 L 219.453125 171.398438 C 219.195312 171.210938 218.933594 171.015625 218.675781 170.820312 C 218.15625 170.429688 217.648438 170.027344 217.152344 169.609375 C 216.160156 168.777344 215.210938 167.890625 214.347656 166.925781 C 213.914062 166.441406 213.503906 165.9375 213.125 165.414062 C 213.03125 165.28125 212.9375 165.152344 212.851562 165.015625 C 212.761719 164.882812 212.671875 164.746094 212.585938 164.609375 C 212.5 164.472656 212.417969 164.332031 212.335938 164.191406 C 212.328125 164.175781 212.316406 164.160156 212.304688 164.144531 L 212.28125 164.085938 C 212.261719 164.050781 212.242188 164.015625 212.222656 163.980469 C 212.1875 163.910156 212.152344 163.835938 212.121094 163.761719 C 211.988281 163.46875 211.878906 163.164062 211.800781 162.851562 C 211.71875 162.539062 211.671875 162.222656 211.660156 161.898438 C 211.648438 161.578125 211.671875 161.257812 211.722656 160.9375 C 211.773438 160.617188 211.847656 160.304688 211.941406 159.996094 C 211.988281 159.84375 212.035156 159.6875 212.089844 159.535156 C 212.117188 159.457031 212.144531 159.382812 212.171875 159.304688 L 212.214844 159.195312 C 212.222656 159.175781 212.230469 159.15625 212.234375 159.140625 L 212.257812 159.082031 C 212.386719 158.785156 212.507812 158.480469 212.621094 158.175781 C 212.84375 157.566406 213.046875 156.949219 213.246094 156.332031 C 213.347656 156.023438 213.445312 155.714844 213.546875 155.40625 L 213.625 155.175781 L 213.699219 154.945312 C 213.753906 154.792969 213.804688 154.640625 213.855469 154.484375 C 214.054688 153.867188 214.242188 153.242188 214.375 152.601562 C 214.441406 152.285156 214.496094 151.964844 214.53125 151.640625 C 214.550781 151.476562 214.566406 151.316406 214.578125 151.152344 C 214.585938 150.992188 214.589844 150.828125 214.589844 150.664062 C 214.59375 150.503906 214.589844 150.339844 214.582031 150.175781 L 214.570312 149.929688 C 214.566406 149.851562 214.5625 149.769531 214.554688 149.6875 C 214.53125 149.367188 214.503906 149.042969 214.484375 148.71875 C 214.460938 148.394531 214.449219 148.074219 214.460938 147.75 C 214.464844 147.429688 214.492188 147.105469 214.554688 146.792969 C 214.617188 146.480469 214.71875 146.167969 214.882812 145.898438 C 214.964844 145.761719 215.0625 145.636719 215.175781 145.523438 C 215.289062 145.414062 215.414062 145.320312 215.550781 145.242188 C 215.585938 145.21875 215.621094 145.203125 215.65625 145.183594 L 215.710938 145.160156 C 215.726562 145.152344 215.75 145.144531 215.765625 145.136719 C 215.839844 145.109375 215.914062 145.078125 215.992188 145.054688 C 216.140625 145.007812 216.300781 144.976562 216.457031 144.957031 C 216.773438 144.914062 217.097656 144.929688 217.414062 144.980469 C 217.730469 145.03125 218.039062 145.121094 218.339844 145.234375 C 218.644531 145.347656 218.933594 145.488281 219.214844 145.640625 C 219.5 145.796875 219.769531 145.96875 220.035156 146.15625 C 220.296875 146.34375 220.554688 146.542969 220.800781 146.75 C 221.046875 146.960938 221.28125 147.179688 221.503906 147.414062 C 221.558594 147.472656 221.613281 147.53125 221.667969 147.589844 C 221.695312 147.621094 221.722656 147.652344 221.75 147.679688 L 221.789062 147.726562 L 221.832031 147.773438 C 221.9375 147.890625 222.042969 148.015625 222.144531 148.140625 L 222.21875 148.234375 L 222.292969 148.332031 C 222.339844 148.394531 222.390625 148.460938 222.441406 148.523438 L 222.511719 148.621094 L 222.582031 148.722656 C 222.628906 148.785156 222.675781 148.851562 222.722656 148.921875 C 222.90625 149.1875 223.082031 149.457031 223.253906 149.730469 C 223.597656 150.28125 223.921875 150.839844 224.234375 151.410156 C 224.539062 151.980469 224.835938 152.554688 225.117188 153.140625 C 225.257812 153.433594 225.394531 153.726562 225.53125 154.019531 C 225.664062 154.3125 225.796875 154.609375 225.921875 154.910156 C 226.433594 156.097656 226.894531 157.3125 227.289062 158.546875 C 227.484375 159.164062 227.667969 159.785156 227.832031 160.414062 C 227.910156 160.726562 227.984375 161.039062 228.058594 161.355469 C 228.128906 161.671875 228.195312 161.988281 228.253906 162.304688 C 228.3125 162.625 228.371094 162.945312 228.417969 163.265625 C 228.464844 163.582031 228.507812 163.90625 228.542969 164.226562 C 228.574219 164.550781 228.601562 164.871094 228.621094 165.195312 C 228.640625 165.515625 228.65625 165.84375 228.664062 166.164062 C 228.699219 167.460938 228.648438 168.757812 228.523438 170.046875 C 228.402344 171.335938 228.210938 172.617188 227.972656 173.894531 C 227.953125 173.972656 227.9375 174.050781 227.925781 174.128906 L 227.902344 174.25 L 227.894531 174.28125 C 227.890625 174.289062 227.890625 174.300781 227.890625 174.3125 C 227.886719 174.324219 227.886719 174.339844 227.886719 174.351562 C 227.890625 174.367188 227.890625 174.386719 227.902344 174.402344 C 227.914062 174.421875 227.9375 174.441406 227.957031 174.445312 C 227.976562 174.449219 227.992188 174.445312 228.007812 174.445312 C 228.035156 174.441406 228.054688 174.433594 228.078125 174.421875 C 228.117188 174.402344 228.152344 174.378906 228.1875 174.355469 C 228.257812 174.308594 228.324219 174.257812 228.382812 174.203125 C 228.511719 174.097656 228.628906 173.988281 228.746094 173.875 C 228.863281 173.761719 228.980469 173.644531 229.089844 173.527344 C 229.316406 173.292969 229.535156 173.050781 229.75 172.808594 C 229.964844 172.566406 230.175781 172.320312 230.382812 172.066406 C 230.796875 171.570312 231.203125 171.058594 231.59375 170.542969 C 231.988281 170.027344 232.371094 169.5 232.742188 168.972656 C 233.488281 167.90625 234.195312 166.816406 234.855469 165.699219 C 235.519531 164.582031 236.136719 163.4375 236.691406 162.261719 C 237.25 161.089844 237.746094 159.886719 238.15625 158.652344 C 238.363281 158.039062 238.546875 157.414062 238.703125 156.785156 C 238.859375 156.152344 238.988281 155.511719 239.082031 154.871094 C 239.175781 154.226562 239.234375 153.578125 239.246094 152.929688 C 239.253906 152.601562 239.25 152.277344 239.234375 151.953125 C 239.226562 151.789062 239.21875 151.628906 239.203125 151.464844 C 239.1875 151.300781 239.171875 151.140625 239.152344 150.980469 C 239.105469 150.65625 239.046875 150.339844 238.976562 150.019531 C 238.90625 149.703125 238.832031 149.386719 238.746094 149.074219 C 238.574219 148.445312 238.367188 147.828125 238.121094 147.222656 C 237.875 146.625 237.589844 146.035156 237.238281 145.488281 C 237.0625 145.210938 236.871094 144.945312 236.660156 144.699219 C 236.445312 144.449219 236.214844 144.21875 235.957031 144.015625 C 235.699219 143.8125 235.417969 143.636719 235.117188 143.511719 C 235.039062 143.484375 234.960938 143.453125 234.886719 143.425781 C 234.863281 143.421875 234.84375 143.414062 234.828125 143.410156 C 234.804688 143.402344 234.785156 143.398438 234.765625 143.390625 L 234.734375 143.382812 L 234.707031 143.378906 C 234.695312 143.375 234.6875 143.371094 234.675781 143.371094 L 234.644531 143.367188 C 234.558594 143.351562 234.476562 143.347656 234.394531 143.355469 C 234.3125 143.359375 234.226562 143.375 234.148438 143.402344 C 234.066406 143.425781 233.988281 143.460938 233.917969 143.503906 C 233.84375 143.546875 233.777344 143.59375 233.714844 143.648438 C 233.589844 143.757812 233.480469 143.882812 233.386719 144.015625 C 233.289062 144.148438 233.203125 144.292969 233.128906 144.433594 C 233.050781 144.578125 232.984375 144.726562 232.917969 144.878906 C 232.859375 145.03125 232.800781 145.183594 232.746094 145.335938 C 232.71875 145.410156 232.695312 145.488281 232.671875 145.566406 L 232.632812 145.683594 L 232.625 145.710938 C 232.621094 145.722656 232.621094 145.734375 232.617188 145.742188 L 232.601562 145.804688 C 232.523438 146.117188 232.4375 146.425781 232.332031 146.730469 C 232.222656 147.035156 232.085938 147.328125 231.910156 147.597656 C 231.816406 147.730469 231.71875 147.855469 231.605469 147.972656 C 231.496094 148.085938 231.371094 148.191406 231.242188 148.28125 C 231.109375 148.371094 230.96875 148.453125 230.820312 148.515625 L 230.710938 148.5625 L 230.597656 148.609375 L 230.484375 148.652344 L 230.371094 148.703125 C 230.335938 148.71875 230.296875 148.734375 230.257812 148.75 C 230.222656 148.769531 230.1875 148.785156 230.152344 148.804688 L 230.039062 148.855469 L 229.929688 148.910156 C 229.789062 148.988281 229.644531 149.066406 229.507812 149.15625 C 229.230469 149.328125 228.96875 149.519531 228.722656 149.738281 C 228.480469 149.953125 228.253906 150.191406 228.054688 150.445312 C 227.648438 150.960938 227.339844 151.546875 227.144531 152.167969 C 227.09375 152.324219 227.054688 152.484375 227.023438 152.640625 C 227.003906 152.71875 226.988281 152.800781 226.976562 152.882812 C 226.964844 152.964844 226.953125 153.042969 226.945312 153.125 C 226.929688 153.285156 226.917969 153.449219 226.925781 153.613281 C 226.929688 153.777344 226.945312 153.941406 226.984375 154.101562 Z M 227.035156 154.089844 "/></g></g></g><path style=" stroke:none;fill-rule:nonzero;fill:#ffffff;fill-opacity:1;" d="M 131.796875 177.214844 C 130.570312 177.25 129.410156 177.621094 128.316406 178.328125 C 127.21875 179.03125 126.269531 179.964844 125.457031 181.117188 C 124.640625 182.265625 124.015625 183.542969 123.570312 184.949219 C 123.125 186.355469 122.925781 187.773438 122.972656 189.203125 C 124.425781 189.953125 125.554688 190.726562 126.371094 191.511719 C 127.183594 192.304688 127.742188 193.066406 128.046875 193.796875 C 128.351562 194.523438 128.472656 195.1875 128.421875 195.777344 C 128.367188 196.363281 128.191406 196.84375 127.894531 197.21875 C 127.605469 197.59375 127.261719 197.8125 126.863281 197.863281 C 126.183594 197.957031 125.507812 197.722656 124.835938 197.160156 C 124.171875 196.597656 123.605469 195.683594 123.136719 194.40625 C 122.671875 193.136719 122.425781 191.484375 122.386719 189.449219 C 120.996094 188.898438 119.765625 188.652344 118.695312 188.710938 C 117.632812 188.777344 116.753906 189.050781 116.070312 189.542969 C 115.382812 190.035156 114.886719 190.65625 114.582031 191.40625 C 114.277344 192.15625 114.1875 192.953125 114.324219 193.796875 C 114.457031 194.636719 114.820312 195.425781 115.414062 196.175781 L 114.710938 196.175781 C 114.152344 195.285156 113.855469 194.382812 113.808594 193.457031 C 113.765625 192.539062 113.941406 191.695312 114.324219 190.925781 C 114.703125 190.152344 115.277344 189.527344 116.046875 189.039062 C 116.820312 188.558594 117.746094 188.300781 118.824219 188.265625 C 119.90625 188.230469 121.113281 188.496094 122.445312 189.0625 C 122.445312 187.457031 122.695312 185.921875 123.195312 184.46875 C 123.691406 183.011719 124.382812 181.714844 125.269531 180.578125 C 126.152344 179.449219 127.160156 178.546875 128.292969 177.871094 C 129.433594 177.203125 130.640625 176.847656 131.914062 176.804688 C 132.855469 176.777344 133.652344 177.011719 134.304688 177.507812 C 134.960938 178.011719 135.492188 178.699219 135.898438 179.570312 C 136.3125 180.449219 136.617188 181.457031 136.8125 182.59375 C 137.015625 183.730469 137.109375 184.925781 137.09375 186.191406 C 137.085938 187.453125 137.003906 188.699219 136.847656 189.929688 C 137.238281 187.960938 137.753906 186.132812 138.394531 184.445312 C 139.042969 182.753906 139.835938 181.300781 140.773438 180.085938 C 141.710938 178.867188 142.804688 177.953125 144.066406 177.332031 C 145.332031 176.71875 146.777344 176.5 148.402344 176.675781 C 149.4375 176.789062 150.246094 177.167969 150.828125 177.824219 C 151.414062 178.476562 151.707031 179.3125 151.707031 180.34375 C 151.707031 181.371094 151.371094 182.523438 150.699219 183.800781 C 150.023438 185.078125 148.96875 186.414062 147.535156 187.820312 C 146.097656 189.226562 144.207031 190.621094 141.863281 191.992188 C 143.625 190.980469 145.195312 190.386719 146.574219 190.222656 C 147.957031 190.058594 149.128906 190.234375 150.089844 190.738281 C 151.054688 191.242188 151.824219 192.003906 152.386719 193.035156 C 152.949219 194.0625 153.304688 195.269531 153.453125 196.65625 C 153.609375 198.039062 153.5625 199.527344 153.3125 201.109375 C 153.78125 201.109375 154.382812 201.070312 155.128906 200.980469 C 155.871094 200.886719 156.679688 200.6875 157.566406 200.371094 C 158.449219 200.0625 159.339844 199.574219 160.25 198.90625 C 161.15625 198.238281 162.011719 197.320312 162.816406 196.152344 C 162.863281 196.101562 162.949219 196.070312 163.074219 196.070312 C 163.195312 196.070312 163.261719 196.105469 163.261719 196.175781 C 162.535156 197.34375 161.730469 198.273438 160.847656 198.964844 C 159.972656 199.664062 159.082031 200.195312 158.175781 200.558594 C 157.277344 200.929688 156.398438 201.175781 155.550781 201.296875 C 154.707031 201.425781 153.945312 201.496094 153.265625 201.519531 C 152.777344 203.769531 152.074219 205.621094 151.15625 207.074219 C 150.234375 208.535156 149.214844 209.640625 148.097656 210.390625 C 146.976562 211.140625 145.851562 211.589844 144.710938 211.738281 C 143.578125 211.894531 142.546875 211.796875 141.617188 211.445312 C 140.867188 211.046875 140.320312 210.511719 139.988281 209.839844 C 139.660156 209.167969 139.535156 208.4375 139.625 207.648438 C 139.71875 206.867188 140.039062 206.082031 140.585938 205.292969 C 141.128906 204.511719 141.910156 203.796875 142.917969 203.148438 C 143.929688 202.507812 145.183594 202.007812 146.679688 201.636719 C 148.171875 201.273438 149.917969 201.117188 151.917969 201.167969 C 152.132812 200.089844 152.226562 199.011719 152.199219 197.933594 C 152.175781 196.855469 152.015625 195.847656 151.71875 194.898438 C 151.417969 193.949219 150.984375 193.128906 150.417969 192.449219 C 149.847656 191.769531 149.132812 191.296875 148.273438 191.019531 C 147.410156 190.738281 146.398438 190.738281 145.226562 191.007812 C 144.054688 191.277344 142.722656 191.886719 141.242188 192.847656 C 141.117188 192.917969 141 192.917969 140.890625 192.847656 C 140.789062 192.777344 140.738281 192.671875 140.738281 192.53125 C 140.738281 192.386719 140.824219 192.261719 141.007812 192.15625 C 143.421875 190.152344 145.347656 188.367188 146.796875 186.800781 C 148.242188 185.242188 149.296875 183.878906 149.960938 182.710938 C 150.621094 181.550781 150.957031 180.578125 150.957031 179.792969 C 150.957031 179.007812 150.703125 178.394531 150.207031 177.953125 C 149.707031 177.519531 149.027344 177.238281 148.167969 177.109375 C 145.308594 176.875 142.941406 178.023438 141.066406 180.554688 C 139.195312 183.085938 137.808594 186.8125 136.894531 191.722656 C 136.238281 195.320312 135.527344 198.367188 134.761719 200.875 C 134.003906 203.375 133.203125 205.40625 132.359375 206.96875 C 131.519531 208.539062 130.636719 209.710938 129.699219 210.484375 C 128.761719 211.265625 127.769531 211.726562 126.734375 211.867188 C 125.554688 212.03125 124.484375 211.9375 123.523438 211.585938 C 122.566406 211.234375 121.753906 210.714844 121.074219 210.027344 C 120.394531 209.339844 119.882812 208.542969 119.550781 207.636719 C 119.222656 206.738281 119.085938 205.808594 119.152344 204.847656 C 119.214844 203.894531 119.496094 202.976562 120.007812 202.09375 C 120.523438 201.214844 121.285156 200.441406 122.292969 199.773438 C 123.300781 199.113281 124.59375 198.648438 126.171875 198.378906 C 126.503906 198.398438 126.6875 198.484375 126.710938 198.636719 C 126.738281 198.789062 126.6875 198.90625 126.546875 199 C 126.40625 199.089844 126.246094 199.042969 126.066406 198.859375 C 124.613281 199.152344 123.421875 199.609375 122.492188 200.230469 C 121.558594 200.859375 120.863281 201.589844 120.394531 202.421875 C 119.929688 203.25 119.679688 204.109375 119.632812 205 C 119.589844 205.898438 119.730469 206.757812 120.042969 207.578125 C 120.351562 208.398438 120.828125 209.125 121.460938 209.757812 C 122.09375 210.398438 122.855469 210.859375 123.746094 211.140625 C 124.640625 211.429688 125.636719 211.484375 126.734375 211.304688 C 127.371094 211.195312 128.027344 210.722656 128.703125 209.886719 C 129.375 209.058594 130.03125 207.964844 130.683594 206.605469 C 131.339844 205.253906 131.953125 203.730469 132.523438 202.035156 C 133.101562 200.335938 133.613281 198.550781 134.058594 196.679688 C 134.503906 194.804688 134.859375 192.941406 135.125 191.089844 C 135.398438 189.238281 135.550781 187.488281 135.59375 185.828125 C 135.640625 184.164062 135.539062 182.6875 135.300781 181.386719 C 135.058594 180.09375 134.648438 179.074219 134.082031 178.328125 C 133.511719 177.589844 132.75 177.214844 131.796875 177.214844 Z M 151.8125 201.566406 C 149.84375 201.515625 148.132812 201.667969 146.679688 202.023438 C 145.230469 202.386719 144.042969 202.871094 143.105469 203.488281 C 142.167969 204.105469 141.445312 204.789062 140.949219 205.539062 C 140.449219 206.289062 140.164062 207.023438 140.09375 207.742188 C 140.023438 208.46875 140.132812 209.128906 140.433594 209.722656 C 140.738281 210.316406 141.207031 210.753906 141.839844 211.035156 C 142.992188 211.449219 144.105469 211.460938 145.179688 211.070312 C 146.257812 210.6875 147.242188 210.015625 148.132812 209.054688 C 149.027344 208.101562 149.796875 206.972656 150.429688 205.667969 C 151.0625 204.363281 151.523438 202.996094 151.8125 201.566406 Z M 127.027344 197.488281 C 127.277344 197.4375 127.496094 197.242188 127.683594 196.902344 C 127.871094 196.5625 127.964844 196.128906 127.964844 195.601562 C 127.964844 195.074219 127.804688 194.484375 127.496094 193.832031 C 127.183594 193.175781 126.65625 192.496094 125.925781 191.78125 C 125.191406 191.066406 124.183594 190.359375 122.902344 189.660156 C 122.988281 191.382812 123.175781 192.773438 123.476562 193.832031 C 123.773438 194.898438 124.125 195.707031 124.53125 196.269531 C 124.945312 196.832031 125.367188 197.203125 125.808594 197.371094 C 126.246094 197.546875 126.652344 197.582031 127.027344 197.488281 Z M 127.027344 197.488281 "/><path style=" stroke:none;fill-rule:nonzero;fill:#ffffff;fill-opacity:1;" d="M 166.019531 203.148438 C 166.464844 203.023438 166.9375 202.753906 167.4375 202.339844 C 167.9375 201.917969 168.441406 201.425781 168.949219 200.851562 C 169.464844 200.277344 169.949219 199.679688 170.402344 199.070312 C 170.855469 198.460938 171.269531 197.898438 171.644531 197.371094 C 172.027344 196.84375 172.332031 196.433594 172.558594 196.152344 C 172.613281 196.101562 172.703125 196.070312 172.828125 196.070312 C 172.953125 196.070312 173.015625 196.105469 173.015625 196.175781 C 172.640625 196.664062 172.183594 197.277344 171.644531 198.015625 C 171.113281 198.761719 170.527344 199.523438 169.886719 200.300781 C 169.253906 201.074219 168.609375 201.765625 167.953125 202.363281 C 167.304688 202.957031 166.675781 203.34375 166.066406 203.523438 C 165.355469 203.578125 164.742188 203.417969 164.226562 203.042969 C 163.71875 202.667969 163.316406 202.148438 163.019531 201.472656 C 162.730469 200.804688 162.550781 200.054688 162.46875 199.222656 C 162.386719 198.390625 162.417969 197.535156 162.5625 196.667969 C 162.703125 195.800781 162.949219 194.980469 163.300781 194.207031 C 163.660156 193.429688 164.136719 192.773438 164.730469 192.238281 C 165.285156 191.71875 165.816406 191.40625 166.324219 191.3125 C 166.832031 191.214844 167.265625 191.253906 167.625 191.441406 C 167.984375 191.628906 168.222656 191.921875 168.339844 192.320312 C 168.457031 192.714844 168.40625 193.148438 168.1875 193.621094 C 167.976562 194.089844 167.550781 194.566406 166.910156 195.039062 C 166.277344 195.507812 165.378906 195.917969 164.214844 196.257812 C 163.917969 197.800781 163.816406 199.113281 163.910156 200.195312 C 164.011719 201.273438 164.253906 202.070312 164.636719 202.585938 C 165.019531 203.109375 165.480469 203.296875 166.019531 203.148438 Z M 164.355469 195.800781 C 165.496094 195.445312 166.347656 195.039062 166.910156 194.59375 C 167.480469 194.148438 167.832031 193.714844 167.964844 193.28125 C 168.097656 192.855469 168.089844 192.492188 167.941406 192.191406 C 167.800781 191.898438 167.597656 191.722656 167.332031 191.675781 C 166.957031 191.640625 166.609375 191.757812 166.289062 192.039062 C 165.96875 192.316406 165.6875 192.671875 165.445312 193.105469 C 165.203125 193.546875 164.988281 194.007812 164.800781 194.488281 C 164.613281 194.976562 164.464844 195.414062 164.355469 195.800781 Z M 164.355469 195.800781 "/><path style=" stroke:none;fill-rule:nonzero;fill:#ffffff;fill-opacity:1;" d="M 176.183594 205.914062 C 175.488281 206.429688 174.871094 206.6875 174.332031 206.6875 C 173.902344 206.6875 173.550781 206.539062 173.277344 206.242188 C 173.011719 205.953125 172.800781 205.574219 172.644531 205.105469 C 172.496094 204.644531 172.386719 204.152344 172.316406 203.628906 C 172.246094 203.113281 172.207031 202.628906 172.1875 202.175781 C 172.175781 201.71875 172.164062 201.355469 172.164062 201.085938 C 172.140625 199.925781 172.175781 198.671875 172.269531 197.335938 C 172.359375 195.996094 172.507812 194.640625 172.726562 193.28125 C 172.992188 191.605469 173.339844 189.976562 173.769531 188.394531 C 174.199219 186.8125 174.703125 185.382812 175.28125 184.117188 C 175.867188 182.847656 176.515625 181.839844 177.226562 181.09375 C 177.945312 180.355469 178.714844 179.980469 179.535156 179.980469 C 180.074219 179.980469 180.519531 180.191406 180.871094 180.601562 C 181.230469 181.011719 181.421875 181.621094 181.445312 182.429688 C 181.476562 183.246094 181.277344 184.257812 180.847656 185.476562 C 180.417969 186.691406 179.691406 188.089844 178.667969 189.683594 C 177.652344 191.277344 176.269531 193.058594 174.519531 195.027344 C 174.394531 195.585938 174.238281 196.382812 174.050781 197.417969 C 173.863281 198.449219 173.714844 199.523438 173.605469 200.628906 C 173.574219 200.933594 173.535156 201.363281 173.488281 201.90625 C 173.441406 202.457031 173.425781 203.023438 173.441406 203.617188 C 173.464844 204.21875 173.542969 204.746094 173.675781 205.199219 C 173.808594 205.660156 174.035156 205.964844 174.355469 206.113281 C 174.675781 206.269531 175.125 206.160156 175.703125 205.785156 C 176.164062 205.480469 176.671875 205 177.226562 204.34375 C 177.78125 203.695312 178.347656 202.96875 178.925781 202.164062 C 179.511719 201.363281 180.070312 200.554688 180.601562 199.738281 C 181.140625 198.917969 181.621094 198.191406 182.042969 197.546875 C 182.464844 196.902344 182.792969 196.433594 183.027344 196.152344 C 183.074219 196.101562 183.160156 196.070312 183.285156 196.070312 C 183.410156 196.070312 183.472656 196.105469 183.472656 196.175781 C 183.175781 196.570312 182.8125 197.089844 182.382812 197.746094 C 181.953125 198.402344 181.480469 199.128906 180.964844 199.914062 C 180.457031 200.699219 179.925781 201.484375 179.371094 202.269531 C 178.816406 203.050781 178.265625 203.761719 177.71875 204.402344 C 177.179688 205.050781 176.667969 205.554688 176.183594 205.914062 Z M 174.601562 194.324219 C 176.210938 192.414062 177.484375 190.699219 178.421875 189.179688 C 179.359375 187.65625 180.027344 186.339844 180.425781 185.21875 C 180.832031 184.105469 181.027344 183.179688 181.011719 182.441406 C 180.996094 181.710938 180.839844 181.175781 180.542969 180.835938 C 180.246094 180.496094 179.867188 180.34375 179.40625 180.378906 C 179.007812 180.4375 178.609375 180.761719 178.210938 181.351562 C 177.820312 181.9375 177.4375 182.707031 177.0625 183.648438 C 176.6875 184.597656 176.339844 185.664062 176.019531 186.859375 C 175.699219 188.050781 175.417969 189.285156 175.175781 190.574219 C 174.933594 191.859375 174.742188 193.105469 174.601562 194.324219 Z M 174.601562 194.324219 "/><path style=" stroke:none;fill-rule:nonzero;fill:#ffffff;fill-opacity:1;" d="M 186.160156 204.085938 C 186.621094 203.78125 187.109375 203.359375 187.625 202.820312 C 188.144531 202.292969 188.667969 201.707031 189.183594 201.0625 C 189.703125 200.417969 190.207031 199.773438 190.695312 199.140625 C 191.179688 198.507812 191.609375 197.921875 191.984375 197.382812 C 192.359375 196.84375 192.664062 196.433594 192.898438 196.152344 C 192.945312 196.101562 193.03125 196.070312 193.15625 196.070312 C 193.277344 196.070312 193.34375 196.105469 193.34375 196.175781 C 192.96875 196.664062 192.527344 197.265625 192.019531 197.992188 C 191.507812 198.714844 190.957031 199.46875 190.355469 200.253906 C 189.761719 201.046875 189.140625 201.789062 188.503906 202.492188 C 187.871094 203.203125 187.25 203.78125 186.640625 204.226562 C 185.800781 204.867188 184.988281 205.078125 184.191406 204.859375 C 183.394531 204.648438 182.863281 203.980469 182.597656 202.855469 C 182.472656 202.375 182.402344 201.777344 182.386719 201.074219 C 182.363281 200.367188 182.386719 199.640625 182.457031 198.894531 C 182.527344 198.15625 182.613281 197.464844 182.714844 196.832031 C 182.808594 196.199219 182.910156 195.714844 183.019531 195.367188 C 183.210938 194.894531 183.476562 194.546875 183.804688 194.335938 C 184.136719 194.121094 184.429688 194.042969 184.683594 194.101562 C 184.933594 194.167969 185.023438 194.382812 184.953125 194.757812 C 184.839844 195.4375 184.71875 196.1875 184.578125 197.007812 C 184.4375 197.828125 184.3125 198.65625 184.203125 199.480469 C 184.089844 200.300781 184.03125 201.074219 184.015625 201.789062 C 183.996094 202.5 184.042969 203.089844 184.15625 203.558594 C 184.273438 204.035156 184.488281 204.335938 184.8125 204.460938 C 185.140625 204.585938 185.589844 204.460938 186.160156 204.085938 Z M 184.0625 191.40625 C 184.207031 190.996094 184.40625 190.679688 184.648438 190.46875 C 184.886719 190.253906 185.15625 190.199219 185.457031 190.304688 C 185.285156 190.375 185.140625 190.535156 185.023438 190.773438 C 184.90625 191.019531 184.8125 191.265625 184.742188 191.511719 C 184.699219 191.671875 184.617188 191.769531 184.484375 191.804688 C 184.347656 191.847656 184.230469 191.828125 184.132812 191.757812 C 184.039062 191.683594 184.015625 191.566406 184.0625 191.40625 Z M 184.0625 191.40625 "/><path style=" stroke:none;fill-rule:nonzero;fill:#ffffff;fill-opacity:1;" d="M 195.148438 209.242188 C 194.414062 209.398438 193.78125 209.320312 193.25 209.007812 C 192.730469 208.695312 192.355469 208.242188 192.125 207.648438 C 191.898438 207.0625 191.867188 206.414062 192.03125 205.703125 C 192.195312 205 192.601562 204.328125 193.238281 203.6875 C 193.878906 203.046875 194.800781 202.519531 196.003906 202.105469 C 195.808594 201.730469 195.542969 201.269531 195.207031 200.710938 C 194.878906 200.160156 194.539062 199.5625 194.1875 198.929688 C 193.84375 198.292969 193.527344 197.6875 193.238281 197.113281 C 192.699219 196.03125 192.5 195.058594 192.640625 194.195312 C 192.777344 193.339844 193.152344 192.636719 193.777344 192.097656 C 194.402344 191.558594 195.160156 191.25 196.050781 191.160156 C 196.769531 191.078125 197.363281 191.230469 197.832031 191.617188 C 198.308594 192.011719 198.589844 192.527344 198.675781 193.164062 C 198.769531 193.796875 198.585938 194.453125 198.125 195.132812 L 197.609375 195.132812 C 197.984375 194.652344 198.1875 194.179688 198.21875 193.714844 C 198.257812 193.246094 198.179688 192.835938 197.984375 192.472656 C 197.789062 192.117188 197.519531 191.851562 197.175781 191.675781 C 196.839844 191.5 196.476562 191.460938 196.085938 191.558594 C 195.507812 191.710938 195.015625 191.992188 194.609375 192.402344 C 194.210938 192.8125 193.972656 193.324219 193.894531 193.9375 C 193.816406 194.558594 193.980469 195.25 194.386719 196.011719 C 194.855469 196.898438 195.324219 197.730469 195.792969 198.507812 C 196.269531 199.28125 196.785156 200.230469 197.339844 201.355469 C 198.113281 201.050781 198.921875 200.664062 199.765625 200.195312 C 200.617188 199.722656 201.441406 199.148438 202.238281 198.472656 C 203.035156 197.804688 203.726562 197.039062 204.3125 196.175781 C 204.476562 196.035156 204.621094 195.988281 204.746094 196.023438 C 204.871094 196.058594 204.898438 196.117188 204.828125 196.199219 C 204.054688 197.277344 203.226562 198.179688 202.34375 198.894531 C 201.460938 199.609375 200.597656 200.183594 199.753906 200.617188 C 198.917969 201.058594 198.167969 201.410156 197.503906 201.671875 C 197.839844 202.445312 198.066406 203.234375 198.183594 204.039062 C 198.300781 204.84375 198.28125 205.605469 198.125 206.324219 C 197.976562 207.050781 197.660156 207.667969 197.175781 208.175781 C 196.699219 208.691406 196.023438 209.046875 195.148438 209.242188 Z M 195.335938 208.808594 C 195.78125 208.652344 196.136719 208.253906 196.402344 207.613281 C 196.667969 206.980469 196.792969 206.203125 196.777344 205.28125 C 196.761719 204.359375 196.546875 203.40625 196.132812 202.421875 C 194.992188 202.835938 194.125 203.355469 193.53125 203.980469 C 192.945312 204.605469 192.582031 205.242188 192.441406 205.890625 C 192.296875 206.546875 192.332031 207.132812 192.558594 207.648438 C 192.777344 208.171875 193.128906 208.554688 193.613281 208.796875 C 194.097656 209.039062 194.671875 209.042969 195.335938 208.808594 Z M 195.335938 208.808594 "/><path style=" stroke:none;fill-rule:nonzero;fill:#ffffff;fill-opacity:1;" d="M 206.574219 209.242188 C 205.839844 209.398438 205.207031 209.320312 204.675781 209.007812 C 204.152344 208.695312 203.777344 208.242188 203.550781 207.648438 C 203.324219 207.0625 203.292969 206.414062 203.457031 205.703125 C 203.621094 205 204.023438 204.328125 204.664062 203.6875 C 205.300781 203.046875 206.226562 202.519531 207.429688 202.105469 C 207.234375 201.730469 206.964844 201.269531 206.632812 200.710938 C 206.304688 200.160156 205.964844 199.5625 205.613281 198.929688 C 205.265625 198.292969 204.949219 197.6875 204.664062 197.113281 C 204.125 196.03125 203.925781 195.058594 204.066406 194.195312 C 204.199219 193.339844 204.574219 192.636719 205.203125 192.097656 C 205.828125 191.558594 206.585938 191.25 207.476562 191.160156 C 208.195312 191.078125 208.789062 191.230469 209.257812 191.617188 C 209.730469 192.011719 210.011719 192.527344 210.101562 193.164062 C 210.195312 193.796875 210.011719 194.453125 209.550781 195.132812 L 209.035156 195.132812 C 209.410156 194.652344 209.613281 194.179688 209.644531 193.714844 C 209.683594 193.246094 209.601562 192.835938 209.410156 192.472656 C 209.214844 192.117188 208.945312 191.851562 208.601562 191.675781 C 208.265625 191.5 207.902344 191.460938 207.511719 191.558594 C 206.929688 191.710938 206.4375 191.992188 206.035156 192.402344 C 205.636719 192.8125 205.394531 193.324219 205.320312 193.9375 C 205.242188 194.558594 205.40625 195.25 205.8125 196.011719 C 206.28125 196.898438 206.75 197.730469 207.21875 198.507812 C 207.691406 199.28125 208.207031 200.230469 208.765625 201.355469 C 209.539062 201.050781 210.347656 200.664062 211.191406 200.195312 C 212.039062 199.722656 212.867188 199.148438 213.664062 198.472656 C 214.460938 197.804688 215.152344 197.039062 215.738281 196.175781 C 215.902344 196.035156 216.046875 195.988281 216.171875 196.023438 C 216.292969 196.058594 216.324219 196.117188 216.253906 196.199219 C 215.480469 197.277344 214.652344 198.179688 213.769531 198.894531 C 212.882812 199.609375 212.023438 200.183594 211.179688 200.617188 C 210.339844 201.058594 209.589844 201.410156 208.929688 201.671875 C 209.261719 202.445312 209.492188 203.234375 209.609375 204.039062 C 209.726562 204.84375 209.707031 205.605469 209.550781 206.324219 C 209.402344 207.050781 209.085938 207.667969 208.601562 208.175781 C 208.125 208.691406 207.445312 209.046875 206.574219 209.242188 Z M 206.761719 208.808594 C 207.207031 208.652344 207.5625 208.253906 207.828125 207.613281 C 208.089844 206.980469 208.21875 206.203125 208.203125 205.28125 C 208.183594 204.359375 207.972656 203.40625 207.558594 202.421875 C 206.414062 202.835938 205.546875 203.355469 204.957031 203.980469 C 204.371094 204.605469 204.007812 205.242188 203.867188 205.890625 C 203.71875 206.546875 203.757812 207.132812 203.984375 207.648438 C 204.203125 208.171875 204.550781 208.554688 205.039062 208.796875 C 205.523438 209.039062 206.097656 209.042969 206.761719 208.808594 Z M 206.761719 208.808594 "/><path style=" stroke:none;fill-rule:nonzero;fill:#ffffff;fill-opacity:1;" d="M 218.957031 204.085938 C 219.417969 203.78125 219.90625 203.359375 220.421875 202.820312 C 220.945312 202.292969 221.464844 201.707031 221.980469 201.0625 C 222.503906 200.417969 223.007812 199.773438 223.492188 199.140625 C 223.976562 198.507812 224.40625 197.921875 224.78125 197.382812 C 225.15625 196.84375 225.460938 196.433594 225.695312 196.152344 C 225.742188 196.101562 225.828125 196.070312 225.953125 196.070312 C 226.078125 196.070312 226.140625 196.105469 226.140625 196.175781 C 225.765625 196.664062 225.324219 197.265625 224.816406 197.992188 C 224.308594 198.714844 223.753906 199.46875 223.152344 200.253906 C 222.558594 201.046875 221.941406 201.789062 221.300781 202.492188 C 220.667969 203.203125 220.046875 203.78125 219.4375 204.226562 C 218.601562 204.867188 217.785156 205.078125 216.988281 204.859375 C 216.191406 204.648438 215.664062 203.980469 215.394531 202.855469 C 215.273438 202.375 215.207031 201.742188 215.195312 200.96875 C 215.183594 200.191406 215.21875 199.386719 215.300781 198.554688 C 215.382812 197.722656 215.476562 196.957031 215.582031 196.257812 C 215.6875 195.566406 215.789062 195.046875 215.898438 194.699219 C 216.09375 194.21875 216.359375 193.867188 216.695312 193.644531 C 217.039062 193.421875 217.339844 193.339844 217.597656 193.398438 C 217.863281 193.464844 217.957031 193.679688 217.878906 194.054688 C 217.777344 194.734375 217.648438 195.503906 217.492188 196.351562 C 217.34375 197.207031 217.210938 198.074219 217.09375 198.953125 C 216.976562 199.839844 216.902344 200.664062 216.871094 201.4375 C 216.847656 202.207031 216.890625 202.851562 217 203.382812 C 217.109375 203.921875 217.320312 204.265625 217.632812 204.414062 C 217.945312 204.570312 218.386719 204.460938 218.957031 204.085938 Z M 217.375 191.675781 C 217.140625 191.675781 216.976562 191.558594 216.882812 191.324219 C 216.796875 191.089844 216.78125 190.832031 216.835938 190.550781 C 216.890625 190.265625 217 190.011719 217.164062 189.789062 C 217.335938 189.566406 217.558594 189.46875 217.832031 189.496094 C 218.011719 189.554688 218.121094 189.695312 218.160156 189.917969 C 218.207031 190.140625 218.203125 190.386719 218.148438 190.667969 C 218.09375 190.945312 218 191.183594 217.867188 191.382812 C 217.734375 191.582031 217.570312 191.675781 217.375 191.675781 Z M 217.375 191.675781 "/><path style=" stroke:none;fill-rule:nonzero;fill:#ffffff;fill-opacity:1;" d="M 237.792969 202.855469 C 237.769531 203.621094 238.007812 204.140625 238.519531 204.414062 C 239.035156 204.695312 239.671875 204.585938 240.441406 204.085938 C 240.910156 203.78125 241.402344 203.359375 241.917969 202.820312 C 242.4375 202.292969 242.960938 201.707031 243.476562 201.0625 C 243.992188 200.417969 244.488281 199.773438 244.976562 199.140625 C 245.457031 198.507812 245.890625 197.921875 246.265625 197.382812 C 246.640625 196.84375 246.945312 196.433594 247.179688 196.152344 C 247.230469 196.101562 247.320312 196.070312 247.449219 196.070312 C 247.570312 196.070312 247.636719 196.105469 247.636719 196.175781 C 247.261719 196.664062 246.816406 197.265625 246.300781 197.992188 C 245.789062 198.714844 245.234375 199.46875 244.636719 200.253906 C 244.039062 201.046875 243.421875 201.789062 242.785156 202.492188 C 242.152344 203.203125 241.53125 203.78125 240.921875 204.226562 C 240.363281 204.65625 239.785156 204.894531 239.1875 204.941406 C 238.589844 204.996094 238.074219 204.851562 237.628906 204.507812 C 237.183594 204.171875 236.882812 203.628906 236.738281 202.878906 C 236.609375 202.128906 236.613281 201.308594 236.75 200.40625 C 236.890625 199.503906 237.089844 198.597656 237.359375 197.6875 C 237.621094 196.773438 237.886719 195.941406 238.15625 195.179688 C 238.425781 194.417969 238.636719 193.785156 238.777344 193.292969 C 238.921875 192.800781 238.933594 192.539062 238.8125 192.496094 C 238.414062 192.46875 237.992188 192.65625 237.546875 193.058594 C 237.101562 193.457031 236.644531 194.007812 236.1875 194.699219 C 235.730469 195.398438 235.285156 196.164062 234.851562 196.996094 C 234.410156 197.828125 233.984375 198.660156 233.574219 199.492188 C 233.164062 200.324219 232.78125 201.074219 232.425781 201.753906 C 232.171875 202.058594 231.898438 202.164062 231.59375 202.058594 C 231.289062 201.953125 231.113281 201.683594 231.078125 201.25 C 231.03125 200.730469 231.054688 200.097656 231.148438 199.351562 C 231.246094 198.613281 231.371094 197.839844 231.523438 197.03125 C 231.675781 196.230469 231.820312 195.480469 231.957031 194.78125 C 232.085938 194.089844 232.167969 193.515625 232.203125 193.070312 C 232.238281 192.621094 232.191406 192.390625 232.050781 192.390625 C 231.136719 192.378906 230.226562 193.328125 229.332031 195.25 C 228.441406 197.171875 227.375 200.183594 226.144531 204.273438 C 226.085938 204.507812 225.921875 204.703125 225.640625 204.859375 C 225.351562 205.023438 225.082031 205.085938 224.832031 205.046875 C 224.582031 205.015625 224.464844 204.820312 224.480469 204.460938 C 224.535156 203.75 224.613281 203.011719 224.714844 202.246094 C 224.808594 201.472656 224.933594 200.59375 225.089844 199.597656 C 225.238281 198.609375 225.421875 197.414062 225.640625 196.011719 C 225.667969 195.765625 225.785156 195.5625 225.992188 195.402344 C 226.203125 195.238281 226.425781 195.128906 226.671875 195.0625 C 226.910156 195.003906 227.117188 195.023438 227.28125 195.121094 C 227.449219 195.214844 227.527344 195.414062 227.515625 195.71875 C 227.351562 196.417969 227.214844 197.007812 227.117188 197.488281 C 227.023438 197.976562 226.941406 198.425781 226.871094 198.835938 C 226.800781 199.246094 226.730469 199.679688 226.660156 200.136719 C 226.589844 200.59375 226.496094 201.132812 226.390625 201.753906 C 227.082031 199.714844 227.703125 197.980469 228.253906 196.550781 C 228.796875 195.121094 229.367188 194.027344 229.964844 193.257812 C 230.5625 192.484375 231.265625 192.085938 232.074219 192.050781 C 232.753906 192.097656 233.210938 192.390625 233.457031 192.929688 C 233.695312 193.46875 233.773438 194.171875 233.691406 195.039062 C 233.609375 195.90625 233.445312 196.863281 233.1875 197.898438 C 232.929688 198.929688 232.648438 199.972656 232.34375 201.027344 C 232.578125 200.625 232.859375 200.074219 233.1875 199.375 C 233.515625 198.671875 233.882812 197.921875 234.300781 197.113281 C 234.710938 196.3125 235.15625 195.539062 235.625 194.792969 C 236.097656 194.054688 236.585938 193.433594 237.089844 192.941406 C 237.585938 192.449219 238.097656 192.179688 238.625 192.121094 C 238.816406 192.109375 239.058594 192.15625 239.339844 192.273438 C 239.625 192.390625 239.859375 192.636719 240.042969 193 C 240.21875 193.371094 240.230469 193.921875 240.066406 194.652344 C 239.882812 195.507812 239.613281 196.410156 239.257812 197.371094 C 238.90625 198.328125 238.578125 199.28125 238.273438 200.230469 C 237.96875 201.179688 237.804688 202.054688 237.792969 202.855469 Z M 237.792969 202.855469 "/><path style=" stroke:none;fill-rule:nonzero;fill:#ffffff;fill-opacity:1;" d="M 254.300781 204.085938 C 254.769531 203.78125 255.261719 203.363281 255.777344 202.832031 C 256.300781 202.3125 256.824219 201.730469 257.347656 201.085938 C 257.878906 200.449219 258.378906 199.808594 258.847656 199.164062 C 259.324219 198.519531 259.75 197.921875 260.125 197.382812 C 260.5 196.84375 260.804688 196.433594 261.039062 196.152344 C 261.09375 196.101562 261.183594 196.070312 261.308594 196.070312 C 261.433594 196.070312 261.496094 196.105469 261.496094 196.175781 C 261.121094 196.664062 260.675781 197.265625 260.160156 197.992188 C 259.652344 198.714844 259.097656 199.46875 258.496094 200.253906 C 257.902344 201.046875 257.285156 201.789062 256.644531 202.492188 C 256.011719 203.203125 255.394531 203.78125 254.792969 204.226562 C 254.089844 204.742188 253.496094 204.980469 253.011719 204.941406 C 252.535156 204.910156 252.152344 204.671875 251.863281 204.226562 C 251.574219 203.78125 251.371094 203.195312 251.253906 202.46875 C 251.144531 201.742188 251.109375 200.945312 251.148438 200.066406 C 251.195312 199.195312 251.3125 198.308594 251.5 197.417969 C 251.6875 196.523438 251.933594 195.679688 252.238281 194.886719 C 251.324219 196.644531 250.617188 197.953125 250.117188 198.800781 C 249.617188 199.644531 249.179688 200.113281 248.804688 200.195312 C 248.359375 200.289062 247.964844 200.171875 247.621094 199.84375 C 247.285156 199.511719 247.054688 199.019531 246.929688 198.367188 C 246.808594 197.710938 246.84375 196.949219 247.035156 196.070312 C 247.246094 195.144531 247.601562 194.40625 248.101562 193.855469 C 248.609375 193.3125 249.160156 192.917969 249.753906 192.671875 C 250.355469 192.433594 250.941406 192.308594 251.511719 192.296875 C 252.089844 192.292969 252.566406 192.367188 252.941406 192.53125 L 253.175781 192.050781 C 253.355469 191.652344 253.609375 191.414062 253.9375 191.324219 C 254.273438 191.230469 254.566406 191.242188 254.816406 191.359375 C 255.066406 191.476562 255.164062 191.648438 255.109375 191.863281 C 254.859375 192.285156 254.59375 192.859375 254.3125 193.585938 C 254.039062 194.3125 253.773438 195.128906 253.515625 196.023438 C 253.257812 196.914062 253.035156 197.824219 252.847656 198.742188 C 252.660156 199.667969 252.527344 200.523438 252.449219 201.320312 C 252.378906 202.113281 252.386719 202.78125 252.472656 203.335938 C 252.566406 203.890625 252.753906 204.246094 253.035156 204.402344 C 253.324219 204.566406 253.746094 204.460938 254.300781 204.085938 Z M 252.777344 192.90625 C 252.097656 192.636719 251.492188 192.648438 250.960938 192.941406 C 250.4375 193.242188 249.996094 193.699219 249.636719 194.3125 C 249.277344 194.933594 249.007812 195.601562 248.828125 196.328125 C 248.648438 197.050781 248.570312 197.71875 248.59375 198.332031 C 248.625 198.953125 248.757812 199.398438 248.992188 199.667969 C 249.132812 199.5625 249.347656 199.269531 249.636719 198.800781 C 249.925781 198.328125 250.246094 197.746094 250.597656 197.066406 C 250.957031 196.386719 251.324219 195.683594 251.699219 194.945312 C 252.074219 194.214844 252.433594 193.535156 252.777344 192.90625 Z M 252.777344 192.90625 "/><path style=" stroke:none;fill-rule:nonzero;fill:#ffffff;fill-opacity:1;" d="M 160.273438 221.203125 L 160.285156 220.980469 L 163.460938 220.980469 C 165.59375 220.980469 166.660156 221.8125 166.660156 223.476562 C 166.660156 224.121094 166.230469 224.824219 165.382812 225.585938 C 166.628906 225.890625 167.257812 226.792969 167.257812 228.28125 C 167.257812 229.449219 166.964844 230.25 166.378906 230.683594 C 165.792969 231.125 164.890625 231.339844 163.683594 231.339844 L 163.25 231.339844 L 160.273438 231.351562 L 160.285156 231.152344 L 161.058594 231.046875 C 161.15625 231.035156 161.214844 230.964844 161.234375 230.847656 L 161.234375 221.496094 C 161.214844 221.375 161.15625 221.304688 161.058594 221.285156 Z M 163.976562 225.667969 L 162.242188 225.667969 L 162.242188 231.117188 L 163.601562 231.117188 C 165.363281 231.117188 166.25 230.191406 166.25 228.339844 C 166.25 227.390625 166.054688 226.707031 165.675781 226.289062 C 165.300781 225.878906 164.730469 225.667969 163.976562 225.667969 Z M 164.046875 225.445312 C 164.410156 225.445312 164.726562 225.46875 164.996094 225.503906 C 165.429688 224.824219 165.652344 224.179688 165.652344 223.570312 C 165.652344 221.996094 164.890625 221.203125 163.378906 221.203125 L 162.242188 221.203125 L 162.242188 225.445312 Z M 164.046875 225.445312 "/><path style=" stroke:none;fill-rule:nonzero;fill:#ffffff;fill-opacity:1;" d="M 176.929688 220.980469 C 176.929688 220.992188 176.9375 221.0625 176.953125 221.203125 L 176.109375 221.273438 L 172.933594 227.847656 L 172.933594 231.058594 L 174.023438 231.117188 C 174.023438 231.128906 174.015625 231.199219 174 231.339844 L 171.046875 231.351562 C 171.046875 231.269531 171.050781 231.199219 171.058594 231.152344 L 171.832031 231.046875 C 171.925781 231.035156 171.984375 230.964844 172.007812 230.847656 L 172.007812 227.847656 L 168.679688 221.34375 C 168.640625 221.320312 168.601562 221.296875 168.5625 221.273438 L 167.941406 221.214844 C 167.925781 221.164062 167.917969 221.085938 167.917969 220.992188 L 170.90625 220.980469 C 170.90625 220.992188 170.914062 221.0625 170.929688 221.203125 L 169.710938 221.308594 L 172.78125 227.589844 L 175.546875 221.53125 C 175.546875 221.410156 175.5 221.34375 175.40625 221.332031 L 174.058594 221.214844 C 174.050781 221.164062 174.046875 221.085938 174.046875 220.992188 Z M 176.929688 220.980469 "/><path style=" stroke:none;fill-rule:nonzero;fill:#ffffff;fill-opacity:1;" d="M 182.328125 221.203125 L 182.339844 220.980469 L 185.515625 220.980469 C 187.648438 220.980469 188.714844 221.8125 188.714844 223.476562 C 188.714844 224.121094 188.285156 224.824219 187.4375 225.585938 C 188.683594 225.890625 189.3125 226.792969 189.3125 228.28125 C 189.3125 229.449219 189.019531 230.25 188.433594 230.683594 C 187.847656 231.125 186.945312 231.339844 185.738281 231.339844 L 185.304688 231.339844 L 182.328125 231.351562 L 182.339844 231.152344 L 183.113281 231.046875 C 183.210938 231.035156 183.269531 230.964844 183.289062 230.847656 L 183.289062 221.496094 C 183.269531 221.375 183.210938 221.304688 183.113281 221.285156 Z M 186.03125 225.667969 L 184.296875 225.667969 L 184.296875 231.117188 L 185.65625 231.117188 C 187.417969 231.117188 188.304688 230.191406 188.304688 228.339844 C 188.304688 227.390625 188.109375 226.707031 187.730469 226.289062 C 187.355469 225.878906 186.785156 225.667969 186.03125 225.667969 Z M 186.101562 225.445312 C 186.464844 225.445312 186.78125 225.46875 187.050781 225.503906 C 187.484375 224.824219 187.707031 224.179688 187.707031 223.570312 C 187.707031 221.996094 186.945312 221.203125 185.433594 221.203125 L 184.296875 221.203125 L 184.296875 225.445312 Z M 186.101562 225.445312 "/><path style=" stroke:none;fill-rule:nonzero;fill:#ffffff;fill-opacity:1;" d="M 190.359375 221.203125 L 190.371094 220.980469 L 196.710938 220.980469 L 196.699219 221.027344 L 196.886719 223.113281 L 196.59375 223.230469 L 196.359375 221.273438 L 192.328125 221.273438 L 192.328125 226.054688 L 195.867188 226.054688 C 195.914062 226.066406 195.957031 226.054688 195.996094 226.019531 C 196.035156 225.992188 196.054688 225.945312 196.054688 225.878906 L 196.113281 224.859375 L 196.359375 224.824219 L 196.359375 227.355469 C 196.34375 227.355469 196.269531 227.367188 196.136719 227.378906 L 196.078125 226.347656 L 192.328125 226.347656 L 192.328125 231.046875 L 196.757812 231.046875 L 197.039062 228.679688 L 197.320312 228.75 L 197.097656 231.339844 L 193.335938 231.339844 L 190.359375 231.351562 L 190.371094 231.152344 L 191.144531 231.046875 C 191.246094 231.035156 191.304688 230.964844 191.320312 230.847656 L 191.320312 221.484375 C 191.304688 221.367188 191.246094 221.304688 191.144531 221.285156 Z M 190.359375 221.203125 "/><path style=" stroke:none;fill-rule:nonzero;fill:#ffffff;fill-opacity:1;" d="M 201.398438 220.980469 C 201.398438 220.992188 201.398438 221.0625 201.410156 221.203125 L 200.390625 221.285156 L 200.390625 231.046875 L 204.480469 231.046875 L 204.773438 228.679688 L 205.054688 228.75 L 204.832031 231.339844 L 201.398438 231.339844 L 198.421875 231.351562 L 198.433594 231.152344 L 199.207031 231.046875 C 199.304688 231.035156 199.363281 230.964844 199.382812 230.847656 L 199.382812 221.484375 C 199.363281 221.367188 199.304688 221.304688 199.207031 221.285156 L 198.433594 221.214844 L 198.421875 220.992188 Z M 201.398438 220.980469 "/><path style=" stroke:none;fill-rule:nonzero;fill:#ffffff;fill-opacity:1;" d="M 205.550781 231.351562 L 205.5625 231.152344 L 206.335938 231.046875 C 206.40625 231.035156 206.464844 230.964844 206.511719 230.847656 L 209.710938 220.980469 L 210.683594 220.980469 L 214.09375 231.058594 L 215.113281 231.117188 C 215.113281 231.128906 215.109375 231.199219 215.101562 231.339844 L 212.136719 231.351562 C 212.136719 231.269531 212.140625 231.199219 212.148438 231.152344 L 212.921875 231.046875 C 213 231.035156 213.039062 230.976562 213.039062 230.871094 L 212.230469 228.457031 L 207.613281 228.457031 L 206.828125 231.023438 L 208.539062 231.117188 C 208.539062 231.128906 208.535156 231.199219 208.527344 231.339844 Z M 209.816406 221.261719 L 207.695312 228.152344 L 212.125 228.152344 Z M 209.816406 221.261719 "/></g></svg>