<svg xmlns="http://www.w3.org/2000/svg" xmlns:xlink="http://www.w3.org/1999/xlink" width="500" zoomAndPan="magnify" viewBox="0 0 375 374.999991" height="500" preserveAspectRatio="xMidYMid meet" version="1.2"><defs><clipPath id="7e2bacb0e8"><path d="M 246 147 L 260 147 L 260 157 L 246 157 Z M 246 147 "/></clipPath><clipPath id="e892e60b91"><path d="M 202.457031 121.835938 L 254.261719 113.308594 L 262.910156 165.847656 L 211.109375 174.378906 Z M 202.457031 121.835938 "/></clipPath><clipPath id="99d4a7ea0b"><path d="M 254.332031 113.296875 L 202.527344 121.824219 L 211.175781 174.367188 L 262.980469 165.839844 Z M 254.332031 113.296875 "/></clipPath><clipPath id="2b8758642b"><path d="M 246 144 L 257 144 L 257 157 L 246 157 Z M 246 144 "/></clipPath><clipPath id="f79e82f3cb"><path d="M 202.457031 121.835938 L 254.261719 113.308594 L 262.910156 165.847656 L 211.109375 174.378906 Z M 202.457031 121.835938 "/></clipPath><clipPath id="3c861a58db"><path d="M 254.332031 113.296875 L 202.527344 121.824219 L 211.175781 174.367188 L 262.980469 165.839844 Z M 254.332031 113.296875 "/></clipPath><clipPath id="e97ae03dfe"><path d="M 243 155 L 247 155 L 247 159 L 243 159 Z M 243 155 "/></clipPath><clipPath id="345f96ce96"><path d="M 202.457031 121.835938 L 254.261719 113.308594 L 262.910156 165.847656 L 211.109375 174.378906 Z M 202.457031 121.835938 "/></clipPath><clipPath id="956a70e728"><path d="M 254.332031 113.296875 L 202.527344 121.824219 L 211.175781 174.367188 L 262.980469 165.839844 Z M 254.332031 113.296875 "/></clipPath><clipPath id="a8cafdd015"><path d="M 208 146 L 245 146 L 245 173 L 208 173 Z M 208 146 "/></clipPath><clipPath id="33d1f3063e"><path d="M 202.457031 121.835938 L 254.261719 113.308594 L 262.910156 165.847656 L 211.109375 174.378906 Z M 202.457031 121.835938 "/></clipPath><clipPath id="f0df4abd25"><path d="M 254.332031 113.296875 L 202.527344 121.824219 L 211.175781 174.367188 L 262.980469 165.839844 Z M 254.332031 113.296875 "/></clipPath><clipPath id="90da036ff7"><path d="M 219 116 L 257 116 L 257 159 L 219 159 Z M 219 116 "/></clipPath><clipPath id="b216c09f2f"><path d="M 202.457031 121.835938 L 254.261719 113.308594 L 262.910156 165.847656 L 211.109375 174.378906 Z M 202.457031 121.835938 "/></clipPath><clipPath id="bd21117266"><path d="M 254.332031 113.296875 L 202.527344 121.824219 L 211.175781 174.367188 L 262.980469 165.839844 Z M 254.332031 113.296875 "/></clipPath></defs><g id="9e476301bf"><g clip-rule="nonzero" clip-path="url(#7e2bacb0e8)"><g clip-rule="nonzero" clip-path="url(#e892e60b91)"><g clip-rule="nonzero" clip-path="url(#99d4a7ea0b)"><path style=" stroke:none;fill-rule:nonzero;fill:#ca95aa;fill-opacity:1;" d="M 257.980469 147.96875 C 257.996094 147.925781 258.015625 147.886719 258.039062 147.847656 C 258.0625 147.8125 258.089844 147.777344 258.117188 147.746094 C 258.148438 147.714844 258.175781 147.6875 258.210938 147.664062 C 258.242188 147.640625 258.277344 147.621094 258.3125 147.605469 C 258.347656 147.59375 258.382812 147.582031 258.417969 147.578125 C 258.453125 147.570312 258.488281 147.570312 258.523438 147.574219 C 258.558594 147.578125 258.589844 147.585938 258.621094 147.59375 C 258.65625 147.605469 258.683594 147.621094 258.710938 147.640625 C 258.738281 147.65625 258.765625 147.679688 258.789062 147.699219 C 258.808594 147.722656 258.832031 147.746094 258.851562 147.777344 L 258.859375 147.785156 L 258.863281 147.796875 L 258.878906 147.816406 C 258.882812 147.824219 258.886719 147.832031 258.890625 147.839844 C 258.894531 147.847656 258.898438 147.855469 258.902344 147.863281 L 258.910156 147.882812 C 258.910156 147.886719 258.914062 147.886719 258.914062 147.890625 L 258.917969 147.90625 L 258.925781 147.929688 C 258.925781 147.933594 258.925781 147.933594 258.925781 147.941406 L 258.929688 147.953125 C 258.972656 148.097656 258.980469 148.246094 258.957031 148.390625 C 258.9375 148.539062 258.890625 148.6875 258.824219 148.832031 C 258.757812 148.976562 258.675781 149.117188 258.578125 149.253906 C 258.53125 149.320312 258.480469 149.386719 258.429688 149.453125 L 258.410156 149.476562 L 258.394531 149.496094 C 258.386719 149.503906 258.382812 149.507812 258.375 149.515625 L 258.355469 149.539062 L 258.265625 149.625 C 258.210938 149.683594 258.144531 149.746094 258.082031 149.808594 C 258.019531 149.867188 257.949219 149.925781 257.886719 149.984375 C 257.820312 150.046875 257.75 150.101562 257.683594 150.160156 C 257.617188 150.21875 257.546875 150.273438 257.476562 150.328125 C 257.441406 150.355469 257.410156 150.386719 257.371094 150.414062 L 257.265625 150.496094 C 257.230469 150.523438 257.195312 150.550781 257.160156 150.578125 L 257.050781 150.65625 C 256.761719 150.867188 256.464844 151.074219 256.15625 151.265625 L 255.929688 151.410156 C 255.851562 151.457031 255.773438 151.507812 255.695312 151.550781 C 255.617188 151.597656 255.539062 151.648438 255.460938 151.691406 C 255.382812 151.738281 255.304688 151.785156 255.226562 151.828125 C 255.183594 151.851562 255.144531 151.875 255.105469 151.894531 L 254.984375 151.964844 L 254.859375 152.035156 L 254.617188 152.175781 C 254.578125 152.199219 254.539062 152.222656 254.5 152.242188 L 254.261719 152.375 C 254.101562 152.464844 253.941406 152.554688 253.78125 152.636719 C 253.617188 152.722656 253.453125 152.804688 253.289062 152.890625 L 253.042969 153.015625 C 252.960938 153.058594 252.878906 153.101562 252.796875 153.140625 C 252.714844 153.183594 252.628906 153.222656 252.546875 153.265625 C 252.460938 153.304688 252.378906 153.347656 252.296875 153.390625 C 251.964844 153.558594 251.625 153.722656 251.289062 153.894531 C 251.121094 153.980469 250.953125 154.066406 250.785156 154.15625 C 250.621094 154.246094 250.453125 154.335938 250.285156 154.429688 C 250.117188 154.519531 249.957031 154.617188 249.792969 154.710938 L 249.554688 154.847656 C 249.472656 154.890625 249.394531 154.9375 249.3125 154.980469 L 249.066406 155.117188 C 248.984375 155.164062 248.902344 155.207031 248.820312 155.253906 C 248.65625 155.347656 248.488281 155.4375 248.324219 155.535156 C 248.160156 155.632812 247.996094 155.730469 247.832031 155.832031 C 247.753906 155.882812 247.671875 155.933594 247.59375 155.988281 C 247.550781 156.015625 247.511719 156.042969 247.472656 156.070312 C 247.433594 156.097656 247.394531 156.125 247.355469 156.152344 C 247.042969 156.375 246.742188 156.621094 246.472656 156.894531 L 246.511719 156.949219 C 246.816406 156.730469 247.140625 156.539062 247.46875 156.363281 C 247.800781 156.1875 248.136719 156.023438 248.480469 155.871094 L 249.507812 155.410156 C 249.59375 155.371094 249.679688 155.332031 249.765625 155.292969 L 250.019531 155.171875 C 250.1875 155.089844 250.355469 155.007812 250.527344 154.925781 C 251.203125 154.601562 251.886719 154.296875 252.570312 153.980469 C 252.910156 153.824219 253.253906 153.664062 253.589844 153.496094 C 253.925781 153.332031 254.261719 153.15625 254.59375 152.976562 L 254.839844 152.835938 C 254.878906 152.816406 254.921875 152.789062 254.960938 152.765625 L 255.082031 152.695312 C 255.242188 152.597656 255.40625 152.507812 255.570312 152.410156 C 255.894531 152.21875 256.210938 152.019531 256.523438 151.804688 C 256.835938 151.59375 257.140625 151.371094 257.433594 151.132812 L 257.546875 151.042969 C 257.582031 151.015625 257.617188 150.984375 257.652344 150.953125 C 257.726562 150.890625 257.796875 150.832031 257.867188 150.769531 C 257.9375 150.703125 258.007812 150.640625 258.074219 150.574219 C 258.144531 150.511719 258.214844 150.445312 258.277344 150.378906 C 258.34375 150.308594 258.410156 150.242188 258.472656 150.171875 C 258.539062 150.101562 258.601562 150.03125 258.664062 149.957031 L 258.753906 149.847656 L 258.777344 149.820312 C 258.785156 149.8125 258.792969 149.800781 258.796875 149.792969 C 258.8125 149.773438 258.824219 149.75 258.839844 149.730469 C 258.890625 149.652344 258.941406 149.570312 258.988281 149.488281 C 259.085938 149.324219 259.164062 149.148438 259.226562 148.96875 C 259.285156 148.785156 259.324219 148.59375 259.328125 148.398438 C 259.332031 148.203125 259.292969 148.007812 259.214844 147.832031 C 259.195312 147.785156 259.171875 147.742188 259.144531 147.699219 C 259.128906 147.679688 259.113281 147.660156 259.097656 147.640625 L 259.074219 147.613281 L 259.0625 147.597656 L 259.023438 147.558594 L 258.996094 147.535156 L 258.933594 147.488281 C 258.894531 147.460938 258.851562 147.4375 258.804688 147.417969 C 258.757812 147.398438 258.707031 147.386719 258.65625 147.378906 C 258.609375 147.371094 258.558594 147.371094 258.507812 147.375 C 258.457031 147.378906 258.40625 147.390625 258.359375 147.40625 C 258.3125 147.421875 258.269531 147.445312 258.226562 147.472656 C 258.183594 147.5 258.144531 147.53125 258.109375 147.566406 C 258.078125 147.601562 258.046875 147.640625 258.019531 147.683594 C 257.96875 147.769531 257.933594 147.859375 257.910156 147.957031 Z M 257.980469 147.96875 "/></g></g></g><g clip-rule="nonzero" clip-path="url(#2b8758642b)"><g clip-rule="nonzero" clip-path="url(#f79e82f3cb)"><g clip-rule="nonzero" clip-path="url(#3c861a58db)"><path style=" stroke:none;fill-rule:nonzero;fill:#ca95aa;fill-opacity:1;" d="M 255.09375 144.777344 C 255.101562 144.730469 255.109375 144.6875 255.125 144.644531 C 255.136719 144.601562 255.15625 144.5625 255.175781 144.523438 C 255.195312 144.488281 255.21875 144.453125 255.246094 144.421875 C 255.273438 144.394531 255.300781 144.367188 255.332031 144.34375 C 255.363281 144.320312 255.394531 144.304688 255.425781 144.289062 C 255.460938 144.277344 255.496094 144.265625 255.527344 144.261719 C 255.5625 144.257812 255.597656 144.257812 255.628906 144.257812 C 255.664062 144.261719 255.695312 144.269531 255.726562 144.28125 C 255.757812 144.289062 255.785156 144.304688 255.816406 144.320312 C 255.84375 144.339844 255.871094 144.355469 255.894531 144.378906 L 255.929688 144.414062 C 255.9375 144.421875 255.941406 144.425781 255.949219 144.433594 C 255.953125 144.441406 255.960938 144.445312 255.964844 144.453125 L 255.976562 144.46875 C 255.976562 144.472656 255.980469 144.476562 255.984375 144.476562 L 255.988281 144.488281 L 256 144.511719 C 256.003906 144.515625 256.003906 144.515625 256.007812 144.519531 L 256.015625 144.535156 C 256.085938 144.664062 256.128906 144.804688 256.144531 144.953125 C 256.15625 145.101562 256.148438 145.253906 256.117188 145.410156 C 256.085938 145.566406 256.042969 145.722656 255.980469 145.878906 C 255.953125 145.957031 255.917969 146.03125 255.882812 146.109375 L 255.871094 146.136719 L 255.859375 146.160156 C 255.855469 146.167969 255.851562 146.175781 255.847656 146.183594 L 255.832031 146.210938 L 255.765625 146.316406 C 255.726562 146.386719 255.675781 146.460938 255.628906 146.535156 C 255.582031 146.609375 255.53125 146.683594 255.484375 146.757812 C 255.433594 146.832031 255.378906 146.902344 255.328125 146.972656 C 255.277344 147.046875 255.222656 147.117188 255.167969 147.1875 C 255.140625 147.222656 255.113281 147.257812 255.085938 147.292969 L 255.003906 147.398438 C 254.972656 147.433594 254.949219 147.46875 254.917969 147.503906 L 254.832031 147.605469 C 254.597656 147.878906 254.359375 148.148438 254.109375 148.410156 L 253.921875 148.605469 C 253.855469 148.671875 253.792969 148.734375 253.730469 148.800781 C 253.664062 148.863281 253.601562 148.925781 253.535156 148.988281 C 253.46875 149.054688 253.402344 149.117188 253.335938 149.179688 C 253.304688 149.210938 253.269531 149.242188 253.238281 149.273438 L 253.136719 149.371094 L 253.03125 149.464844 L 252.929688 149.5625 L 252.832031 149.660156 C 252.796875 149.691406 252.765625 149.726562 252.730469 149.753906 L 252.53125 149.941406 C 252.398438 150.066406 252.261719 150.1875 252.125 150.308594 C 251.988281 150.433594 251.847656 150.550781 251.710938 150.671875 L 251.5 150.851562 C 251.433594 150.914062 251.359375 150.972656 251.289062 151.03125 C 251.21875 151.09375 251.148438 151.152344 251.078125 151.210938 C 251.003906 151.273438 250.9375 151.332031 250.863281 151.394531 C 250.582031 151.636719 250.292969 151.875 250.007812 152.125 C 249.867188 152.246094 249.722656 152.371094 249.582031 152.496094 C 249.441406 152.625 249.296875 152.75 249.160156 152.882812 C 249.015625 153.007812 248.882812 153.140625 248.746094 153.273438 L 248.546875 153.460938 C 248.476562 153.523438 248.414062 153.585938 248.34375 153.652344 L 248.136719 153.839844 C 248.070312 153.902344 248 153.96875 247.929688 154.03125 C 247.792969 154.160156 247.652344 154.289062 247.515625 154.421875 C 247.378906 154.554688 247.242188 154.6875 247.109375 154.828125 C 247.042969 154.898438 246.976562 154.964844 246.914062 155.039062 C 246.882812 155.074219 246.847656 155.109375 246.816406 155.144531 C 246.785156 155.179688 246.753906 155.21875 246.722656 155.253906 C 246.472656 155.546875 246.238281 155.851562 246.042969 156.183594 L 246.09375 156.226562 C 246.339844 155.945312 246.605469 155.679688 246.882812 155.429688 C 247.160156 155.179688 247.453125 154.941406 247.746094 154.710938 L 248.636719 154.019531 C 248.710938 153.960938 248.785156 153.902344 248.859375 153.84375 L 249.078125 153.667969 C 249.222656 153.546875 249.363281 153.425781 249.511719 153.308594 C 250.089844 152.832031 250.683594 152.371094 251.269531 151.902344 C 251.566406 151.667969 251.859375 151.429688 252.144531 151.191406 C 252.433594 150.949219 252.71875 150.699219 252.996094 150.445312 L 253.203125 150.25 C 253.234375 150.21875 253.269531 150.1875 253.304688 150.152344 L 253.402344 150.054688 C 253.539062 149.921875 253.675781 149.796875 253.808594 149.664062 C 254.078125 149.398438 254.339844 149.128906 254.59375 148.847656 C 254.84375 148.566406 255.089844 148.277344 255.316406 147.980469 L 255.402344 147.867188 C 255.433594 147.828125 255.457031 147.789062 255.488281 147.75 C 255.542969 147.675781 255.597656 147.597656 255.648438 147.519531 C 255.703125 147.441406 255.757812 147.363281 255.808594 147.285156 C 255.855469 147.203125 255.910156 147.125 255.957031 147.042969 C 256.003906 146.960938 256.054688 146.878906 256.097656 146.796875 C 256.140625 146.714844 256.1875 146.632812 256.230469 146.542969 L 256.292969 146.417969 L 256.308594 146.382812 C 256.3125 146.375 256.316406 146.363281 256.320312 146.351562 C 256.332031 146.328125 256.339844 146.304688 256.347656 146.28125 C 256.378906 146.191406 256.410156 146.101562 256.4375 146.011719 C 256.488281 145.828125 256.527344 145.640625 256.542969 145.445312 C 256.558594 145.257812 256.550781 145.0625 256.503906 144.871094 C 256.460938 144.683594 256.378906 144.5 256.257812 144.347656 C 256.230469 144.308594 256.199219 144.269531 256.160156 144.234375 C 256.140625 144.21875 256.121094 144.203125 256.101562 144.1875 L 256.070312 144.167969 L 256.054688 144.15625 L 256.039062 144.148438 L 255.976562 144.109375 L 255.957031 144.101562 L 255.941406 144.09375 L 255.90625 144.082031 C 255.859375 144.0625 255.8125 144.050781 255.761719 144.042969 C 255.710938 144.035156 255.660156 144.035156 255.609375 144.039062 C 255.5625 144.042969 255.511719 144.054688 255.464844 144.070312 C 255.417969 144.085938 255.371094 144.109375 255.328125 144.136719 C 255.285156 144.164062 255.25 144.195312 255.214844 144.234375 C 255.179688 144.269531 255.152344 144.308594 255.125 144.351562 C 255.097656 144.394531 255.078125 144.441406 255.0625 144.488281 C 255.035156 144.582031 255.019531 144.679688 255.023438 144.777344 Z M 255.09375 144.777344 "/></g></g></g><g clip-rule="nonzero" clip-path="url(#e97ae03dfe)"><g clip-rule="nonzero" clip-path="url(#345f96ce96)"><g clip-rule="nonzero" clip-path="url(#956a70e728)"><path style=" stroke:none;fill-rule:nonzero;fill:#ca95aa;fill-opacity:1;" d="M 246.03125 156.203125 C 246.109375 156.367188 246.164062 156.527344 246.191406 156.6875 C 246.203125 156.765625 246.214844 156.84375 246.214844 156.917969 C 246.214844 156.996094 246.214844 157.070312 246.203125 157.140625 C 246.195312 157.214844 246.183594 157.285156 246.164062 157.351562 C 246.144531 157.417969 246.125 157.484375 246.097656 157.542969 C 246.042969 157.667969 245.976562 157.773438 245.898438 157.859375 C 245.820312 157.945312 245.738281 158.003906 245.660156 158.039062 C 245.578125 158.070312 245.507812 158.082031 245.425781 158.078125 C 245.347656 158.074219 245.257812 158.054688 245.15625 158.011719 C 245.105469 157.992188 245.054688 157.96875 245 157.9375 L 244.980469 157.929688 L 244.960938 157.917969 C 244.949219 157.910156 244.9375 157.902344 244.925781 157.894531 L 244.890625 157.871094 C 244.882812 157.863281 244.871094 157.855469 244.859375 157.847656 C 244.777344 157.785156 244.710938 157.71875 244.664062 157.648438 C 244.617188 157.578125 244.582031 157.496094 244.5625 157.402344 C 244.558594 157.390625 244.554688 157.378906 244.554688 157.363281 C 244.554688 157.351562 244.550781 157.339844 244.550781 157.328125 C 244.546875 157.300781 244.542969 157.277344 244.542969 157.25 C 244.542969 157.195312 244.542969 157.140625 244.550781 157.085938 C 244.566406 156.96875 244.601562 156.851562 244.652344 156.738281 C 244.703125 156.625 244.769531 156.515625 244.847656 156.421875 L 244.878906 156.386719 L 244.914062 156.355469 C 244.925781 156.34375 244.9375 156.332031 244.949219 156.324219 C 244.960938 156.3125 244.972656 156.300781 244.984375 156.292969 C 245.03125 156.25 245.085938 156.21875 245.140625 156.191406 C 245.199219 156.160156 245.257812 156.136719 245.328125 156.121094 C 245.394531 156.105469 245.464844 156.101562 245.542969 156.101562 C 245.617188 156.101562 245.699219 156.109375 245.78125 156.128906 C 245.863281 156.144531 245.945312 156.171875 246.03125 156.203125 L 246.078125 156.152344 C 245.941406 156.035156 245.789062 155.933594 245.617188 155.875 C 245.445312 155.8125 245.257812 155.792969 245.074219 155.824219 C 244.894531 155.855469 244.722656 155.933594 244.574219 156.039062 C 244.425781 156.144531 244.296875 156.28125 244.195312 156.429688 C 244.089844 156.578125 244.011719 156.746094 243.960938 156.921875 C 243.914062 157.097656 243.894531 157.285156 243.914062 157.46875 C 243.929688 157.652344 243.988281 157.832031 244.082031 157.992188 C 244.128906 158.070312 244.183594 158.144531 244.246094 158.214844 C 244.308594 158.28125 244.378906 158.34375 244.449219 158.398438 C 244.523438 158.453125 244.601562 158.5 244.683594 158.542969 C 244.761719 158.585938 244.847656 158.625 244.933594 158.652344 C 245.105469 158.710938 245.292969 158.746094 245.476562 158.730469 C 245.664062 158.714844 245.847656 158.652344 246 158.546875 C 246.078125 158.496094 246.148438 158.433594 246.210938 158.367188 C 246.273438 158.296875 246.328125 158.222656 246.375 158.144531 C 246.464844 157.988281 246.527344 157.8125 246.5625 157.632812 C 246.59375 157.457031 246.597656 157.273438 246.570312 157.09375 C 246.546875 156.914062 246.488281 156.738281 246.40625 156.578125 C 246.320312 156.417969 246.210938 156.273438 246.078125 156.152344 Z M 246.03125 156.203125 "/></g></g></g><g clip-rule="nonzero" clip-path="url(#a8cafdd015)"><g clip-rule="nonzero" clip-path="url(#33d1f3063e)"><g clip-rule="nonzero" clip-path="url(#f0df4abd25)"><path style=" stroke:none;fill-rule:nonzero;fill:#ca95aa;fill-opacity:1;" d="M 244.78125 158.210938 C 244.160156 158.550781 243.582031 158.957031 243.023438 159.382812 C 242.742188 159.59375 242.46875 159.816406 242.199219 160.039062 C 241.929688 160.265625 241.667969 160.492188 241.40625 160.726562 C 240.882812 161.191406 240.375 161.671875 239.875 162.160156 C 239.625 162.402344 239.375 162.648438 239.128906 162.894531 C 238.882812 163.144531 238.636719 163.390625 238.394531 163.640625 C 237.421875 164.640625 236.472656 165.664062 235.519531 166.675781 C 235.046875 167.179688 234.570312 167.6875 234.085938 168.179688 C 233.84375 168.421875 233.601562 168.664062 233.351562 168.898438 C 233.230469 169.015625 233.105469 169.128906 232.976562 169.238281 C 232.851562 169.347656 232.726562 169.449219 232.601562 169.539062 L 232.648438 169.511719 C 232.496094 169.585938 232.335938 169.648438 232.175781 169.691406 C 232.015625 169.730469 231.851562 169.75 231.710938 169.738281 C 231.640625 169.734375 231.578125 169.722656 231.519531 169.703125 C 231.464844 169.683594 231.421875 169.65625 231.382812 169.625 C 231.34375 169.59375 231.308594 169.558594 231.28125 169.511719 C 231.253906 169.464844 231.230469 169.40625 231.210938 169.339844 L 231.203125 169.324219 L 231.191406 169.292969 C 231.171875 169.246094 231.160156 169.191406 231.160156 169.128906 C 231.15625 169.070312 231.164062 169 231.179688 168.925781 C 231.214844 168.777344 231.285156 168.613281 231.378906 168.453125 C 231.46875 168.292969 231.578125 168.132812 231.695312 167.976562 C 231.816406 167.820312 231.945312 167.664062 232.082031 167.515625 C 232.351562 167.214844 232.648438 166.929688 232.953125 166.652344 C 233.257812 166.371094 233.574219 166.101562 233.894531 165.839844 C 234.539062 165.308594 235.207031 164.804688 235.890625 164.316406 C 236.230469 164.070312 236.574219 163.828125 236.917969 163.589844 C 237.265625 163.347656 237.613281 163.113281 237.960938 162.878906 C 238.3125 162.644531 238.664062 162.410156 239.015625 162.179688 C 239.367188 161.945312 239.722656 161.714844 240.078125 161.480469 C 240.167969 161.417969 240.253906 161.359375 240.347656 161.296875 C 240.390625 161.269531 240.4375 161.238281 240.480469 161.203125 C 240.527344 161.171875 240.574219 161.136719 240.625 161.097656 L 240.636719 161.089844 C 240.640625 161.089844 240.628906 161.097656 240.644531 161.085938 L 240.683594 161.058594 C 240.707031 161.039062 240.730469 161.019531 240.753906 161.003906 C 240.804688 160.964844 240.851562 160.925781 240.894531 160.886719 C 240.988281 160.808594 241.078125 160.726562 241.167969 160.632812 C 241.253906 160.535156 241.339844 160.433594 241.421875 160.300781 C 241.464844 160.230469 241.503906 160.15625 241.535156 160.0625 C 241.566406 159.96875 241.59375 159.859375 241.589844 159.726562 C 241.585938 159.660156 241.574219 159.589844 241.554688 159.519531 C 241.53125 159.453125 241.5 159.386719 241.464844 159.332031 C 241.429688 159.273438 241.390625 159.226562 241.347656 159.183594 C 241.324219 159.164062 241.308594 159.144531 241.28125 159.121094 C 241.253906 159.101562 241.285156 159.121094 241.210938 159.070312 C 241.179688 159.054688 241.164062 159.046875 241.148438 159.039062 C 241.082031 159.007812 241.035156 158.992188 240.988281 158.980469 C 240.945312 158.96875 240.902344 158.960938 240.859375 158.953125 C 240.78125 158.941406 240.707031 158.933594 240.636719 158.933594 C 240.492188 158.929688 240.363281 158.941406 240.238281 158.957031 C 240.113281 158.972656 239.996094 158.996094 239.878906 159.027344 C 239.765625 159.050781 239.648438 159.085938 239.546875 159.117188 C 239.445312 159.144531 239.339844 159.175781 239.238281 159.207031 C 239.03125 159.273438 238.824219 159.339844 238.621094 159.40625 C 238.414062 159.476562 238.210938 159.550781 238.007812 159.625 C 237.195312 159.929688 236.398438 160.292969 235.636719 160.726562 C 234.871094 161.160156 234.148438 161.664062 233.476562 162.226562 C 233.394531 162.300781 233.308594 162.371094 233.226562 162.445312 C 233.144531 162.515625 233.0625 162.589844 232.980469 162.664062 C 232.941406 162.703125 232.902344 162.742188 232.863281 162.777344 L 232.746094 162.890625 C 232.667969 162.96875 232.589844 163.042969 232.515625 163.117188 C 232.210938 163.421875 231.910156 163.726562 231.617188 164.039062 C 231.03125 164.65625 230.460938 165.285156 229.886719 165.898438 C 229.3125 166.515625 228.734375 167.117188 228.128906 167.6875 C 227.828125 167.972656 227.519531 168.25 227.207031 168.515625 C 226.890625 168.785156 226.566406 169.050781 226.238281 169.304688 C 225.585938 169.8125 224.90625 170.285156 224.199219 170.699219 C 223.847656 170.90625 223.488281 171.101562 223.121094 171.273438 C 222.753906 171.449219 222.378906 171.601562 222 171.730469 C 221.242188 171.984375 220.453125 172.132812 219.675781 172.125 C 219.285156 172.117188 218.898438 172.074219 218.519531 171.988281 C 218.140625 171.898438 217.773438 171.773438 217.421875 171.605469 C 217.066406 171.441406 216.730469 171.238281 216.410156 171.003906 C 216.367188 170.972656 216.335938 170.949219 216.300781 170.921875 C 216.265625 170.894531 216.226562 170.859375 216.191406 170.832031 L 216.164062 170.808594 L 216.136719 170.78125 L 216.082031 170.730469 L 216.023438 170.679688 L 215.96875 170.628906 C 215.820312 170.492188 215.671875 170.351562 215.53125 170.207031 C 215.390625 170.058594 215.25 169.910156 215.113281 169.757812 C 214.980469 169.605469 214.847656 169.449219 214.714844 169.289062 C 214.457031 168.96875 214.207031 168.640625 213.96875 168.304688 C 213.726562 167.964844 213.496094 167.621094 213.269531 167.269531 C 213.15625 167.09375 213.042969 166.914062 212.933594 166.738281 L 212.765625 166.46875 L 212.679688 166.328125 L 212.585938 166.1875 L 212.398438 165.921875 L 212.210938 165.660156 L 211.84375 165.144531 C 211.597656 164.800781 211.351562 164.457031 211.117188 164.113281 C 210.882812 163.769531 210.660156 163.421875 210.453125 163.066406 C 210.242188 162.714844 210.050781 162.351562 209.886719 161.980469 C 209.84375 161.890625 209.804688 161.796875 209.765625 161.703125 L 209.707031 161.5625 L 209.652344 161.417969 C 209.574219 161.226562 209.511719 161.042969 209.457031 160.851562 C 209.351562 160.472656 209.289062 160.085938 209.269531 159.691406 C 209.25 159.296875 209.277344 158.898438 209.339844 158.503906 C 209.40625 158.109375 209.507812 157.71875 209.632812 157.328125 C 209.757812 156.941406 209.910156 156.558594 210.078125 156.179688 C 210.246094 155.800781 210.425781 155.425781 210.617188 155.054688 C 211 154.308594 211.410156 153.566406 211.800781 152.808594 C 211.992188 152.425781 212.183594 152.042969 212.355469 151.648438 L 212.421875 151.5 L 212.484375 151.351562 C 212.523438 151.25 212.566406 151.148438 212.601562 151.050781 C 212.679688 150.855469 212.761719 150.664062 212.84375 150.472656 C 213.007812 150.089844 213.183594 149.714844 213.382812 149.351562 C 213.578125 148.992188 213.800781 148.644531 214.050781 148.324219 C 214.300781 148.003906 214.578125 147.707031 214.894531 147.457031 C 215.050781 147.328125 215.214844 147.214844 215.390625 147.113281 C 215.476562 147.0625 215.5625 147.011719 215.652344 146.96875 L 215.785156 146.902344 C 215.808594 146.890625 215.832031 146.886719 215.851562 146.875 C 215.875 146.867188 215.898438 146.859375 215.921875 146.851562 C 216.296875 146.714844 216.699219 146.640625 217.105469 146.613281 C 217.515625 146.585938 217.929688 146.601562 218.34375 146.640625 C 218.757812 146.683594 219.167969 146.753906 219.578125 146.839844 C 219.988281 146.925781 220.394531 147.027344 220.800781 147.144531 C 221.609375 147.371094 222.40625 147.648438 223.207031 147.921875 L 223.269531 147.75 C 222.476562 147.460938 221.679688 147.171875 220.863281 146.929688 C 220.457031 146.808594 220.046875 146.699219 219.628906 146.605469 C 219.214844 146.511719 218.796875 146.4375 218.371094 146.386719 C 217.949219 146.339844 217.519531 146.316406 217.089844 146.339844 C 216.664062 146.367188 216.234375 146.433594 215.828125 146.578125 C 215.800781 146.585938 215.777344 146.597656 215.75 146.605469 C 215.726562 146.617188 215.699219 146.625 215.675781 146.636719 L 215.597656 146.667969 L 215.527344 146.703125 C 215.429688 146.75 215.335938 146.800781 215.242188 146.855469 C 215.054688 146.960938 214.875 147.082031 214.707031 147.214844 C 214.367188 147.480469 214.066406 147.789062 213.800781 148.125 C 213.53125 148.457031 213.300781 148.816406 213.089844 149.1875 C 212.878906 149.558594 212.695312 149.941406 212.523438 150.332031 C 212.4375 150.523438 212.355469 150.71875 212.273438 150.914062 C 212.234375 151.015625 212.195312 151.109375 212.152344 151.207031 L 212.027344 151.496094 C 211.851562 151.882812 211.664062 152.257812 211.464844 152.632812 C 211.074219 153.378906 210.65625 154.117188 210.261719 154.867188 C 210.066406 155.242188 209.875 155.621094 209.699219 156.007812 C 209.523438 156.394531 209.363281 156.789062 209.230469 157.195312 C 209.09375 157.597656 208.984375 158.011719 208.910156 158.429688 C 208.839844 158.851562 208.808594 159.28125 208.824219 159.707031 C 208.839844 160.132812 208.90625 160.558594 209.019531 160.972656 C 209.074219 161.179688 209.144531 161.378906 209.21875 161.578125 C 209.292969 161.777344 209.375 161.976562 209.460938 162.167969 C 209.632812 162.558594 209.828125 162.9375 210.042969 163.304688 C 210.253906 163.671875 210.480469 164.03125 210.71875 164.382812 C 210.953125 164.734375 211.199219 165.078125 211.441406 165.425781 C 211.6875 165.769531 211.933594 166.117188 212.171875 166.464844 L 212.214844 166.527344 L 212.238281 166.558594 L 212.257812 166.59375 L 212.339844 166.730469 L 212.503906 167 C 212.617188 167.179688 212.730469 167.359375 212.84375 167.539062 C 213.070312 167.894531 213.304688 168.25 213.546875 168.597656 C 214.035156 169.289062 214.5625 169.960938 215.152344 170.570312 C 215.300781 170.722656 215.453125 170.871094 215.609375 171.015625 L 215.726562 171.125 C 215.765625 171.160156 215.804688 171.195312 215.84375 171.230469 C 215.886719 171.265625 215.925781 171.300781 215.964844 171.335938 C 216.007812 171.367188 216.050781 171.402344 216.09375 171.433594 C 216.4375 171.683594 216.804688 171.90625 217.191406 172.089844 C 217.574219 172.273438 217.980469 172.417969 218.394531 172.515625 C 218.8125 172.613281 219.238281 172.664062 219.664062 172.671875 C 220.089844 172.675781 220.519531 172.640625 220.9375 172.570312 C 221.359375 172.496094 221.773438 172.390625 222.175781 172.253906 C 222.984375 171.988281 223.753906 171.613281 224.484375 171.183594 C 225.21875 170.757812 225.914062 170.269531 226.585938 169.75 C 226.921875 169.492188 227.25 169.222656 227.574219 168.949219 C 227.898438 168.675781 228.214844 168.390625 228.523438 168.101562 C 229.140625 167.519531 229.726562 166.910156 230.308594 166.292969 C 230.886719 165.671875 231.457031 165.046875 232.039062 164.433594 C 232.328125 164.128906 232.625 163.828125 232.925781 163.527344 C 233.074219 163.378906 233.226562 163.234375 233.378906 163.089844 C 233.457031 163.019531 233.53125 162.945312 233.613281 162.878906 C 233.691406 162.808594 233.769531 162.738281 233.851562 162.671875 C 234.496094 162.128906 235.1875 161.644531 235.921875 161.230469 C 236.652344 160.8125 237.421875 160.460938 238.210938 160.167969 C 238.410156 160.09375 238.605469 160.019531 238.808594 159.953125 C 239.007812 159.886719 239.207031 159.820312 239.410156 159.757812 C 239.507812 159.726562 239.609375 159.695312 239.710938 159.667969 C 239.8125 159.636719 239.914062 159.609375 240.011719 159.585938 C 240.113281 159.558594 240.214844 159.539062 240.316406 159.527344 C 240.417969 159.511719 240.523438 159.503906 240.621094 159.507812 C 240.671875 159.507812 240.722656 159.511719 240.769531 159.519531 C 240.792969 159.523438 240.816406 159.527344 240.839844 159.535156 C 240.859375 159.539062 240.882812 159.546875 240.902344 159.554688 C 240.90625 159.558594 240.910156 159.558594 240.910156 159.5625 C 240.90625 159.558594 240.917969 159.566406 240.917969 159.566406 C 240.925781 159.574219 240.933594 159.582031 240.941406 159.589844 C 240.957031 159.605469 240.96875 159.621094 240.980469 159.636719 C 241 159.671875 241.011719 159.707031 241.015625 159.75 C 241.019531 159.828125 240.980469 159.921875 240.933594 160.003906 C 240.882812 160.085938 240.816406 160.164062 240.746094 160.242188 C 240.675781 160.316406 240.601562 160.386719 240.523438 160.453125 C 240.484375 160.484375 240.445312 160.519531 240.402344 160.550781 C 240.382812 160.566406 240.363281 160.582031 240.34375 160.597656 L 240.3125 160.621094 C 240.308594 160.621094 240.300781 160.628906 240.292969 160.632812 L 240.277344 160.644531 C 240.195312 160.707031 240.109375 160.769531 240.023438 160.828125 C 239.933594 160.886719 239.847656 160.945312 239.761719 161.003906 C 239.410156 161.238281 239.054688 161.472656 238.703125 161.707031 C 238.347656 161.9375 237.996094 162.175781 237.644531 162.410156 C 237.296875 162.648438 236.945312 162.886719 236.597656 163.128906 C 236.25 163.371094 235.90625 163.617188 235.5625 163.867188 C 234.875 164.363281 234.199219 164.878906 233.546875 165.417969 C 233.21875 165.6875 232.898438 165.964844 232.585938 166.253906 C 232.273438 166.542969 231.96875 166.839844 231.683594 167.160156 C 231.539062 167.320312 231.402344 167.484375 231.273438 167.65625 C 231.144531 167.828125 231.019531 168.003906 230.914062 168.195312 C 230.808594 168.386719 230.71875 168.589844 230.667969 168.8125 C 230.644531 168.921875 230.632812 169.039062 230.636719 169.15625 C 230.640625 169.273438 230.667969 169.390625 230.714844 169.5 L 230.710938 169.488281 C 230.742188 169.589844 230.78125 169.691406 230.84375 169.785156 C 230.902344 169.878906 230.976562 169.964844 231.066406 170.035156 C 231.15625 170.105469 231.257812 170.15625 231.359375 170.191406 C 231.464844 170.226562 231.574219 170.242188 231.679688 170.25 C 231.894531 170.261719 232.105469 170.234375 232.304688 170.179688 C 232.507812 170.128906 232.699219 170.054688 232.882812 169.957031 L 232.898438 169.949219 C 233.042969 169.84375 233.179688 169.730469 233.3125 169.613281 C 233.441406 169.5 233.570312 169.378906 233.699219 169.257812 C 233.953125 169.015625 234.199219 168.769531 234.441406 168.519531 C 234.925781 168.015625 235.398438 167.507812 235.871094 166.996094 C 236.816406 165.972656 237.753906 164.949219 238.714844 163.945312 C 239.195312 163.441406 239.679688 162.945312 240.171875 162.453125 C 240.660156 161.964844 241.160156 161.484375 241.671875 161.015625 C 242.183594 160.550781 242.710938 160.097656 243.253906 159.671875 C 243.796875 159.246094 244.355469 158.84375 244.949219 158.503906 Z M 244.78125 158.210938 "/></g></g></g><g clip-rule="nonzero" clip-path="url(#90da036ff7)"><g clip-rule="nonzero" clip-path="url(#b216c09f2f)"><g clip-rule="nonzero" clip-path="url(#bd21117266)"><path style=" stroke:none;fill-rule:nonzero;fill:#ca95aa;fill-opacity:1;" d="M 240.351562 130.730469 C 240.304688 130.523438 240.285156 130.308594 240.28125 130.09375 C 240.28125 129.878906 240.292969 129.667969 240.316406 129.453125 C 240.363281 129.027344 240.460938 128.605469 240.59375 128.199219 C 240.859375 127.382812 241.273438 126.621094 241.808594 125.953125 C 242.078125 125.621094 242.375 125.3125 242.695312 125.035156 C 243.019531 124.753906 243.367188 124.503906 243.730469 124.28125 C 243.910156 124.167969 244.097656 124.066406 244.289062 123.96875 C 244.476562 123.871094 244.671875 123.785156 244.867188 123.699219 L 245.015625 123.636719 L 245.164062 123.582031 L 245.238281 123.550781 L 245.316406 123.523438 L 245.472656 123.460938 C 245.679688 123.371094 245.878906 123.265625 246.066406 123.140625 C 246.253906 123.019531 246.433594 122.875 246.59375 122.714844 C 246.753906 122.558594 246.902344 122.382812 247.03125 122.199219 C 247.289062 121.828125 247.484375 121.417969 247.640625 121.003906 C 247.796875 120.589844 247.921875 120.167969 248.035156 119.746094 L 248.054688 119.671875 C 248.058594 119.660156 248.0625 119.648438 248.066406 119.636719 L 248.078125 119.601562 L 248.128906 119.453125 C 248.160156 119.351562 248.195312 119.25 248.234375 119.152344 C 248.304688 118.949219 248.382812 118.753906 248.46875 118.5625 C 248.550781 118.367188 248.640625 118.179688 248.742188 118 C 248.839844 117.816406 248.949219 117.644531 249.070312 117.480469 C 249.191406 117.320312 249.320312 117.175781 249.46875 117.054688 C 249.539062 116.992188 249.617188 116.941406 249.695312 116.894531 C 249.773438 116.851562 249.851562 116.816406 249.933594 116.792969 C 250.097656 116.742188 250.269531 116.734375 250.445312 116.765625 L 250.476562 116.769531 C 250.488281 116.773438 250.496094 116.777344 250.507812 116.777344 L 250.542969 116.785156 L 250.574219 116.796875 C 250.585938 116.796875 250.59375 116.800781 250.605469 116.804688 L 250.640625 116.816406 C 250.667969 116.824219 250.691406 116.832031 250.714844 116.839844 C 250.808594 116.871094 250.902344 116.910156 250.996094 116.949219 C 251.363281 117.109375 251.707031 117.328125 252.023438 117.585938 C 252.339844 117.84375 252.628906 118.140625 252.894531 118.457031 C 253.160156 118.777344 253.398438 119.117188 253.621094 119.472656 C 254.0625 120.1875 254.425781 120.953125 254.734375 121.742188 C 255.046875 122.53125 255.304688 123.339844 255.519531 124.164062 C 255.628906 124.574219 255.726562 124.988281 255.808594 125.40625 C 255.894531 125.820312 255.96875 126.238281 256.019531 126.652344 C 256.027344 126.703125 256.03125 126.753906 256.039062 126.804688 L 256.054688 126.960938 C 256.066406 127.066406 256.074219 127.171875 256.082031 127.277344 C 256.097656 127.484375 256.109375 127.695312 256.121094 127.90625 C 256.136719 128.328125 256.136719 128.75 256.125 129.171875 C 256.097656 130.015625 256.015625 130.859375 255.886719 131.699219 C 255.628906 133.375 255.195312 135.027344 254.644531 136.640625 C 254.371094 137.449219 254.066406 138.246094 253.738281 139.035156 C 253.574219 139.429688 253.40625 139.824219 253.230469 140.210938 C 253.054688 140.601562 252.875 140.992188 252.691406 141.375 C 251.949219 142.917969 251.128906 144.425781 250.246094 145.898438 C 249.367188 147.367188 248.429688 148.804688 247.441406 150.207031 C 246.945312 150.90625 246.4375 151.597656 245.914062 152.28125 C 245.394531 152.960938 244.859375 153.628906 244.3125 154.285156 C 244.035156 154.613281 243.757812 154.9375 243.476562 155.253906 C 243.195312 155.574219 242.90625 155.886719 242.613281 156.191406 C 242.46875 156.34375 242.320312 156.492188 242.171875 156.636719 C 242.023438 156.78125 241.871094 156.917969 241.722656 157.042969 C 241.6875 157.074219 241.652344 157.101562 241.617188 157.128906 C 241.578125 157.15625 241.546875 157.183594 241.515625 157.203125 C 241.5 157.214844 241.488281 157.222656 241.476562 157.226562 C 241.464844 157.234375 241.457031 157.238281 241.457031 157.238281 C 241.460938 157.238281 241.464844 157.234375 241.472656 157.230469 C 241.484375 157.230469 241.5 157.222656 241.535156 157.214844 C 241.570312 157.210938 241.625 157.199219 241.734375 157.222656 C 241.84375 157.242188 242.023438 157.359375 242.082031 157.480469 C 242.148438 157.601562 242.148438 157.671875 242.15625 157.714844 C 242.15625 157.757812 242.152344 157.777344 242.152344 157.792969 C 242.148438 157.8125 242.152344 157.800781 242.152344 157.78125 L 242.160156 157.742188 L 242.195312 157.582031 C 242.214844 157.476562 242.234375 157.367188 242.253906 157.261719 C 242.339844 156.832031 242.414062 156.402344 242.488281 155.972656 C 242.5625 155.542969 242.632812 155.109375 242.695312 154.679688 C 242.757812 154.246094 242.820312 153.8125 242.871094 153.378906 C 242.925781 152.945312 242.972656 152.507812 243.015625 152.074219 C 243.183594 150.328125 243.257812 148.574219 243.210938 146.816406 C 243.195312 146.375 243.175781 145.9375 243.152344 145.496094 C 243.121094 145.058594 243.085938 144.621094 243.042969 144.179688 L 243.003906 143.851562 C 242.992188 143.738281 242.980469 143.628906 242.964844 143.519531 L 242.945312 143.355469 L 242.921875 143.191406 C 242.90625 143.082031 242.890625 142.972656 242.875 142.867188 C 242.808594 142.429688 242.734375 141.996094 242.652344 141.5625 C 242.570312 141.128906 242.480469 140.699219 242.382812 140.273438 C 242.285156 139.84375 242.183594 139.417969 242.070312 138.992188 C 241.851562 138.144531 241.605469 137.300781 241.335938 136.46875 C 240.800781 134.800781 240.183594 133.164062 239.488281 131.558594 C 239.316406 131.15625 239.140625 130.757812 238.957031 130.359375 C 238.777344 129.964844 238.589844 129.570312 238.398438 129.175781 C 238.015625 128.390625 237.617188 127.609375 237.195312 126.84375 C 236.777344 126.074219 236.335938 125.316406 235.867188 124.574219 C 235.632812 124.199219 235.390625 123.832031 235.136719 123.46875 C 235.074219 123.378906 235.011719 123.285156 234.945312 123.195312 L 234.847656 123.0625 L 234.746094 122.925781 C 234.683594 122.835938 234.613281 122.75 234.546875 122.660156 L 234.441406 122.527344 L 234.390625 122.460938 L 234.335938 122.394531 C 234.300781 122.351562 234.265625 122.308594 234.230469 122.261719 L 234.117188 122.132812 C 234.082031 122.089844 234.042969 122.046875 234.007812 122.003906 C 233.988281 121.984375 233.96875 121.960938 233.949219 121.941406 L 233.894531 121.878906 L 233.839844 121.820312 L 233.789062 121.761719 C 233.75 121.71875 233.714844 121.675781 233.675781 121.636719 C 233.597656 121.550781 233.519531 121.46875 233.441406 121.386719 C 233.125 121.058594 232.796875 120.753906 232.453125 120.460938 C 232.109375 120.167969 231.753906 119.894531 231.382812 119.632812 C 231.015625 119.375 230.628906 119.136719 230.230469 118.917969 C 229.832031 118.699219 229.414062 118.5 228.980469 118.339844 C 228.546875 118.179688 228.09375 118.050781 227.621094 117.976562 C 227.152344 117.902344 226.660156 117.882812 226.171875 117.945312 C 225.925781 117.980469 225.683594 118.03125 225.445312 118.105469 C 225.328125 118.144531 225.210938 118.1875 225.09375 118.234375 C 225.066406 118.246094 225.035156 118.257812 225.007812 118.269531 C 224.976562 118.285156 224.949219 118.296875 224.917969 118.3125 C 224.855469 118.34375 224.796875 118.375 224.742188 118.40625 C 224.515625 118.535156 224.300781 118.699219 224.113281 118.882812 C 223.925781 119.070312 223.765625 119.28125 223.636719 119.5 C 223.503906 119.722656 223.398438 119.953125 223.316406 120.183594 C 223.234375 120.417969 223.175781 120.652344 223.128906 120.886719 C 223.039062 121.351562 223.003906 121.8125 222.996094 122.269531 C 222.988281 122.722656 223.007812 123.167969 223.039062 123.609375 C 223.066406 124.046875 223.109375 124.480469 223.140625 124.90625 C 223.148438 125.011719 223.15625 125.117188 223.164062 125.222656 L 223.179688 125.539062 L 223.1875 125.695312 C 223.191406 125.746094 223.191406 125.800781 223.195312 125.851562 L 223.195312 126.007812 C 223.199219 126.058594 223.195312 126.109375 223.199219 126.164062 C 223.195312 126.371094 223.191406 126.578125 223.179688 126.785156 C 223.167969 126.992188 223.152344 127.195312 223.128906 127.402344 C 223.085938 127.816406 223.019531 128.230469 222.9375 128.640625 C 222.769531 129.460938 222.535156 130.277344 222.273438 131.09375 L 222.175781 131.402344 L 222.078125 131.707031 L 221.976562 132.015625 L 221.875 132.328125 C 221.742188 132.742188 221.613281 133.152344 221.484375 133.566406 C 221.222656 134.390625 220.960938 135.207031 220.671875 136.011719 L 220.5625 136.3125 L 220.449219 136.609375 L 220.332031 136.90625 L 220.269531 137.054688 L 220.210938 137.207031 L 220.179688 137.28125 L 220.164062 137.320312 C 220.15625 137.332031 220.152344 137.347656 220.148438 137.363281 L 220.117188 137.445312 L 220.085938 137.523438 C 220.050781 137.628906 220.015625 137.734375 219.980469 137.835938 C 219.90625 138.046875 219.839844 138.257812 219.777344 138.472656 C 219.65625 138.902344 219.550781 139.34375 219.484375 139.792969 C 219.417969 140.242188 219.390625 140.703125 219.410156 141.164062 C 219.429688 141.621094 219.503906 142.078125 219.617188 142.523438 C 219.734375 142.964844 219.894531 143.390625 220.085938 143.800781 C 220.132812 143.902344 220.179688 144.003906 220.230469 144.105469 L 220.308594 144.253906 L 220.351562 144.332031 C 220.363281 144.359375 220.378906 144.382812 220.394531 144.40625 L 220.480469 144.554688 L 220.566406 144.695312 C 220.59375 144.742188 220.625 144.789062 220.652344 144.835938 C 220.683594 144.882812 220.710938 144.929688 220.742188 144.976562 C 220.859375 145.160156 220.980469 145.34375 221.105469 145.527344 C 221.230469 145.707031 221.359375 145.886719 221.488281 146.0625 C 222.011719 146.769531 222.570312 147.445312 223.160156 148.089844 C 223.753906 148.734375 224.371094 149.351562 225.007812 149.945312 C 225.648438 150.539062 226.304688 151.109375 226.980469 151.660156 C 227.652344 152.210938 228.339844 152.742188 229.039062 153.257812 C 229.390625 153.515625 229.742188 153.769531 230.097656 154.019531 L 230.363281 154.203125 L 230.632812 154.390625 L 230.90625 154.570312 C 230.953125 154.601562 231 154.628906 231.042969 154.660156 L 231.183594 154.746094 C 231.921875 155.210938 232.6875 155.628906 233.476562 156 C 234.265625 156.371094 235.074219 156.695312 235.894531 156.984375 C 237.535156 157.554688 239.222656 157.972656 240.917969 158.3125 L 240.933594 158.246094 C 239.246094 157.871094 237.570312 157.429688 235.949219 156.832031 C 235.136719 156.535156 234.339844 156.203125 233.566406 155.820312 C 232.789062 155.441406 232.035156 155.015625 231.3125 154.546875 L 231.175781 154.460938 C 231.132812 154.429688 231.085938 154.402344 231.042969 154.371094 L 230.773438 154.1875 L 230.507812 154 L 230.246094 153.8125 C 229.898438 153.558594 229.550781 153.300781 229.207031 153.039062 C 228.515625 152.519531 227.839844 151.980469 227.175781 151.425781 C 225.851562 150.316406 224.585938 149.132812 223.4375 147.847656 C 222.859375 147.203125 222.3125 146.53125 221.808594 145.832031 C 221.683594 145.65625 221.558594 145.480469 221.441406 145.300781 C 221.320312 145.121094 221.203125 144.941406 221.089844 144.757812 C 220.972656 144.574219 220.863281 144.390625 220.753906 144.203125 C 220.742188 144.179688 220.726562 144.160156 220.714844 144.136719 L 220.679688 144.0625 C 220.65625 144.015625 220.628906 143.96875 220.605469 143.921875 C 220.558594 143.824219 220.511719 143.726562 220.46875 143.628906 C 220.292969 143.238281 220.144531 142.832031 220.039062 142.414062 C 219.933594 142 219.871094 141.574219 219.855469 141.144531 C 219.839844 140.71875 219.871094 140.289062 219.9375 139.863281 C 220.003906 139.4375 220.105469 139.019531 220.226562 138.609375 C 220.289062 138.402344 220.355469 138.195312 220.425781 137.992188 C 220.460938 137.890625 220.5 137.789062 220.535156 137.6875 L 220.59375 137.539062 C 220.601562 137.511719 220.613281 137.488281 220.621094 137.464844 L 220.652344 137.386719 C 220.824219 136.992188 220.984375 136.585938 221.132812 136.179688 C 221.433594 135.367188 221.703125 134.546875 221.96875 133.722656 C 222.101562 133.3125 222.234375 132.898438 222.371094 132.488281 L 222.472656 132.179688 L 222.574219 131.875 C 222.644531 131.667969 222.714844 131.464844 222.78125 131.257812 C 223.046875 130.433594 223.296875 129.601562 223.472656 128.75 C 223.5625 128.328125 223.632812 127.898438 223.683594 127.464844 C 223.707031 127.25 223.726562 127.035156 223.742188 126.816406 C 223.753906 126.601562 223.761719 126.382812 223.761719 126.164062 C 223.765625 125.949219 223.757812 125.730469 223.75 125.515625 L 223.734375 125.1875 C 223.726562 125.082031 223.722656 124.972656 223.714844 124.863281 C 223.683594 124.433594 223.644531 124.003906 223.617188 123.570312 C 223.589844 123.140625 223.574219 122.710938 223.585938 122.28125 C 223.59375 121.851562 223.628906 121.421875 223.714844 121.003906 C 223.796875 120.585938 223.933594 120.171875 224.152344 119.8125 C 224.261719 119.628906 224.390625 119.460938 224.539062 119.3125 C 224.691406 119.164062 224.859375 119.039062 225.042969 118.933594 C 225.089844 118.90625 225.136719 118.882812 225.183594 118.859375 L 225.253906 118.828125 C 225.277344 118.816406 225.304688 118.804688 225.328125 118.796875 C 225.425781 118.757812 225.527344 118.71875 225.628906 118.6875 C 225.828125 118.625 226.039062 118.582031 226.25 118.554688 C 226.671875 118.5 227.101562 118.519531 227.523438 118.585938 C 227.945312 118.65625 228.359375 118.773438 228.761719 118.925781 C 229.164062 119.078125 229.550781 119.261719 229.925781 119.46875 C 230.304688 119.675781 230.667969 119.90625 231.019531 120.152344 C 231.371094 120.402344 231.710938 120.667969 232.039062 120.945312 C 232.367188 121.226562 232.679688 121.519531 232.976562 121.832031 C 233.050781 121.910156 233.125 121.988281 233.199219 122.066406 C 233.234375 122.109375 233.269531 122.148438 233.304688 122.1875 L 233.359375 122.25 L 233.414062 122.308594 C 233.558594 122.46875 233.695312 122.632812 233.832031 122.800781 L 233.933594 122.925781 L 234.03125 123.054688 C 234.09375 123.140625 234.160156 123.226562 234.226562 123.3125 L 234.320312 123.441406 L 234.414062 123.574219 C 234.476562 123.660156 234.539062 123.75 234.601562 123.839844 C 234.847656 124.195312 235.082031 124.554688 235.3125 124.921875 C 235.769531 125.652344 236.203125 126.398438 236.617188 127.160156 C 237.027344 127.917969 237.421875 128.6875 237.796875 129.464844 C 237.984375 129.855469 238.167969 130.246094 238.347656 130.636719 C 238.527344 131.03125 238.703125 131.425781 238.871094 131.824219 C 239.550781 133.410156 240.164062 135.03125 240.691406 136.675781 C 240.953125 137.496094 241.195312 138.328125 241.414062 139.164062 C 241.519531 139.582031 241.621094 140 241.71875 140.421875 C 241.8125 140.84375 241.902344 141.265625 241.980469 141.6875 C 242.058594 142.113281 242.132812 142.539062 242.199219 142.964844 C 242.261719 143.390625 242.316406 143.820312 242.363281 144.25 C 242.40625 144.679688 242.441406 145.109375 242.46875 145.539062 C 242.496094 145.96875 242.515625 146.402344 242.527344 146.832031 C 242.574219 148.558594 242.503906 150.289062 242.339844 152.007812 C 242.175781 153.726562 241.921875 155.4375 241.601562 157.136719 C 241.578125 157.242188 241.558594 157.347656 241.539062 157.453125 L 241.507812 157.613281 L 241.5 157.652344 C 241.496094 157.664062 241.496094 157.679688 241.492188 157.695312 C 241.488281 157.710938 241.488281 157.730469 241.488281 157.75 C 241.492188 157.769531 241.492188 157.792969 241.507812 157.816406 C 241.523438 157.84375 241.554688 157.867188 241.582031 157.871094 C 241.609375 157.878906 241.628906 157.875 241.648438 157.871094 C 241.6875 157.867188 241.714844 157.855469 241.742188 157.839844 C 241.796875 157.816406 241.84375 157.785156 241.890625 157.753906 C 241.984375 157.691406 242.070312 157.621094 242.152344 157.550781 C 242.320312 157.410156 242.480469 157.261719 242.636719 157.113281 C 242.792969 156.960938 242.945312 156.804688 243.09375 156.648438 C 243.394531 156.335938 243.6875 156.015625 243.972656 155.691406 C 244.257812 155.367188 244.539062 155.039062 244.816406 154.703125 C 245.371094 154.039062 245.910156 153.359375 246.433594 152.671875 C 246.957031 151.980469 247.46875 151.28125 247.964844 150.574219 C 248.957031 149.15625 249.902344 147.699219 250.78125 146.210938 C 251.664062 144.722656 252.488281 143.195312 253.230469 141.628906 C 253.972656 140.066406 254.636719 138.460938 255.183594 136.816406 C 255.457031 135.996094 255.703125 135.164062 255.910156 134.324219 C 256.117188 133.480469 256.289062 132.628906 256.414062 131.773438 C 256.539062 130.914062 256.617188 130.050781 256.636719 129.183594 C 256.644531 128.75 256.640625 128.316406 256.621094 127.882812 C 256.609375 127.664062 256.597656 127.449219 256.578125 127.234375 C 256.558594 127.015625 256.535156 126.800781 256.507812 126.585938 C 256.445312 126.15625 256.367188 125.730469 256.277344 125.304688 C 256.183594 124.882812 256.082031 124.460938 255.96875 124.042969 C 255.738281 123.207031 255.464844 122.382812 255.136719 121.578125 C 254.808594 120.777344 254.425781 119.992188 253.957031 119.261719 C 253.722656 118.894531 253.46875 118.539062 253.1875 118.210938 C 252.902344 117.878906 252.59375 117.570312 252.25 117.300781 C 251.90625 117.027344 251.53125 116.796875 251.128906 116.628906 C 251.027344 116.589844 250.921875 116.550781 250.820312 116.515625 C 250.792969 116.507812 250.765625 116.5 250.742188 116.492188 C 250.714844 116.484375 250.6875 116.476562 250.660156 116.46875 L 250.621094 116.457031 L 250.582031 116.449219 C 250.566406 116.445312 250.554688 116.441406 250.539062 116.441406 L 250.5 116.433594 C 250.386719 116.414062 250.277344 116.410156 250.164062 116.417969 C 250.054688 116.425781 249.941406 116.445312 249.835938 116.480469 C 249.730469 116.515625 249.625 116.5625 249.53125 116.617188 C 249.433594 116.675781 249.34375 116.738281 249.261719 116.8125 C 249.09375 116.957031 248.949219 117.125 248.820312 117.300781 C 248.691406 117.476562 248.578125 117.667969 248.476562 117.859375 C 248.375 118.050781 248.285156 118.25 248.199219 118.449219 C 248.117188 118.652344 248.042969 118.855469 247.96875 119.058594 C 247.933594 119.160156 247.902344 119.265625 247.867188 119.367188 L 247.816406 119.523438 L 247.804688 119.5625 C 247.800781 119.574219 247.800781 119.589844 247.796875 119.601562 L 247.777344 119.683594 C 247.671875 120.101562 247.558594 120.515625 247.414062 120.921875 C 247.269531 121.328125 247.089844 121.71875 246.851562 122.078125 C 246.730469 122.253906 246.597656 122.421875 246.449219 122.574219 C 246.300781 122.726562 246.136719 122.867188 245.960938 122.988281 C 245.785156 123.109375 245.597656 123.214844 245.402344 123.300781 L 245.253906 123.363281 L 245.101562 123.425781 L 244.953125 123.484375 L 244.800781 123.550781 C 244.753906 123.570312 244.703125 123.59375 244.652344 123.613281 C 244.605469 123.636719 244.554688 123.660156 244.507812 123.683594 L 244.359375 123.753906 L 244.214844 123.828125 C 244.023438 123.929688 243.832031 124.035156 243.648438 124.152344 C 243.28125 124.382812 242.929688 124.640625 242.605469 124.929688 C 242.28125 125.21875 241.980469 125.535156 241.710938 125.875 C 241.171875 126.558594 240.757812 127.339844 240.5 128.171875 C 240.433594 128.378906 240.378906 128.589844 240.335938 128.800781 C 240.3125 128.90625 240.292969 129.015625 240.277344 129.121094 C 240.257812 129.230469 240.242188 129.335938 240.234375 129.445312 C 240.210938 129.660156 240.199219 129.878906 240.207031 130.097656 C 240.210938 130.316406 240.234375 130.535156 240.285156 130.746094 Z M 240.351562 130.730469 "/></g></g></g><g style="fill:#ca95aa;fill-opacity:1;"><g transform="translate(89.305333, 195.255548)"><path style="stroke:none" d="M 24.0625 -33.6875 C 22.425781 -33.644531 20.878906 -33.148438 19.421875 -32.203125 C 17.960938 -31.265625 16.691406 -30.023438 15.609375 -28.484375 C 14.523438 -26.953125 13.6875 -25.25 13.09375 -23.375 C 12.5 -21.5 12.234375 -19.609375 12.296875 -17.703125 C 14.234375 -16.703125 15.742188 -15.675781 16.828125 -14.625 C 17.910156 -13.570312 18.65625 -12.554688 19.0625 -11.578125 C 19.46875 -10.609375 19.632812 -9.726562 19.5625 -8.9375 C 19.488281 -8.15625 19.253906 -7.515625 18.859375 -7.015625 C 18.472656 -6.515625 18.015625 -6.226562 17.484375 -6.15625 C 16.578125 -6.03125 15.675781 -6.34375 14.78125 -7.09375 C 13.894531 -7.84375 13.140625 -9.066406 12.515625 -10.765625 C 11.898438 -12.460938 11.566406 -14.664062 11.515625 -17.375 C 9.660156 -18.113281 8.019531 -18.441406 6.59375 -18.359375 C 5.175781 -18.273438 4.007812 -17.90625 3.09375 -17.25 C 2.175781 -16.59375 1.515625 -15.765625 1.109375 -14.765625 C 0.703125 -13.765625 0.585938 -12.703125 0.765625 -11.578125 C 0.941406 -10.460938 1.425781 -9.40625 2.21875 -8.40625 L 1.28125 -8.40625 C 0.539062 -9.59375 0.140625 -10.800781 0.078125 -12.03125 C 0.0234375 -13.257812 0.253906 -14.382812 0.765625 -15.40625 C 1.273438 -16.4375 2.039062 -17.273438 3.0625 -17.921875 C 4.09375 -18.566406 5.328125 -18.910156 6.765625 -18.953125 C 8.210938 -19.003906 9.820312 -18.648438 11.59375 -17.890625 C 11.59375 -20.035156 11.925781 -22.078125 12.59375 -24.015625 C 13.257812 -25.960938 14.179688 -27.691406 15.359375 -29.203125 C 16.535156 -30.710938 17.878906 -31.914062 19.390625 -32.8125 C 20.910156 -33.707031 22.519531 -34.179688 24.21875 -34.234375 C 25.476562 -34.273438 26.539062 -33.960938 27.40625 -33.296875 C 28.28125 -32.628906 28.988281 -31.710938 29.53125 -30.546875 C 30.082031 -29.378906 30.488281 -28.035156 30.75 -26.515625 C 31.019531 -25.003906 31.144531 -23.40625 31.125 -21.71875 C 31.113281 -20.039062 31.003906 -18.378906 30.796875 -16.734375 C 31.316406 -19.359375 32.003906 -21.796875 32.859375 -24.046875 C 33.722656 -26.304688 34.78125 -28.242188 36.03125 -29.859375 C 37.28125 -31.484375 38.742188 -32.707031 40.421875 -33.53125 C 42.109375 -34.351562 44.035156 -34.644531 46.203125 -34.40625 C 47.585938 -34.257812 48.664062 -33.75 49.4375 -32.875 C 50.21875 -32.007812 50.609375 -30.890625 50.609375 -29.515625 C 50.609375 -28.148438 50.160156 -26.613281 49.265625 -24.90625 C 48.367188 -23.207031 46.960938 -21.421875 45.046875 -19.546875 C 43.128906 -17.671875 40.609375 -15.816406 37.484375 -13.984375 C 39.835938 -15.335938 41.929688 -16.125 43.765625 -16.34375 C 45.609375 -16.5625 47.171875 -16.332031 48.453125 -15.65625 C 49.742188 -14.988281 50.765625 -13.96875 51.515625 -12.59375 C 52.265625 -11.226562 52.738281 -9.617188 52.9375 -7.765625 C 53.144531 -5.921875 53.082031 -3.941406 52.75 -1.828125 C 53.375 -1.828125 54.179688 -1.882812 55.171875 -2 C 56.160156 -2.125 57.242188 -2.394531 58.421875 -2.8125 C 59.597656 -3.226562 60.789062 -3.878906 62 -4.765625 C 63.207031 -5.660156 64.347656 -6.882812 65.421875 -8.4375 C 65.484375 -8.507812 65.597656 -8.546875 65.765625 -8.546875 C 65.929688 -8.546875 66.015625 -8.5 66.015625 -8.40625 C 65.046875 -6.851562 63.972656 -5.613281 62.796875 -4.6875 C 61.628906 -3.757812 60.441406 -3.050781 59.234375 -2.5625 C 58.035156 -2.070312 56.867188 -1.742188 55.734375 -1.578125 C 54.609375 -1.410156 53.59375 -1.3125 52.6875 -1.28125 C 52.039062 1.71875 51.101562 4.1875 49.875 6.125 C 48.644531 8.070312 47.285156 9.546875 45.796875 10.546875 C 44.304688 11.546875 42.800781 12.144531 41.28125 12.34375 C 39.769531 12.550781 38.394531 12.421875 37.15625 11.953125 C 36.15625 11.421875 35.429688 10.707031 34.984375 9.8125 C 34.546875 8.914062 34.382812 7.941406 34.5 6.890625 C 34.625 5.847656 35.050781 4.800781 35.78125 3.75 C 36.507812 2.707031 37.546875 1.753906 38.890625 0.890625 C 40.242188 0.0351562 41.914062 -0.632812 43.90625 -1.125 C 45.894531 -1.613281 48.222656 -1.820312 50.890625 -1.75 C 51.179688 -3.1875 51.304688 -4.625 51.265625 -6.0625 C 51.234375 -7.5 51.019531 -8.847656 50.625 -10.109375 C 50.226562 -11.378906 49.648438 -12.46875 48.890625 -13.375 C 48.128906 -14.28125 47.175781 -14.914062 46.03125 -15.28125 C 44.882812 -15.65625 43.53125 -15.660156 41.96875 -15.296875 C 40.40625 -14.941406 38.632812 -14.125 36.65625 -12.84375 C 36.488281 -12.75 36.332031 -12.75 36.1875 -12.84375 C 36.050781 -12.9375 35.984375 -13.078125 35.984375 -13.265625 C 35.984375 -13.460938 36.101562 -13.628906 36.34375 -13.765625 C 39.5625 -16.441406 42.132812 -18.820312 44.0625 -20.90625 C 45.988281 -22.988281 47.394531 -24.804688 48.28125 -26.359375 C 49.164062 -27.910156 49.609375 -29.207031 49.609375 -30.25 C 49.609375 -31.300781 49.273438 -32.117188 48.609375 -32.703125 C 47.941406 -33.285156 47.035156 -33.660156 45.890625 -33.828125 C 42.078125 -34.140625 38.921875 -32.609375 36.421875 -29.234375 C 33.929688 -25.859375 32.078125 -20.894531 30.859375 -14.34375 C 29.984375 -9.550781 29.035156 -5.484375 28.015625 -2.140625 C 27.003906 1.191406 25.9375 3.898438 24.8125 5.984375 C 23.695312 8.078125 22.515625 9.640625 21.265625 10.671875 C 20.015625 11.710938 18.695312 12.328125 17.3125 12.515625 C 15.738281 12.734375 14.3125 12.609375 13.03125 12.140625 C 11.757812 11.671875 10.671875 10.976562 9.765625 10.0625 C 8.859375 9.144531 8.179688 8.082031 7.734375 6.875 C 7.296875 5.675781 7.117188 4.4375 7.203125 3.15625 C 7.285156 1.882812 7.664062 0.660156 8.34375 -0.515625 C 9.03125 -1.691406 10.046875 -2.722656 11.390625 -3.609375 C 12.734375 -4.492188 14.457031 -5.113281 16.5625 -5.46875 C 17.007812 -5.445312 17.25 -5.332031 17.28125 -5.125 C 17.320312 -4.925781 17.25 -4.765625 17.0625 -4.640625 C 16.875 -4.523438 16.660156 -4.585938 16.421875 -4.828125 C 14.484375 -4.441406 12.894531 -3.832031 11.65625 -3 C 10.414062 -2.164062 9.484375 -1.191406 8.859375 -0.078125 C 8.242188 1.023438 7.90625 2.171875 7.84375 3.359375 C 7.789062 4.554688 7.972656 5.703125 8.390625 6.796875 C 8.804688 7.890625 9.4375 8.859375 10.28125 9.703125 C 11.125 10.554688 12.140625 11.171875 13.328125 11.546875 C 14.523438 11.929688 15.851562 12.003906 17.3125 11.765625 C 18.164062 11.617188 19.039062 10.988281 19.9375 9.875 C 20.832031 8.769531 21.710938 7.3125 22.578125 5.5 C 23.453125 3.695312 24.269531 1.664062 25.03125 -0.59375 C 25.800781 -2.863281 26.484375 -5.242188 27.078125 -7.734375 C 27.671875 -10.234375 28.144531 -12.71875 28.5 -15.1875 C 28.863281 -17.65625 29.070312 -19.992188 29.125 -22.203125 C 29.1875 -24.421875 29.054688 -26.394531 28.734375 -28.125 C 28.410156 -29.851562 27.867188 -31.210938 27.109375 -32.203125 C 26.347656 -33.191406 25.332031 -33.6875 24.0625 -33.6875 Z M 50.75 -1.21875 C 48.125 -1.289062 45.84375 -1.085938 43.90625 -0.609375 C 41.976562 -0.128906 40.390625 0.519531 39.140625 1.34375 C 37.890625 2.164062 36.929688 3.078125 36.265625 4.078125 C 35.597656 5.078125 35.21875 6.054688 35.125 7.015625 C 35.03125 7.984375 35.179688 8.863281 35.578125 9.65625 C 35.984375 10.445312 36.609375 11.03125 37.453125 11.40625 C 38.992188 11.957031 40.476562 11.972656 41.90625 11.453125 C 43.34375 10.941406 44.65625 10.046875 45.84375 8.765625 C 47.039062 7.492188 48.0625 5.988281 48.90625 4.25 C 49.75 2.507812 50.363281 0.6875 50.75 -1.21875 Z M 17.703125 -6.65625 C 18.035156 -6.726562 18.328125 -6.988281 18.578125 -7.4375 C 18.828125 -7.894531 18.953125 -8.472656 18.953125 -9.171875 C 18.953125 -9.878906 18.742188 -10.664062 18.328125 -11.53125 C 17.910156 -12.40625 17.210938 -13.316406 16.234375 -14.265625 C 15.253906 -15.222656 13.910156 -16.164062 12.203125 -17.09375 C 12.316406 -14.800781 12.570312 -12.945312 12.96875 -11.53125 C 13.363281 -10.113281 13.832031 -9.03125 14.375 -8.28125 C 14.925781 -7.53125 15.492188 -7.039062 16.078125 -6.8125 C 16.660156 -6.582031 17.203125 -6.53125 17.703125 -6.65625 Z M 17.703125 -6.65625 "/></g></g><g style="fill:#ca95aa;fill-opacity:1;"><g transform="translate(154.563474, 195.255548)"><path style="stroke:none" d="M 4.4375 0.890625 C 5.03125 0.722656 5.660156 0.363281 6.328125 -0.1875 C 6.992188 -0.75 7.664062 -1.410156 8.34375 -2.171875 C 9.03125 -2.941406 9.675781 -3.734375 10.28125 -4.546875 C 10.882812 -5.359375 11.4375 -6.113281 11.9375 -6.8125 C 12.445312 -7.519531 12.851562 -8.0625 13.15625 -8.4375 C 13.226562 -8.507812 13.347656 -8.546875 13.515625 -8.546875 C 13.679688 -8.546875 13.765625 -8.5 13.765625 -8.40625 C 13.265625 -7.757812 12.65625 -6.941406 11.9375 -5.953125 C 11.226562 -4.960938 10.445312 -3.945312 9.59375 -2.90625 C 8.75 -1.875 7.890625 -0.957031 7.015625 -0.15625 C 6.148438 0.632812 5.3125 1.148438 4.5 1.390625 C 3.550781 1.460938 2.734375 1.25 2.046875 0.75 C 1.367188 0.25 0.832031 -0.445312 0.4375 -1.34375 C 0.0507812 -2.238281 -0.191406 -3.238281 -0.296875 -4.34375 C -0.410156 -5.457031 -0.367188 -6.59375 -0.171875 -7.75 C 0.015625 -8.90625 0.34375 -10 0.8125 -11.03125 C 1.289062 -12.070312 1.925781 -12.945312 2.71875 -13.65625 C 3.457031 -14.351562 4.164062 -14.765625 4.84375 -14.890625 C 5.519531 -15.023438 6.097656 -14.96875 6.578125 -14.71875 C 7.054688 -14.46875 7.375 -14.078125 7.53125 -13.546875 C 7.6875 -13.023438 7.617188 -12.445312 7.328125 -11.8125 C 7.046875 -11.1875 6.476562 -10.554688 5.625 -9.921875 C 4.78125 -9.296875 3.582031 -8.753906 2.03125 -8.296875 C 1.632812 -6.242188 1.5 -4.492188 1.625 -3.046875 C 1.757812 -1.609375 2.082031 -0.546875 2.59375 0.140625 C 3.101562 0.835938 3.71875 1.085938 4.4375 0.890625 Z M 2.21875 -8.90625 C 3.738281 -9.382812 4.875 -9.921875 5.625 -10.515625 C 6.382812 -11.109375 6.851562 -11.691406 7.03125 -12.265625 C 7.207031 -12.835938 7.195312 -13.320312 7 -13.71875 C 6.8125 -14.113281 6.539062 -14.34375 6.1875 -14.40625 C 5.6875 -14.457031 5.222656 -14.296875 4.796875 -13.921875 C 4.367188 -13.554688 3.992188 -13.082031 3.671875 -12.5 C 3.347656 -11.914062 3.0625 -11.300781 2.8125 -10.65625 C 2.5625 -10.007812 2.363281 -9.425781 2.21875 -8.90625 Z M 2.21875 -8.90625 "/></g></g><g style="fill:#ca95aa;fill-opacity:1;"><g transform="translate(167.615109, 195.255548)"><path style="stroke:none" d="M 4.9375 4.578125 C 4.007812 5.265625 3.1875 5.609375 2.46875 5.609375 C 1.894531 5.609375 1.425781 5.410156 1.0625 5.015625 C 0.707031 4.628906 0.425781 4.125 0.21875 3.5 C 0.0195312 2.882812 -0.125 2.226562 -0.21875 1.53125 C -0.3125 0.84375 -0.367188 0.195312 -0.390625 -0.40625 C -0.410156 -1.019531 -0.421875 -1.503906 -0.421875 -1.859375 C -0.453125 -3.410156 -0.40625 -5.078125 -0.28125 -6.859375 C -0.164062 -8.648438 0.0351562 -10.453125 0.328125 -12.265625 C 0.679688 -14.503906 1.144531 -16.675781 1.71875 -18.78125 C 2.289062 -20.894531 2.960938 -22.796875 3.734375 -24.484375 C 4.515625 -26.179688 5.378906 -27.523438 6.328125 -28.515625 C 7.285156 -29.503906 8.3125 -30 9.40625 -30 C 10.125 -30 10.71875 -29.722656 11.1875 -29.171875 C 11.664062 -28.628906 11.921875 -27.816406 11.953125 -26.734375 C 11.992188 -25.648438 11.726562 -24.296875 11.15625 -22.671875 C 10.582031 -21.054688 9.613281 -19.1875 8.25 -17.0625 C 6.894531 -14.9375 5.050781 -12.5625 2.71875 -9.9375 C 2.550781 -9.195312 2.34375 -8.132812 2.09375 -6.75 C 1.84375 -5.375 1.644531 -3.945312 1.5 -2.46875 C 1.457031 -2.0625 1.40625 -1.492188 1.34375 -0.765625 C 1.28125 -0.0351562 1.257812 0.722656 1.28125 1.515625 C 1.3125 2.316406 1.414062 3.019531 1.59375 3.625 C 1.769531 4.238281 2.070312 4.644531 2.5 4.84375 C 2.925781 5.050781 3.523438 4.90625 4.296875 4.40625 C 4.910156 4 5.585938 3.359375 6.328125 2.484375 C 7.066406 1.617188 7.820312 0.648438 8.59375 -0.421875 C 9.375 -1.492188 10.117188 -2.570312 10.828125 -3.65625 C 11.546875 -4.75 12.1875 -5.722656 12.75 -6.578125 C 13.3125 -7.441406 13.75 -8.0625 14.0625 -8.4375 C 14.125 -8.507812 14.238281 -8.546875 14.40625 -8.546875 C 14.570312 -8.546875 14.65625 -8.5 14.65625 -8.40625 C 14.257812 -7.882812 13.773438 -7.1875 13.203125 -6.3125 C 12.628906 -5.4375 12 -4.472656 11.3125 -3.421875 C 10.632812 -2.378906 9.925781 -1.332031 9.1875 -0.28125 C 8.445312 0.757812 7.710938 1.707031 6.984375 2.5625 C 6.265625 3.425781 5.582031 4.097656 4.9375 4.578125 Z M 2.828125 -10.875 C 4.972656 -13.425781 6.671875 -15.710938 7.921875 -17.734375 C 9.171875 -19.765625 10.0625 -21.523438 10.59375 -23.015625 C 11.132812 -24.503906 11.394531 -25.738281 11.375 -26.71875 C 11.351562 -27.695312 11.144531 -28.410156 10.75 -28.859375 C 10.351562 -29.316406 9.847656 -29.519531 9.234375 -29.46875 C 8.703125 -29.394531 8.171875 -28.960938 7.640625 -28.171875 C 7.117188 -27.390625 6.609375 -26.367188 6.109375 -25.109375 C 5.609375 -23.847656 5.144531 -22.421875 4.71875 -20.828125 C 4.289062 -19.242188 3.914062 -17.59375 3.59375 -15.875 C 3.269531 -14.164062 3.015625 -12.5 2.828125 -10.875 Z M 2.828125 -10.875 "/></g></g><g style="fill:#ca95aa;fill-opacity:1;"><g transform="translate(181.524926, 195.255548)"><path style="stroke:none" d="M 4.328125 2.140625 C 4.941406 1.734375 5.59375 1.171875 6.28125 0.453125 C 6.976562 -0.253906 7.671875 -1.035156 8.359375 -1.890625 C 9.054688 -2.753906 9.726562 -3.609375 10.375 -4.453125 C 11.019531 -5.296875 11.59375 -6.078125 12.09375 -6.796875 C 12.59375 -7.515625 13 -8.0625 13.3125 -8.4375 C 13.375 -8.507812 13.488281 -8.546875 13.65625 -8.546875 C 13.820312 -8.546875 13.90625 -8.5 13.90625 -8.40625 C 13.40625 -7.757812 12.816406 -6.953125 12.140625 -5.984375 C 11.460938 -5.023438 10.722656 -4.019531 9.921875 -2.96875 C 9.128906 -1.914062 8.304688 -0.921875 7.453125 0.015625 C 6.609375 0.960938 5.78125 1.734375 4.96875 2.328125 C 3.851562 3.179688 2.765625 3.460938 1.703125 3.171875 C 0.640625 2.890625 -0.0664062 2 -0.421875 0.5 C -0.585938 -0.144531 -0.679688 -0.9375 -0.703125 -1.875 C -0.734375 -2.820312 -0.703125 -3.789062 -0.609375 -4.78125 C -0.515625 -5.769531 -0.398438 -6.6875 -0.265625 -7.53125 C -0.140625 -8.375 -0.00390625 -9.023438 0.140625 -9.484375 C 0.398438 -10.117188 0.75 -10.578125 1.1875 -10.859375 C 1.632812 -11.148438 2.023438 -11.253906 2.359375 -11.171875 C 2.691406 -11.085938 2.8125 -10.796875 2.71875 -10.296875 C 2.570312 -9.390625 2.40625 -8.390625 2.21875 -7.296875 C 2.03125 -6.203125 1.863281 -5.101562 1.71875 -4 C 1.570312 -2.90625 1.488281 -1.878906 1.46875 -0.921875 C 1.445312 0.0234375 1.507812 0.8125 1.65625 1.4375 C 1.8125 2.070312 2.101562 2.472656 2.53125 2.640625 C 2.96875 2.804688 3.566406 2.640625 4.328125 2.140625 Z M 1.53125 -14.765625 C 1.726562 -15.316406 1.988281 -15.734375 2.3125 -16.015625 C 2.632812 -16.304688 2.992188 -16.378906 3.390625 -16.234375 C 3.160156 -16.140625 2.96875 -15.929688 2.8125 -15.609375 C 2.65625 -15.285156 2.53125 -14.957031 2.4375 -14.625 C 2.382812 -14.414062 2.269531 -14.285156 2.09375 -14.234375 C 1.914062 -14.179688 1.757812 -14.203125 1.625 -14.296875 C 1.5 -14.398438 1.46875 -14.554688 1.53125 -14.765625 Z M 1.53125 -14.765625 "/></g></g><g style="fill:#ca95aa;fill-opacity:1;"><g transform="translate(194.791098, 195.255548)"><path style="stroke:none" d="M 3.046875 9.015625 C 2.066406 9.222656 1.222656 9.117188 0.515625 8.703125 C -0.179688 8.285156 -0.679688 7.679688 -0.984375 6.890625 C -1.285156 6.109375 -1.328125 5.242188 -1.109375 4.296875 C -0.890625 3.359375 -0.351562 2.460938 0.5 1.609375 C 1.351562 0.753906 2.582031 0.0507812 4.1875 -0.5 C 3.925781 -1 3.570312 -1.617188 3.125 -2.359375 C 2.6875 -3.097656 2.234375 -3.890625 1.765625 -4.734375 C 1.304688 -5.585938 0.882812 -6.394531 0.5 -7.15625 C -0.21875 -8.601562 -0.484375 -9.898438 -0.296875 -11.046875 C -0.117188 -12.191406 0.382812 -13.125 1.21875 -13.84375 C 2.050781 -14.5625 3.0625 -14.976562 4.25 -15.09375 C 5.207031 -15.207031 6 -15.003906 6.625 -14.484375 C 7.257812 -13.960938 7.632812 -13.273438 7.75 -12.421875 C 7.875 -11.578125 7.628906 -10.703125 7.015625 -9.796875 L 6.328125 -9.796875 C 6.828125 -10.441406 7.097656 -11.070312 7.140625 -11.6875 C 7.191406 -12.3125 7.085938 -12.863281 6.828125 -13.34375 C 6.566406 -13.820312 6.207031 -14.175781 5.75 -14.40625 C 5.300781 -14.644531 4.816406 -14.695312 4.296875 -14.5625 C 3.523438 -14.363281 2.867188 -13.988281 2.328125 -13.4375 C 1.796875 -12.894531 1.476562 -12.210938 1.375 -11.390625 C 1.269531 -10.566406 1.488281 -9.644531 2.03125 -8.625 C 2.65625 -7.445312 3.28125 -6.335938 3.90625 -5.296875 C 4.539062 -4.265625 5.226562 -3 5.96875 -1.5 C 7 -1.90625 8.078125 -2.421875 9.203125 -3.046875 C 10.335938 -3.679688 11.4375 -4.445312 12.5 -5.34375 C 13.5625 -6.238281 14.484375 -7.257812 15.265625 -8.40625 C 15.484375 -8.59375 15.675781 -8.660156 15.84375 -8.609375 C 16.007812 -8.566406 16.046875 -8.488281 15.953125 -8.375 C 14.921875 -6.9375 13.816406 -5.738281 12.640625 -4.78125 C 11.460938 -3.832031 10.3125 -3.066406 9.1875 -2.484375 C 8.070312 -1.898438 7.070312 -1.429688 6.1875 -1.078125 C 6.632812 -0.046875 6.9375 1.003906 7.09375 2.078125 C 7.25 3.148438 7.222656 4.164062 7.015625 5.125 C 6.816406 6.09375 6.394531 6.914062 5.75 7.59375 C 5.113281 8.28125 4.210938 8.753906 3.046875 9.015625 Z M 3.296875 8.4375 C 3.890625 8.226562 4.363281 7.695312 4.71875 6.84375 C 5.070312 6 5.238281 4.960938 5.21875 3.734375 C 5.195312 2.503906 4.910156 1.234375 4.359375 -0.078125 C 2.835938 0.472656 1.679688 1.164062 0.890625 2 C 0.109375 2.832031 -0.375 3.679688 -0.5625 4.546875 C -0.757812 5.421875 -0.707031 6.203125 -0.40625 6.890625 C -0.113281 7.585938 0.351562 8.097656 1 8.421875 C 1.644531 8.742188 2.410156 8.75 3.296875 8.4375 Z M 3.296875 8.4375 "/></g></g><g style="fill:#ca95aa;fill-opacity:1;"><g transform="translate(210.023961, 195.255548)"><path style="stroke:none" d="M 3.046875 9.015625 C 2.066406 9.222656 1.222656 9.117188 0.515625 8.703125 C -0.179688 8.285156 -0.679688 7.679688 -0.984375 6.890625 C -1.285156 6.109375 -1.328125 5.242188 -1.109375 4.296875 C -0.890625 3.359375 -0.351562 2.460938 0.5 1.609375 C 1.351562 0.753906 2.582031 0.0507812 4.1875 -0.5 C 3.925781 -1 3.570312 -1.617188 3.125 -2.359375 C 2.6875 -3.097656 2.234375 -3.890625 1.765625 -4.734375 C 1.304688 -5.585938 0.882812 -6.394531 0.5 -7.15625 C -0.21875 -8.601562 -0.484375 -9.898438 -0.296875 -11.046875 C -0.117188 -12.191406 0.382812 -13.125 1.21875 -13.84375 C 2.050781 -14.5625 3.0625 -14.976562 4.25 -15.09375 C 5.207031 -15.207031 6 -15.003906 6.625 -14.484375 C 7.257812 -13.960938 7.632812 -13.273438 7.75 -12.421875 C 7.875 -11.578125 7.628906 -10.703125 7.015625 -9.796875 L 6.328125 -9.796875 C 6.828125 -10.441406 7.097656 -11.070312 7.140625 -11.6875 C 7.191406 -12.3125 7.085938 -12.863281 6.828125 -13.34375 C 6.566406 -13.820312 6.207031 -14.175781 5.75 -14.40625 C 5.300781 -14.644531 4.816406 -14.695312 4.296875 -14.5625 C 3.523438 -14.363281 2.867188 -13.988281 2.328125 -13.4375 C 1.796875 -12.894531 1.476562 -12.210938 1.375 -11.390625 C 1.269531 -10.566406 1.488281 -9.644531 2.03125 -8.625 C 2.65625 -7.445312 3.28125 -6.335938 3.90625 -5.296875 C 4.539062 -4.265625 5.226562 -3 5.96875 -1.5 C 7 -1.90625 8.078125 -2.421875 9.203125 -3.046875 C 10.335938 -3.679688 11.4375 -4.445312 12.5 -5.34375 C 13.5625 -6.238281 14.484375 -7.257812 15.265625 -8.40625 C 15.484375 -8.59375 15.675781 -8.660156 15.84375 -8.609375 C 16.007812 -8.566406 16.046875 -8.488281 15.953125 -8.375 C 14.921875 -6.9375 13.816406 -5.738281 12.640625 -4.78125 C 11.460938 -3.832031 10.3125 -3.066406 9.1875 -2.484375 C 8.070312 -1.898438 7.070312 -1.429688 6.1875 -1.078125 C 6.632812 -0.046875 6.9375 1.003906 7.09375 2.078125 C 7.25 3.148438 7.222656 4.164062 7.015625 5.125 C 6.816406 6.09375 6.394531 6.914062 5.75 7.59375 C 5.113281 8.28125 4.210938 8.753906 3.046875 9.015625 Z M 3.296875 8.4375 C 3.890625 8.226562 4.363281 7.695312 4.71875 6.84375 C 5.070312 6 5.238281 4.960938 5.21875 3.734375 C 5.195312 2.503906 4.910156 1.234375 4.359375 -0.078125 C 2.835938 0.472656 1.679688 1.164062 0.890625 2 C 0.109375 2.832031 -0.375 3.679688 -0.5625 4.546875 C -0.757812 5.421875 -0.707031 6.203125 -0.40625 6.890625 C -0.113281 7.585938 0.351562 8.097656 1 8.421875 C 1.644531 8.742188 2.410156 8.75 3.296875 8.4375 Z M 3.296875 8.4375 "/></g></g><g style="fill:#ca95aa;fill-opacity:1;"><g transform="translate(225.256816, 195.255548)"><path style="stroke:none" d="M 4.328125 2.140625 C 4.941406 1.734375 5.59375 1.171875 6.28125 0.453125 C 6.976562 -0.253906 7.671875 -1.035156 8.359375 -1.890625 C 9.054688 -2.753906 9.726562 -3.609375 10.375 -4.453125 C 11.019531 -5.296875 11.59375 -6.078125 12.09375 -6.796875 C 12.59375 -7.515625 13 -8.0625 13.3125 -8.4375 C 13.375 -8.507812 13.488281 -8.546875 13.65625 -8.546875 C 13.820312 -8.546875 13.90625 -8.5 13.90625 -8.40625 C 13.40625 -7.757812 12.816406 -6.953125 12.140625 -5.984375 C 11.460938 -5.023438 10.722656 -4.019531 9.921875 -2.96875 C 9.128906 -1.914062 8.304688 -0.921875 7.453125 0.015625 C 6.609375 0.960938 5.78125 1.734375 4.96875 2.328125 C 3.851562 3.179688 2.765625 3.460938 1.703125 3.171875 C 0.640625 2.890625 -0.0664062 2 -0.421875 0.5 C -0.585938 -0.144531 -0.675781 -0.984375 -0.6875 -2.015625 C -0.707031 -3.054688 -0.660156 -4.128906 -0.546875 -5.234375 C -0.441406 -6.347656 -0.316406 -7.367188 -0.171875 -8.296875 C -0.0351562 -9.222656 0.101562 -9.914062 0.25 -10.375 C 0.507812 -11.019531 0.863281 -11.488281 1.3125 -11.78125 C 1.769531 -12.082031 2.171875 -12.191406 2.515625 -12.109375 C 2.867188 -12.023438 2.992188 -11.734375 2.890625 -11.234375 C 2.753906 -10.328125 2.582031 -9.304688 2.375 -8.171875 C 2.175781 -7.035156 2 -5.878906 1.84375 -4.703125 C 1.6875 -3.523438 1.585938 -2.421875 1.546875 -1.390625 C 1.515625 -0.367188 1.570312 0.492188 1.71875 1.203125 C 1.863281 1.921875 2.144531 2.378906 2.5625 2.578125 C 2.976562 2.785156 3.566406 2.640625 4.328125 2.140625 Z M 2.21875 -14.40625 C 1.90625 -14.40625 1.6875 -14.5625 1.5625 -14.875 C 1.445312 -15.1875 1.425781 -15.53125 1.5 -15.90625 C 1.570312 -16.289062 1.71875 -16.628906 1.9375 -16.921875 C 2.164062 -17.222656 2.460938 -17.351562 2.828125 -17.3125 C 3.066406 -17.238281 3.210938 -17.050781 3.265625 -16.75 C 3.328125 -16.457031 3.320312 -16.125 3.25 -15.75 C 3.175781 -15.382812 3.050781 -15.066406 2.875 -14.796875 C 2.695312 -14.535156 2.476562 -14.40625 2.21875 -14.40625 Z M 2.21875 -14.40625 "/></g></g><g style="fill:#ca95aa;fill-opacity:1;"><g transform="translate(238.522996, 195.255548)"><path style="stroke:none" d="M 16.171875 0.5 C 16.140625 1.519531 16.460938 2.210938 17.140625 2.578125 C 17.828125 2.953125 18.679688 2.804688 19.703125 2.140625 C 20.328125 1.734375 20.984375 1.171875 21.671875 0.453125 C 22.367188 -0.253906 23.0625 -1.035156 23.75 -1.890625 C 24.4375 -2.753906 25.101562 -3.609375 25.75 -4.453125 C 26.394531 -5.296875 26.96875 -6.078125 27.46875 -6.796875 C 27.96875 -7.515625 28.375 -8.0625 28.6875 -8.4375 C 28.757812 -8.507812 28.878906 -8.546875 29.046875 -8.546875 C 29.210938 -8.546875 29.296875 -8.5 29.296875 -8.40625 C 28.796875 -7.757812 28.203125 -6.953125 27.515625 -5.984375 C 26.835938 -5.023438 26.097656 -4.019531 25.296875 -2.96875 C 24.503906 -1.914062 23.679688 -0.921875 22.828125 0.015625 C 21.984375 0.960938 21.15625 1.734375 20.34375 2.328125 C 19.601562 2.898438 18.832031 3.21875 18.03125 3.28125 C 17.238281 3.351562 16.546875 3.160156 15.953125 2.703125 C 15.359375 2.253906 14.960938 1.53125 14.765625 0.53125 C 14.597656 -0.46875 14.601562 -1.566406 14.78125 -2.765625 C 14.96875 -3.972656 15.238281 -5.179688 15.59375 -6.390625 C 15.945312 -7.609375 16.300781 -8.722656 16.65625 -9.734375 C 17.019531 -10.753906 17.296875 -11.59375 17.484375 -12.25 C 17.679688 -12.90625 17.695312 -13.257812 17.53125 -13.3125 C 17 -13.351562 16.4375 -13.101562 15.84375 -12.5625 C 15.25 -12.03125 14.644531 -11.300781 14.03125 -10.375 C 13.425781 -9.445312 12.832031 -8.425781 12.25 -7.3125 C 11.664062 -6.207031 11.097656 -5.097656 10.546875 -3.984375 C 10.003906 -2.878906 9.492188 -1.875 9.015625 -0.96875 C 8.679688 -0.5625 8.3125 -0.425781 7.90625 -0.5625 C 7.5 -0.707031 7.269531 -1.066406 7.21875 -1.640625 C 7.15625 -2.335938 7.1875 -3.179688 7.3125 -4.171875 C 7.445312 -5.160156 7.613281 -6.191406 7.8125 -7.265625 C 8.019531 -8.335938 8.210938 -9.335938 8.390625 -10.265625 C 8.566406 -11.191406 8.675781 -11.953125 8.71875 -12.546875 C 8.769531 -13.148438 8.703125 -13.453125 8.515625 -13.453125 C 7.296875 -13.472656 6.085938 -12.203125 4.890625 -9.640625 C 3.703125 -7.078125 2.285156 -3.066406 0.640625 2.390625 C 0.566406 2.703125 0.34375 2.960938 -0.03125 3.171875 C -0.414062 3.390625 -0.773438 3.472656 -1.109375 3.421875 C -1.441406 3.378906 -1.597656 3.117188 -1.578125 2.640625 C -1.503906 1.691406 -1.398438 0.707031 -1.265625 -0.3125 C -1.140625 -1.34375 -0.972656 -2.519531 -0.765625 -3.84375 C -0.566406 -5.164062 -0.320312 -6.757812 -0.03125 -8.625 C 0.0078125 -8.957031 0.164062 -9.226562 0.4375 -9.4375 C 0.71875 -9.65625 1.019531 -9.804688 1.34375 -9.890625 C 1.664062 -9.972656 1.9375 -9.945312 2.15625 -9.8125 C 2.382812 -9.6875 2.488281 -9.421875 2.46875 -9.015625 C 2.25 -8.085938 2.070312 -7.300781 1.9375 -6.65625 C 1.8125 -6.007812 1.703125 -5.410156 1.609375 -4.859375 C 1.515625 -4.316406 1.421875 -3.738281 1.328125 -3.125 C 1.234375 -2.519531 1.113281 -1.800781 0.96875 -0.96875 C 1.894531 -3.6875 2.722656 -6 3.453125 -7.90625 C 4.179688 -9.8125 4.941406 -11.273438 5.734375 -12.296875 C 6.535156 -13.328125 7.472656 -13.863281 8.546875 -13.90625 C 9.453125 -13.84375 10.066406 -13.453125 10.390625 -12.734375 C 10.710938 -12.015625 10.816406 -11.078125 10.703125 -9.921875 C 10.597656 -8.765625 10.375 -7.492188 10.03125 -6.109375 C 9.6875 -4.734375 9.3125 -3.34375 8.90625 -1.9375 C 9.21875 -2.476562 9.59375 -3.210938 10.03125 -4.140625 C 10.46875 -5.078125 10.960938 -6.082031 11.515625 -7.15625 C 12.066406 -8.226562 12.65625 -9.257812 13.28125 -10.25 C 13.914062 -11.238281 14.566406 -12.0625 15.234375 -12.71875 C 15.898438 -13.375 16.582031 -13.738281 17.28125 -13.8125 C 17.539062 -13.832031 17.859375 -13.765625 18.234375 -13.609375 C 18.617188 -13.453125 18.929688 -13.128906 19.171875 -12.640625 C 19.410156 -12.148438 19.421875 -11.414062 19.203125 -10.4375 C 18.960938 -9.300781 18.601562 -8.09375 18.125 -6.8125 C 17.65625 -5.539062 17.21875 -4.269531 16.8125 -3 C 16.40625 -1.738281 16.191406 -0.570312 16.171875 0.5 Z M 16.171875 0.5 "/></g></g><g style="fill:#ca95aa;fill-opacity:1;"><g transform="translate(267.022031, 195.255548)"><path style="stroke:none" d="M 9.6875 2.140625 C 10.3125 1.734375 10.96875 1.175781 11.65625 0.46875 C 12.351562 -0.226562 13.050781 -1.003906 13.75 -1.859375 C 14.457031 -2.710938 15.125 -3.566406 15.75 -4.421875 C 16.382812 -5.285156 16.953125 -6.078125 17.453125 -6.796875 C 17.953125 -7.515625 18.359375 -8.0625 18.671875 -8.4375 C 18.742188 -8.507812 18.863281 -8.546875 19.03125 -8.546875 C 19.195312 -8.546875 19.28125 -8.5 19.28125 -8.40625 C 18.78125 -7.757812 18.1875 -6.953125 17.5 -5.984375 C 16.820312 -5.023438 16.082031 -4.019531 15.28125 -2.96875 C 14.488281 -1.914062 13.664062 -0.921875 12.8125 0.015625 C 11.96875 0.960938 11.144531 1.734375 10.34375 2.328125 C 9.40625 3.015625 8.613281 3.332031 7.96875 3.28125 C 7.332031 3.238281 6.820312 2.921875 6.4375 2.328125 C 6.050781 1.734375 5.78125 0.953125 5.625 -0.015625 C 5.476562 -0.984375 5.429688 -2.050781 5.484375 -3.21875 C 5.546875 -4.382812 5.703125 -5.5625 5.953125 -6.75 C 6.203125 -7.945312 6.53125 -9.070312 6.9375 -10.125 C 5.71875 -7.78125 4.773438 -6.039062 4.109375 -4.90625 C 3.441406 -3.78125 2.859375 -3.160156 2.359375 -3.046875 C 1.765625 -2.921875 1.238281 -3.078125 0.78125 -3.515625 C 0.332031 -3.960938 0.0234375 -4.617188 -0.140625 -5.484375 C -0.304688 -6.359375 -0.257812 -7.378906 0 -8.546875 C 0.28125 -9.785156 0.753906 -10.769531 1.421875 -11.5 C 2.097656 -12.226562 2.832031 -12.753906 3.625 -13.078125 C 4.425781 -13.398438 5.207031 -13.566406 5.96875 -13.578125 C 6.738281 -13.585938 7.375 -13.484375 7.875 -13.265625 L 8.1875 -13.90625 C 8.425781 -14.4375 8.765625 -14.757812 9.203125 -14.875 C 9.648438 -15 10.039062 -14.984375 10.375 -14.828125 C 10.707031 -14.671875 10.835938 -14.445312 10.765625 -14.15625 C 10.429688 -13.59375 10.078125 -12.828125 9.703125 -11.859375 C 9.335938 -10.890625 8.984375 -9.804688 8.640625 -8.609375 C 8.296875 -7.421875 8 -6.210938 7.75 -4.984375 C 7.5 -3.753906 7.320312 -2.609375 7.21875 -1.546875 C 7.125 -0.492188 7.132812 0.398438 7.25 1.140625 C 7.375 1.878906 7.625 2.351562 8 2.5625 C 8.382812 2.78125 8.945312 2.640625 9.6875 2.140625 Z M 7.65625 -12.765625 C 6.75 -13.128906 5.941406 -13.113281 5.234375 -12.71875 C 4.535156 -12.320312 3.945312 -11.710938 3.46875 -10.890625 C 2.988281 -10.066406 2.628906 -9.171875 2.390625 -8.203125 C 2.148438 -7.242188 2.046875 -6.351562 2.078125 -5.53125 C 2.117188 -4.707031 2.296875 -4.113281 2.609375 -3.75 C 2.796875 -3.894531 3.082031 -4.28125 3.46875 -4.90625 C 3.851562 -5.539062 4.28125 -6.3125 4.75 -7.21875 C 5.226562 -8.125 5.71875 -9.066406 6.21875 -10.046875 C 6.71875 -11.023438 7.195312 -11.929688 7.65625 -12.765625 Z M 7.65625 -12.765625 "/></g></g><g style="fill:#ca95aa;fill-opacity:1;"><g transform="translate(150.351704, 233.734878)"><path style="stroke:none" d="M 0.984375 -13.515625 L 1 -13.8125 L 5.234375 -13.8125 C 8.078125 -13.8125 9.5 -12.703125 9.5 -10.484375 C 9.5 -9.628906 8.929688 -8.691406 7.796875 -7.671875 C 9.460938 -7.265625 10.296875 -6.066406 10.296875 -4.078125 C 10.296875 -2.523438 9.90625 -1.457031 9.125 -0.875 C 8.34375 -0.289062 7.144531 0 5.53125 0 L 4.953125 0 L 0.984375 0.015625 L 1 -0.25 L 2.03125 -0.390625 C 2.164062 -0.410156 2.242188 -0.5 2.265625 -0.65625 L 2.265625 -13.125 C 2.242188 -13.289062 2.164062 -13.382812 2.03125 -13.40625 Z M 5.921875 -7.5625 L 3.609375 -7.5625 L 3.609375 -0.296875 L 5.421875 -0.296875 C 7.773438 -0.296875 8.953125 -1.53125 8.953125 -4 C 8.953125 -5.269531 8.695312 -6.179688 8.1875 -6.734375 C 7.6875 -7.285156 6.929688 -7.5625 5.921875 -7.5625 Z M 6.015625 -7.859375 C 6.503906 -7.859375 6.925781 -7.832031 7.28125 -7.78125 C 7.863281 -8.6875 8.15625 -9.546875 8.15625 -10.359375 C 8.15625 -12.460938 7.144531 -13.515625 5.125 -13.515625 L 3.609375 -13.515625 L 3.609375 -7.859375 Z M 6.015625 -7.859375 "/></g></g><g style="fill:#ca95aa;fill-opacity:1;"><g transform="translate(161.139991, 233.734878)"><path style="stroke:none" d="M 12.40625 -13.8125 C 12.40625 -13.800781 12.414062 -13.703125 12.4375 -13.515625 L 11.3125 -13.421875 L 7.078125 -4.65625 L 7.078125 -0.375 L 8.53125 -0.296875 C 8.53125 -0.285156 8.519531 -0.1875 8.5 0 L 4.5625 0.015625 C 4.5625 -0.0976562 4.566406 -0.1875 4.578125 -0.25 L 5.609375 -0.390625 C 5.734375 -0.410156 5.8125 -0.5 5.84375 -0.65625 L 5.84375 -4.65625 L 1.40625 -13.328125 C 1.351562 -13.359375 1.300781 -13.390625 1.25 -13.421875 L 0.421875 -13.5 C 0.398438 -13.570312 0.390625 -13.671875 0.390625 -13.796875 L 4.375 -13.8125 C 4.375 -13.800781 4.382812 -13.703125 4.40625 -13.515625 L 2.78125 -13.375 L 6.875 -5 L 10.5625 -13.078125 C 10.5625 -13.242188 10.5 -13.332031 10.375 -13.34375 L 8.578125 -13.5 C 8.566406 -13.570312 8.5625 -13.671875 8.5625 -13.796875 Z M 12.40625 -13.8125 "/></g></g><g style="fill:#ca95aa;fill-opacity:1;"><g transform="translate(173.861094, 233.734878)"><path style="stroke:none" d=""/></g></g><g style="fill:#ca95aa;fill-opacity:1;"><g transform="translate(179.758166, 233.734878)"><path style="stroke:none" d="M 0.984375 -13.515625 L 1 -13.8125 L 5.234375 -13.8125 C 8.078125 -13.8125 9.5 -12.703125 9.5 -10.484375 C 9.5 -9.628906 8.929688 -8.691406 7.796875 -7.671875 C 9.460938 -7.265625 10.296875 -6.066406 10.296875 -4.078125 C 10.296875 -2.523438 9.90625 -1.457031 9.125 -0.875 C 8.34375 -0.289062 7.144531 0 5.53125 0 L 4.953125 0 L 0.984375 0.015625 L 1 -0.25 L 2.03125 -0.390625 C 2.164062 -0.410156 2.242188 -0.5 2.265625 -0.65625 L 2.265625 -13.125 C 2.242188 -13.289062 2.164062 -13.382812 2.03125 -13.40625 Z M 5.921875 -7.5625 L 3.609375 -7.5625 L 3.609375 -0.296875 L 5.421875 -0.296875 C 7.773438 -0.296875 8.953125 -1.53125 8.953125 -4 C 8.953125 -5.269531 8.695312 -6.179688 8.1875 -6.734375 C 7.6875 -7.285156 6.929688 -7.5625 5.921875 -7.5625 Z M 6.015625 -7.859375 C 6.503906 -7.859375 6.925781 -7.832031 7.28125 -7.78125 C 7.863281 -8.6875 8.15625 -9.546875 8.15625 -10.359375 C 8.15625 -12.460938 7.144531 -13.515625 5.125 -13.515625 L 3.609375 -13.515625 L 3.609375 -7.859375 Z M 6.015625 -7.859375 "/></g></g><g style="fill:#ca95aa;fill-opacity:1;"><g transform="translate(190.546453, 233.734878)"><path style="stroke:none" d="M 0.90625 -13.515625 L 0.921875 -13.8125 L 9.375 -13.8125 L 9.359375 -13.75 L 9.609375 -10.96875 L 9.21875 -10.8125 L 8.90625 -13.421875 L 3.53125 -13.421875 L 3.53125 -7.046875 L 8.25 -7.046875 C 8.3125 -7.035156 8.367188 -7.050781 8.421875 -7.09375 C 8.472656 -7.132812 8.5 -7.195312 8.5 -7.28125 L 8.578125 -8.640625 L 8.90625 -8.6875 L 8.90625 -5.3125 C 8.882812 -5.3125 8.785156 -5.300781 8.609375 -5.28125 L 8.53125 -6.65625 L 3.53125 -6.65625 L 3.53125 -0.390625 L 9.4375 -0.390625 L 9.8125 -3.546875 L 10.1875 -3.453125 L 9.890625 0 L 4.875 0 L 0.90625 0.015625 L 0.921875 -0.25 L 1.953125 -0.390625 C 2.085938 -0.410156 2.164062 -0.5 2.1875 -0.65625 L 2.1875 -13.140625 C 2.164062 -13.296875 2.085938 -13.382812 1.953125 -13.40625 Z M 0.90625 -13.515625 "/></g></g><g style="fill:#ca95aa;fill-opacity:1;"><g transform="translate(201.216397, 233.734878)"><path style="stroke:none" d="M 4.953125 -13.8125 C 4.953125 -13.800781 4.957031 -13.703125 4.96875 -13.515625 L 3.609375 -13.40625 L 3.609375 -0.390625 L 9.0625 -0.390625 L 9.453125 -3.546875 L 9.828125 -3.453125 L 9.53125 0 L 4.953125 0 L 0.984375 0.015625 L 1 -0.25 L 2.03125 -0.390625 C 2.164062 -0.410156 2.242188 -0.5 2.265625 -0.65625 L 2.265625 -13.140625 C 2.242188 -13.296875 2.164062 -13.382812 2.03125 -13.40625 L 1 -13.5 L 0.984375 -13.796875 Z M 4.953125 -13.8125 "/></g></g><g style="fill:#ca95aa;fill-opacity:1;"><g transform="translate(211.413002, 233.734878)"><path style="stroke:none" d="M 0.296875 0.015625 L 0.3125 -0.25 L 1.34375 -0.390625 C 1.4375 -0.410156 1.515625 -0.5 1.578125 -0.65625 L 5.84375 -13.8125 L 7.140625 -13.8125 L 11.6875 -0.375 L 13.046875 -0.296875 C 13.046875 -0.285156 13.039062 -0.1875 13.03125 0 L 9.078125 0.015625 C 9.078125 -0.0976562 9.082031 -0.1875 9.09375 -0.25 L 10.125 -0.390625 C 10.226562 -0.410156 10.28125 -0.488281 10.28125 -0.625 L 9.203125 -3.84375 L 3.046875 -3.84375 L 2 -0.421875 L 4.28125 -0.296875 C 4.28125 -0.285156 4.273438 -0.1875 4.265625 0 Z M 5.984375 -13.4375 L 3.15625 -4.25 L 9.0625 -4.25 Z M 5.984375 -13.4375 "/></g></g></g></svg>